M48
; DRILL file {KiCad (5.1.10)-1} date 09/04/21 13:32:28
; FORMAT={-:-/ absolute / metric / decimal}
; #@! TF.CreationDate,2021-09-04T13:32:28+03:00
; #@! TF.GenerationSoftware,Kicad,Pcbnew,(5.1.10)-1
; #@! TF.FileFunction,Plated,1,2,PTH
FMAT,2
METRIC
T1C0.400
T2C0.500
T3C0.800
T4C1.000
T5C1.100
T6C1.520
T7C2.500
%
G90
G05
T1
X128.27Y-73.66
X128.27Y-76.2
X128.27Y-78.74
X128.27Y-81.28
X128.27Y-83.82
X128.27Y-86.36
X128.27Y-88.9
X128.27Y-91.44
X128.27Y-93.98
X128.27Y-96.52
X128.27Y-99.06
X128.27Y-101.6
X128.27Y-104.14
X128.27Y-106.68
X128.27Y-109.22
X128.27Y-111.76
X128.27Y-114.3
X128.27Y-116.84
X128.27Y-119.38
X134.62Y-67.31
X134.62Y-125.73
X137.16Y-67.31
X137.668Y-114.681
X137.795Y-119.253
X139.7Y-67.31
X139.7Y-90.17
X139.7Y-92.71
X139.7Y-95.25
X139.7Y-97.79
X142.24Y-67.31
X143.891Y-119.253
X144.78Y-67.31
X146.05Y-91.44
X146.05Y-95.25
X146.558Y-74.295
X147.32Y-67.31
X147.701Y-117.475
X147.701Y-121.285
X149.352Y-92.075
X149.86Y-67.31
X151.13Y-69.85
X151.13Y-102.87
X151.765Y-83.693
X151.765Y-85.09
X152.4Y-67.31
X152.4Y-72.39
X152.4Y-88.9
X154.94Y-67.31
X154.94Y-69.85
X156.21Y-88.9
X156.591Y-77.851
X156.591Y-80.645
X157.48Y-67.31
X157.861Y-119.126
X157.861Y-121.285
X158.369Y-85.09
X160.02Y-67.31
X160.02Y-72.39
X161.29Y-88.9
X162.56Y-67.31
X162.56Y-109.22
X162.814Y-123.952
X163.83Y-83.82
X164.846Y-123.952
X165.1Y-67.31
X165.1Y-88.9
X165.735Y-75.565
X166.37Y-83.82
X166.37Y-108.966
X166.37Y-118.745
X166.825Y-116.586
X167.114Y-120.015
X167.64Y-67.31
X168.021Y-109.982
X169.291Y-120.142
X170.053Y-116.967
X170.18Y-67.31
X170.18Y-120.777
X170.561Y-115.824
X170.688Y-118.11
X171.45Y-71.12
X171.45Y-119.507
X172.72Y-67.31
X173.977Y-112.154
X175.26Y-67.31
X175.26Y-113.03
X175.514Y-122.936
X176.733Y-123.241
X177.272Y-116.86
X177.8Y-67.31
X177.8Y-84.963
X178.181Y-98.425
X178.832Y-89.646
X179.324Y-73.279
X180.34Y-67.31
X181.467Y-98.695
X181.991Y-112.268
X182.88Y-67.31
X185.42Y-67.31
X185.42Y-95.25
X187.485Y-119.728
X187.731Y-79.4
X187.96Y-67.31
X187.96Y-93.98
X187.96Y-97.79
X189.611Y-105.156
X190.5Y-67.31
X190.5Y-120.65
X191.389Y-105.156
X193.04Y-67.31
X193.04Y-113.03
X193.04Y-121.92
X193.294Y-104.521
X195.58Y-67.31
X196.85Y-81.28
X196.85Y-113.03
X198.12Y-67.31
X198.12Y-101.6
X200.66Y-67.31
X200.66Y-75.565
X200.66Y-81.28
X200.66Y-90.17
X203.2Y-67.31
X203.2Y-101.6
X204.47Y-81.28
X204.47Y-104.14
X204.47Y-113.03
X204.47Y-116.84
X205.74Y-67.31
X205.74Y-91.44
X205.74Y-95.25
X208.28Y-67.31
X208.661Y-86.106
X210.566Y-98.425
X210.82Y-67.31
X210.82Y-104.14
X212.09Y-101.6
X213.36Y-67.31
X214.247Y-72.896
X214.63Y-76.2
X214.63Y-99.06
X215.011Y-106.426
X215.778Y-110.495
X215.9Y-67.31
X215.9Y-114.3
X215.9Y-118.11
X216.027Y-106.426
X217.195Y-93.574
X217.195Y-97.003
X218.44Y-67.31
X221.239Y-101.595
X222.377Y-79.629
X223.52Y-74.93
X223.957Y-104.592
X223.957Y-107.005
X223.957Y-115.133
X226.06Y-73.66
X226.06Y-76.2
X226.06Y-78.74
X226.06Y-81.28
X226.06Y-83.82
X226.06Y-86.36
X226.06Y-88.9
X226.06Y-91.44
X226.06Y-93.98
X226.06Y-96.52
X226.06Y-99.06
X226.06Y-101.6
X226.06Y-104.14
X226.06Y-106.68
X226.06Y-109.22
X226.06Y-111.76
X226.06Y-114.3
X226.06Y-116.84
X226.06Y-119.38
T2
X184.216Y-100.061
X186.116Y-100.061
T3
X162.125Y-101.6
X167.005Y-101.6
X183.266Y-107.061
X187.066Y-107.061
T4
X132.715Y-84.836
X132.715Y-87.376
X132.715Y-89.916
X132.715Y-92.456
X132.715Y-97.79
X132.715Y-100.33
X132.715Y-102.87
X138.557Y-121.793
X139.065Y-76.2
X139.065Y-78.74
X139.065Y-81.28
X139.065Y-83.82
X139.065Y-100.965
X139.065Y-103.505
X141.097Y-121.793
X141.605Y-100.965
X141.605Y-103.505
X143.637Y-121.793
X144.145Y-100.965
X144.145Y-103.505
X175.26Y-73.025
X175.26Y-75.565
X175.26Y-78.105
X175.26Y-80.645
X189.865Y-71.12
X192.405Y-71.12
X194.945Y-71.12
X199.39Y-93.345
X199.39Y-104.14
X199.39Y-114.935
X201.93Y-93.345
X201.93Y-104.14
X201.93Y-114.935
X210.185Y-73.025
X210.185Y-75.565
X210.185Y-78.105
X210.185Y-80.645
T5
X142.24Y-69.85
X144.78Y-69.85
X147.32Y-69.85
T6
X132.588Y-74.676
X132.588Y-79.756
T7
X130.048Y-69.088
X130.048Y-123.952
X224.028Y-69.088
X224.028Y-123.952
T0
M30
