%FSLAX45Y45*%
G04 Gerber Fmt 4.5, Leading zero omitted, Abs format (unit mm)*
G04 Created by KiCad (PCBNEW (5.1.10)-1) date 2021-09-04 13:32:30*
%MOMM*%
%LPD*%
G01*
G04 APERTURE LIST*
%TA.AperFunction,Profile*%
%ADD10C,0.100000*%
%TD*%
%ADD11C,0.200000*%
%ADD12C,0.300000*%
G04 APERTURE END LIST*
D10*
X12700000Y-6604000D02*
X22707600Y-6604000D01*
X12700000Y-12700000D02*
X22707600Y-12700000D01*
X22707600Y-12700000D02*
X22707600Y-6604000D01*
X12700000Y-12700000D02*
X12700000Y-6604000D01*
D11*
X12807000Y-7346000D02*
X12847000Y-7386000D01*
X12847000Y-7346000D02*
X12807000Y-7386000D01*
X12807000Y-7600000D02*
X12847000Y-7640000D01*
X12847000Y-7600000D02*
X12807000Y-7640000D01*
X12807000Y-7854000D02*
X12847000Y-7894000D01*
X12847000Y-7854000D02*
X12807000Y-7894000D01*
X12807000Y-8108000D02*
X12847000Y-8148000D01*
X12847000Y-8108000D02*
X12807000Y-8148000D01*
X12807000Y-8362000D02*
X12847000Y-8402000D01*
X12847000Y-8362000D02*
X12807000Y-8402000D01*
X12807000Y-8616000D02*
X12847000Y-8656000D01*
X12847000Y-8616000D02*
X12807000Y-8656000D01*
X12807000Y-8870000D02*
X12847000Y-8910000D01*
X12847000Y-8870000D02*
X12807000Y-8910000D01*
X12807000Y-9124000D02*
X12847000Y-9164000D01*
X12847000Y-9124000D02*
X12807000Y-9164000D01*
X12807000Y-9378000D02*
X12847000Y-9418000D01*
X12847000Y-9378000D02*
X12807000Y-9418000D01*
X12807000Y-9632000D02*
X12847000Y-9672000D01*
X12847000Y-9632000D02*
X12807000Y-9672000D01*
X12807000Y-9886000D02*
X12847000Y-9926000D01*
X12847000Y-9886000D02*
X12807000Y-9926000D01*
X12807000Y-10140000D02*
X12847000Y-10180000D01*
X12847000Y-10140000D02*
X12807000Y-10180000D01*
X12807000Y-10394000D02*
X12847000Y-10434000D01*
X12847000Y-10394000D02*
X12807000Y-10434000D01*
X12807000Y-10648000D02*
X12847000Y-10688000D01*
X12847000Y-10648000D02*
X12807000Y-10688000D01*
X12807000Y-10902000D02*
X12847000Y-10942000D01*
X12847000Y-10902000D02*
X12807000Y-10942000D01*
X12807000Y-11156000D02*
X12847000Y-11196000D01*
X12847000Y-11156000D02*
X12807000Y-11196000D01*
X12807000Y-11410000D02*
X12847000Y-11450000D01*
X12847000Y-11410000D02*
X12807000Y-11450000D01*
X12807000Y-11664000D02*
X12847000Y-11704000D01*
X12847000Y-11664000D02*
X12807000Y-11704000D01*
X12807000Y-11918000D02*
X12847000Y-11958000D01*
X12847000Y-11918000D02*
X12807000Y-11958000D01*
X13442000Y-6711000D02*
X13482000Y-6751000D01*
X13482000Y-6711000D02*
X13442000Y-6751000D01*
X13442000Y-12553000D02*
X13482000Y-12593000D01*
X13482000Y-12553000D02*
X13442000Y-12593000D01*
X13696000Y-6711000D02*
X13736000Y-6751000D01*
X13736000Y-6711000D02*
X13696000Y-6751000D01*
X13746800Y-11448100D02*
X13786800Y-11488100D01*
X13786800Y-11448100D02*
X13746800Y-11488100D01*
X13759500Y-11905300D02*
X13799500Y-11945300D01*
X13799500Y-11905300D02*
X13759500Y-11945300D01*
X13950000Y-6711000D02*
X13990000Y-6751000D01*
X13990000Y-6711000D02*
X13950000Y-6751000D01*
X13950000Y-8997000D02*
X13990000Y-9037000D01*
X13990000Y-8997000D02*
X13950000Y-9037000D01*
X13950000Y-9251000D02*
X13990000Y-9291000D01*
X13990000Y-9251000D02*
X13950000Y-9291000D01*
X13950000Y-9505000D02*
X13990000Y-9545000D01*
X13990000Y-9505000D02*
X13950000Y-9545000D01*
X13950000Y-9759000D02*
X13990000Y-9799000D01*
X13990000Y-9759000D02*
X13950000Y-9799000D01*
X14204000Y-6711000D02*
X14244000Y-6751000D01*
X14244000Y-6711000D02*
X14204000Y-6751000D01*
X14369100Y-11905300D02*
X14409100Y-11945300D01*
X14409100Y-11905300D02*
X14369100Y-11945300D01*
X14458000Y-6711000D02*
X14498000Y-6751000D01*
X14498000Y-6711000D02*
X14458000Y-6751000D01*
X14585000Y-9124000D02*
X14625000Y-9164000D01*
X14625000Y-9124000D02*
X14585000Y-9164000D01*
X14585000Y-9505000D02*
X14625000Y-9545000D01*
X14625000Y-9505000D02*
X14585000Y-9545000D01*
X14635800Y-7409500D02*
X14675800Y-7449500D01*
X14675800Y-7409500D02*
X14635800Y-7449500D01*
X14712000Y-6711000D02*
X14752000Y-6751000D01*
X14752000Y-6711000D02*
X14712000Y-6751000D01*
X14750100Y-11727500D02*
X14790100Y-11767500D01*
X14790100Y-11727500D02*
X14750100Y-11767500D01*
X14750100Y-12108500D02*
X14790100Y-12148500D01*
X14790100Y-12108500D02*
X14750100Y-12148500D01*
X14915200Y-9187500D02*
X14955200Y-9227500D01*
X14955200Y-9187500D02*
X14915200Y-9227500D01*
X14966000Y-6711000D02*
X15006000Y-6751000D01*
X15006000Y-6711000D02*
X14966000Y-6751000D01*
X15093000Y-6965000D02*
X15133000Y-7005000D01*
X15133000Y-6965000D02*
X15093000Y-7005000D01*
X15093000Y-10267000D02*
X15133000Y-10307000D01*
X15133000Y-10267000D02*
X15093000Y-10307000D01*
X15156500Y-8349300D02*
X15196500Y-8389300D01*
X15196500Y-8349300D02*
X15156500Y-8389300D01*
X15156500Y-8489000D02*
X15196500Y-8529000D01*
X15196500Y-8489000D02*
X15156500Y-8529000D01*
X15220000Y-6711000D02*
X15260000Y-6751000D01*
X15260000Y-6711000D02*
X15220000Y-6751000D01*
X15220000Y-7219000D02*
X15260000Y-7259000D01*
X15260000Y-7219000D02*
X15220000Y-7259000D01*
X15220000Y-8870000D02*
X15260000Y-8910000D01*
X15260000Y-8870000D02*
X15220000Y-8910000D01*
X15474000Y-6711000D02*
X15514000Y-6751000D01*
X15514000Y-6711000D02*
X15474000Y-6751000D01*
X15474000Y-6965000D02*
X15514000Y-7005000D01*
X15514000Y-6965000D02*
X15474000Y-7005000D01*
X15601000Y-8870000D02*
X15641000Y-8910000D01*
X15641000Y-8870000D02*
X15601000Y-8910000D01*
X15639100Y-7765100D02*
X15679100Y-7805100D01*
X15679100Y-7765100D02*
X15639100Y-7805100D01*
X15639100Y-8044500D02*
X15679100Y-8084500D01*
X15679100Y-8044500D02*
X15639100Y-8084500D01*
X15728000Y-6711000D02*
X15768000Y-6751000D01*
X15768000Y-6711000D02*
X15728000Y-6751000D01*
X15766100Y-11892600D02*
X15806100Y-11932600D01*
X15806100Y-11892600D02*
X15766100Y-11932600D01*
X15766100Y-12108500D02*
X15806100Y-12148500D01*
X15806100Y-12108500D02*
X15766100Y-12148500D01*
X15816900Y-8489000D02*
X15856900Y-8529000D01*
X15856900Y-8489000D02*
X15816900Y-8529000D01*
X15982000Y-6711000D02*
X16022000Y-6751000D01*
X16022000Y-6711000D02*
X15982000Y-6751000D01*
X15982000Y-7219000D02*
X16022000Y-7259000D01*
X16022000Y-7219000D02*
X15982000Y-7259000D01*
X16109000Y-8870000D02*
X16149000Y-8910000D01*
X16149000Y-8870000D02*
X16109000Y-8910000D01*
X16236000Y-6711000D02*
X16276000Y-6751000D01*
X16276000Y-6711000D02*
X16236000Y-6751000D01*
X16236000Y-10902000D02*
X16276000Y-10942000D01*
X16276000Y-10902000D02*
X16236000Y-10942000D01*
X16261400Y-12375200D02*
X16301400Y-12415200D01*
X16301400Y-12375200D02*
X16261400Y-12415200D01*
X16363000Y-8362000D02*
X16403000Y-8402000D01*
X16403000Y-8362000D02*
X16363000Y-8402000D01*
X16464600Y-12375200D02*
X16504600Y-12415200D01*
X16504600Y-12375200D02*
X16464600Y-12415200D01*
X16490000Y-6711000D02*
X16530000Y-6751000D01*
X16530000Y-6711000D02*
X16490000Y-6751000D01*
X16490000Y-8870000D02*
X16530000Y-8910000D01*
X16530000Y-8870000D02*
X16490000Y-8910000D01*
X16553500Y-7536500D02*
X16593500Y-7576500D01*
X16593500Y-7536500D02*
X16553500Y-7576500D01*
X16617000Y-8362000D02*
X16657000Y-8402000D01*
X16657000Y-8362000D02*
X16617000Y-8402000D01*
X16617000Y-10876600D02*
X16657000Y-10916600D01*
X16657000Y-10876600D02*
X16617000Y-10916600D01*
X16617000Y-11854500D02*
X16657000Y-11894500D01*
X16657000Y-11854500D02*
X16617000Y-11894500D01*
X16662470Y-11638600D02*
X16702470Y-11678600D01*
X16702470Y-11638600D02*
X16662470Y-11678600D01*
X16691430Y-11981500D02*
X16731430Y-12021500D01*
X16731430Y-11981500D02*
X16691430Y-12021500D01*
X16744000Y-6711000D02*
X16784000Y-6751000D01*
X16784000Y-6711000D02*
X16744000Y-6751000D01*
X16782100Y-10978200D02*
X16822100Y-11018200D01*
X16822100Y-10978200D02*
X16782100Y-11018200D01*
X16909100Y-11994200D02*
X16949100Y-12034200D01*
X16949100Y-11994200D02*
X16909100Y-12034200D01*
X16985300Y-11676700D02*
X17025300Y-11716700D01*
X17025300Y-11676700D02*
X16985300Y-11716700D01*
X16998000Y-6711000D02*
X17038000Y-6751000D01*
X17038000Y-6711000D02*
X16998000Y-6751000D01*
X16998000Y-12057700D02*
X17038000Y-12097700D01*
X17038000Y-12057700D02*
X16998000Y-12097700D01*
X17036100Y-11562400D02*
X17076100Y-11602400D01*
X17076100Y-11562400D02*
X17036100Y-11602400D01*
X17048800Y-11791000D02*
X17088800Y-11831000D01*
X17088800Y-11791000D02*
X17048800Y-11831000D01*
X17125000Y-7092000D02*
X17165000Y-7132000D01*
X17165000Y-7092000D02*
X17125000Y-7132000D01*
X17125000Y-11930700D02*
X17165000Y-11970700D01*
X17165000Y-11930700D02*
X17125000Y-11970700D01*
X17252000Y-6711000D02*
X17292000Y-6751000D01*
X17292000Y-6711000D02*
X17252000Y-6751000D01*
X17377730Y-11195370D02*
X17417730Y-11235370D01*
X17417730Y-11195370D02*
X17377730Y-11235370D01*
X17506000Y-6711000D02*
X17546000Y-6751000D01*
X17546000Y-6711000D02*
X17506000Y-6751000D01*
X17506000Y-11283000D02*
X17546000Y-11323000D01*
X17546000Y-11283000D02*
X17506000Y-11323000D01*
X17531400Y-12273600D02*
X17571400Y-12313600D01*
X17571400Y-12273600D02*
X17531400Y-12313600D01*
X17653320Y-12304080D02*
X17693320Y-12344080D01*
X17693320Y-12304080D02*
X17653320Y-12344080D01*
X17707200Y-11666000D02*
X17747200Y-11706000D01*
X17747200Y-11666000D02*
X17707200Y-11706000D01*
X17760000Y-6711000D02*
X17800000Y-6751000D01*
X17800000Y-6711000D02*
X17760000Y-6751000D01*
X17760000Y-8476300D02*
X17800000Y-8516300D01*
X17800000Y-8476300D02*
X17760000Y-8516300D01*
X17798100Y-9822500D02*
X17838100Y-9862500D01*
X17838100Y-9822500D02*
X17798100Y-9862500D01*
X17863200Y-8944600D02*
X17903200Y-8984600D01*
X17903200Y-8944600D02*
X17863200Y-8984600D01*
X17912400Y-7307900D02*
X17952400Y-7347900D01*
X17952400Y-7307900D02*
X17912400Y-7347900D01*
X18014000Y-6711000D02*
X18054000Y-6751000D01*
X18054000Y-6711000D02*
X18014000Y-6751000D01*
X18126700Y-9849500D02*
X18166700Y-9889500D01*
X18166700Y-9849500D02*
X18126700Y-9889500D01*
X18179100Y-11206800D02*
X18219100Y-11246800D01*
X18219100Y-11206800D02*
X18179100Y-11246800D01*
X18268000Y-6711000D02*
X18308000Y-6751000D01*
X18308000Y-6711000D02*
X18268000Y-6751000D01*
X18522000Y-6711000D02*
X18562000Y-6751000D01*
X18562000Y-6711000D02*
X18522000Y-6751000D01*
X18522000Y-9505000D02*
X18562000Y-9545000D01*
X18562000Y-9505000D02*
X18522000Y-9545000D01*
X18728500Y-11952800D02*
X18768500Y-11992800D01*
X18768500Y-11952800D02*
X18728500Y-11992800D01*
X18753140Y-7920040D02*
X18793140Y-7960040D01*
X18793140Y-7920040D02*
X18753140Y-7960040D01*
X18776000Y-6711000D02*
X18816000Y-6751000D01*
X18816000Y-6711000D02*
X18776000Y-6751000D01*
X18776000Y-9378000D02*
X18816000Y-9418000D01*
X18816000Y-9378000D02*
X18776000Y-9418000D01*
X18776000Y-9759000D02*
X18816000Y-9799000D01*
X18816000Y-9759000D02*
X18776000Y-9799000D01*
X18941100Y-10495600D02*
X18981100Y-10535600D01*
X18981100Y-10495600D02*
X18941100Y-10535600D01*
X19030000Y-6711000D02*
X19070000Y-6751000D01*
X19070000Y-6711000D02*
X19030000Y-6751000D01*
X19030000Y-12045000D02*
X19070000Y-12085000D01*
X19070000Y-12045000D02*
X19030000Y-12085000D01*
X19118900Y-10495600D02*
X19158900Y-10535600D01*
X19158900Y-10495600D02*
X19118900Y-10535600D01*
X19284000Y-6711000D02*
X19324000Y-6751000D01*
X19324000Y-6711000D02*
X19284000Y-6751000D01*
X19284000Y-11283000D02*
X19324000Y-11323000D01*
X19324000Y-11283000D02*
X19284000Y-11323000D01*
X19284000Y-12172000D02*
X19324000Y-12212000D01*
X19324000Y-12172000D02*
X19284000Y-12212000D01*
X19309400Y-10432100D02*
X19349400Y-10472100D01*
X19349400Y-10432100D02*
X19309400Y-10472100D01*
X19538000Y-6711000D02*
X19578000Y-6751000D01*
X19578000Y-6711000D02*
X19538000Y-6751000D01*
X19665000Y-8108000D02*
X19705000Y-8148000D01*
X19705000Y-8108000D02*
X19665000Y-8148000D01*
X19665000Y-11283000D02*
X19705000Y-11323000D01*
X19705000Y-11283000D02*
X19665000Y-11323000D01*
X19792000Y-6711000D02*
X19832000Y-6751000D01*
X19832000Y-6711000D02*
X19792000Y-6751000D01*
X19792000Y-10140000D02*
X19832000Y-10180000D01*
X19832000Y-10140000D02*
X19792000Y-10180000D01*
X20046000Y-6711000D02*
X20086000Y-6751000D01*
X20086000Y-6711000D02*
X20046000Y-6751000D01*
X20046000Y-7536500D02*
X20086000Y-7576500D01*
X20086000Y-7536500D02*
X20046000Y-7576500D01*
X20046000Y-8108000D02*
X20086000Y-8148000D01*
X20086000Y-8108000D02*
X20046000Y-8148000D01*
X20046000Y-8997000D02*
X20086000Y-9037000D01*
X20086000Y-8997000D02*
X20046000Y-9037000D01*
X20300000Y-6711000D02*
X20340000Y-6751000D01*
X20340000Y-6711000D02*
X20300000Y-6751000D01*
X20300000Y-10140000D02*
X20340000Y-10180000D01*
X20340000Y-10140000D02*
X20300000Y-10180000D01*
X20427000Y-8108000D02*
X20467000Y-8148000D01*
X20467000Y-8108000D02*
X20427000Y-8148000D01*
X20427000Y-10394000D02*
X20467000Y-10434000D01*
X20467000Y-10394000D02*
X20427000Y-10434000D01*
X20427000Y-11283000D02*
X20467000Y-11323000D01*
X20467000Y-11283000D02*
X20427000Y-11323000D01*
X20427000Y-11664000D02*
X20467000Y-11704000D01*
X20467000Y-11664000D02*
X20427000Y-11704000D01*
X20554000Y-6711000D02*
X20594000Y-6751000D01*
X20594000Y-6711000D02*
X20554000Y-6751000D01*
X20554000Y-9124000D02*
X20594000Y-9164000D01*
X20594000Y-9124000D02*
X20554000Y-9164000D01*
X20554000Y-9505000D02*
X20594000Y-9545000D01*
X20594000Y-9505000D02*
X20554000Y-9545000D01*
X20808000Y-6711000D02*
X20848000Y-6751000D01*
X20848000Y-6711000D02*
X20808000Y-6751000D01*
X20846100Y-8590600D02*
X20886100Y-8630600D01*
X20886100Y-8590600D02*
X20846100Y-8630600D01*
X21036600Y-9822500D02*
X21076600Y-9862500D01*
X21076600Y-9822500D02*
X21036600Y-9862500D01*
X21062000Y-6711000D02*
X21102000Y-6751000D01*
X21102000Y-6711000D02*
X21062000Y-6751000D01*
X21062000Y-10394000D02*
X21102000Y-10434000D01*
X21102000Y-10394000D02*
X21062000Y-10434000D01*
X21189000Y-10140000D02*
X21229000Y-10180000D01*
X21229000Y-10140000D02*
X21189000Y-10180000D01*
X21316000Y-6711000D02*
X21356000Y-6751000D01*
X21356000Y-6711000D02*
X21316000Y-6751000D01*
X21404700Y-7269600D02*
X21444700Y-7309600D01*
X21444700Y-7269600D02*
X21404700Y-7309600D01*
X21443000Y-7600000D02*
X21483000Y-7640000D01*
X21483000Y-7600000D02*
X21443000Y-7640000D01*
X21443000Y-9886000D02*
X21483000Y-9926000D01*
X21483000Y-9886000D02*
X21443000Y-9926000D01*
X21481100Y-10622600D02*
X21521100Y-10662600D01*
X21521100Y-10622600D02*
X21481100Y-10662600D01*
X21557800Y-11029500D02*
X21597800Y-11069500D01*
X21597800Y-11029500D02*
X21557800Y-11069500D01*
X21570000Y-6711000D02*
X21610000Y-6751000D01*
X21610000Y-6711000D02*
X21570000Y-6751000D01*
X21570000Y-11410000D02*
X21610000Y-11450000D01*
X21610000Y-11410000D02*
X21570000Y-11450000D01*
X21570000Y-11791000D02*
X21610000Y-11831000D01*
X21610000Y-11791000D02*
X21570000Y-11831000D01*
X21582700Y-10622600D02*
X21622700Y-10662600D01*
X21622700Y-10622600D02*
X21582700Y-10662600D01*
X21699500Y-9337400D02*
X21739500Y-9377400D01*
X21739500Y-9337400D02*
X21699500Y-9377400D01*
X21699500Y-9680300D02*
X21739500Y-9720300D01*
X21739500Y-9680300D02*
X21699500Y-9720300D01*
X21824000Y-6711000D02*
X21864000Y-6751000D01*
X21864000Y-6711000D02*
X21824000Y-6751000D01*
X22103900Y-10139500D02*
X22143900Y-10179500D01*
X22143900Y-10139500D02*
X22103900Y-10179500D01*
X22217700Y-7942900D02*
X22257700Y-7982900D01*
X22257700Y-7942900D02*
X22217700Y-7982900D01*
X22332000Y-7473000D02*
X22372000Y-7513000D01*
X22372000Y-7473000D02*
X22332000Y-7513000D01*
X22375700Y-10439200D02*
X22415700Y-10479200D01*
X22415700Y-10439200D02*
X22375700Y-10479200D01*
X22375700Y-10680500D02*
X22415700Y-10720500D01*
X22415700Y-10680500D02*
X22375700Y-10720500D01*
X22375700Y-11493300D02*
X22415700Y-11533300D01*
X22415700Y-11493300D02*
X22375700Y-11533300D01*
X22586000Y-7346000D02*
X22626000Y-7386000D01*
X22626000Y-7346000D02*
X22586000Y-7386000D01*
X22586000Y-7600000D02*
X22626000Y-7640000D01*
X22626000Y-7600000D02*
X22586000Y-7640000D01*
X22586000Y-7854000D02*
X22626000Y-7894000D01*
X22626000Y-7854000D02*
X22586000Y-7894000D01*
X22586000Y-8108000D02*
X22626000Y-8148000D01*
X22626000Y-8108000D02*
X22586000Y-8148000D01*
X22586000Y-8362000D02*
X22626000Y-8402000D01*
X22626000Y-8362000D02*
X22586000Y-8402000D01*
X22586000Y-8616000D02*
X22626000Y-8656000D01*
X22626000Y-8616000D02*
X22586000Y-8656000D01*
X22586000Y-8870000D02*
X22626000Y-8910000D01*
X22626000Y-8870000D02*
X22586000Y-8910000D01*
X22586000Y-9124000D02*
X22626000Y-9164000D01*
X22626000Y-9124000D02*
X22586000Y-9164000D01*
X22586000Y-9378000D02*
X22626000Y-9418000D01*
X22626000Y-9378000D02*
X22586000Y-9418000D01*
X22586000Y-9632000D02*
X22626000Y-9672000D01*
X22626000Y-9632000D02*
X22586000Y-9672000D01*
X22586000Y-9886000D02*
X22626000Y-9926000D01*
X22626000Y-9886000D02*
X22586000Y-9926000D01*
X22586000Y-10140000D02*
X22626000Y-10180000D01*
X22626000Y-10140000D02*
X22586000Y-10180000D01*
X22586000Y-10394000D02*
X22626000Y-10434000D01*
X22626000Y-10394000D02*
X22586000Y-10434000D01*
X22586000Y-10648000D02*
X22626000Y-10688000D01*
X22626000Y-10648000D02*
X22586000Y-10688000D01*
X22586000Y-10902000D02*
X22626000Y-10942000D01*
X22626000Y-10902000D02*
X22586000Y-10942000D01*
X22586000Y-11156000D02*
X22626000Y-11196000D01*
X22626000Y-11156000D02*
X22586000Y-11196000D01*
X22586000Y-11410000D02*
X22626000Y-11450000D01*
X22626000Y-11410000D02*
X22586000Y-11450000D01*
X22586000Y-11664000D02*
X22626000Y-11704000D01*
X22626000Y-11664000D02*
X22586000Y-11704000D01*
X22586000Y-11918000D02*
X22626000Y-11958000D01*
X22626000Y-11918000D02*
X22586000Y-11958000D01*
X18446600Y-10006100D02*
G75*
G03*
X18446600Y-10006100I-25000J0D01*
G01*
X18636600Y-10006100D02*
G75*
G03*
X18636600Y-10006100I-25000J0D01*
G01*
X16212500Y-10120000D02*
X16212500Y-10200000D01*
X16172500Y-10160000D02*
X16252500Y-10160000D01*
X16700500Y-10120000D02*
X16700500Y-10200000D01*
X16660500Y-10160000D02*
X16740500Y-10160000D01*
X18326600Y-10666100D02*
X18326600Y-10746100D01*
X18286600Y-10706100D02*
X18366600Y-10706100D01*
X18706600Y-10666100D02*
X18706600Y-10746100D01*
X18666600Y-10706100D02*
X18746600Y-10706100D01*
X13306856Y-8518956D02*
X13306856Y-8448244D01*
X13236144Y-8448244D01*
X13236144Y-8518956D01*
X13306856Y-8518956D01*
X13306856Y-8772956D02*
X13306856Y-8702244D01*
X13236144Y-8702244D01*
X13236144Y-8772956D01*
X13306856Y-8772956D01*
X13306856Y-9026956D02*
X13306856Y-8956244D01*
X13236144Y-8956244D01*
X13236144Y-9026956D01*
X13306856Y-9026956D01*
X13306856Y-9280956D02*
X13306856Y-9210244D01*
X13236144Y-9210244D01*
X13236144Y-9280956D01*
X13306856Y-9280956D01*
X13306856Y-9814356D02*
X13306856Y-9743644D01*
X13236144Y-9743644D01*
X13236144Y-9814356D01*
X13306856Y-9814356D01*
X13306856Y-10068356D02*
X13306856Y-9997644D01*
X13236144Y-9997644D01*
X13236144Y-10068356D01*
X13306856Y-10068356D01*
X13306856Y-10322356D02*
X13306856Y-10251644D01*
X13236144Y-10251644D01*
X13236144Y-10322356D01*
X13306856Y-10322356D01*
X13891056Y-12214656D02*
X13891056Y-12143944D01*
X13820344Y-12143944D01*
X13820344Y-12214656D01*
X13891056Y-12214656D01*
X13941856Y-7655356D02*
X13941856Y-7584644D01*
X13871144Y-7584644D01*
X13871144Y-7655356D01*
X13941856Y-7655356D01*
X13941856Y-7909356D02*
X13941856Y-7838644D01*
X13871144Y-7838644D01*
X13871144Y-7909356D01*
X13941856Y-7909356D01*
X13941856Y-8163356D02*
X13941856Y-8092644D01*
X13871144Y-8092644D01*
X13871144Y-8163356D01*
X13941856Y-8163356D01*
X13941856Y-8417356D02*
X13941856Y-8346644D01*
X13871144Y-8346644D01*
X13871144Y-8417356D01*
X13941856Y-8417356D01*
X13941856Y-10131856D02*
X13941856Y-10061144D01*
X13871144Y-10061144D01*
X13871144Y-10131856D01*
X13941856Y-10131856D01*
X13941856Y-10385856D02*
X13941856Y-10315144D01*
X13871144Y-10315144D01*
X13871144Y-10385856D01*
X13941856Y-10385856D01*
X14145056Y-12214656D02*
X14145056Y-12143944D01*
X14074344Y-12143944D01*
X14074344Y-12214656D01*
X14145056Y-12214656D01*
X14195856Y-10131856D02*
X14195856Y-10061144D01*
X14125144Y-10061144D01*
X14125144Y-10131856D01*
X14195856Y-10131856D01*
X14195856Y-10385856D02*
X14195856Y-10315144D01*
X14125144Y-10315144D01*
X14125144Y-10385856D01*
X14195856Y-10385856D01*
X14399056Y-12214656D02*
X14399056Y-12143944D01*
X14328344Y-12143944D01*
X14328344Y-12214656D01*
X14399056Y-12214656D01*
X14449856Y-10131856D02*
X14449856Y-10061144D01*
X14379144Y-10061144D01*
X14379144Y-10131856D01*
X14449856Y-10131856D01*
X14449856Y-10385856D02*
X14449856Y-10315144D01*
X14379144Y-10315144D01*
X14379144Y-10385856D01*
X14449856Y-10385856D01*
X17561356Y-7337856D02*
X17561356Y-7267144D01*
X17490644Y-7267144D01*
X17490644Y-7337856D01*
X17561356Y-7337856D01*
X17561356Y-7591856D02*
X17561356Y-7521144D01*
X17490644Y-7521144D01*
X17490644Y-7591856D01*
X17561356Y-7591856D01*
X17561356Y-7845856D02*
X17561356Y-7775144D01*
X17490644Y-7775144D01*
X17490644Y-7845856D01*
X17561356Y-7845856D01*
X17561356Y-8099856D02*
X17561356Y-8029144D01*
X17490644Y-8029144D01*
X17490644Y-8099856D01*
X17561356Y-8099856D01*
X19021856Y-7147356D02*
X19021856Y-7076644D01*
X18951144Y-7076644D01*
X18951144Y-7147356D01*
X19021856Y-7147356D01*
X19275856Y-7147356D02*
X19275856Y-7076644D01*
X19205144Y-7076644D01*
X19205144Y-7147356D01*
X19275856Y-7147356D01*
X19529856Y-7147356D02*
X19529856Y-7076644D01*
X19459144Y-7076644D01*
X19459144Y-7147356D01*
X19529856Y-7147356D01*
X19974356Y-9369856D02*
X19974356Y-9299144D01*
X19903644Y-9299144D01*
X19903644Y-9369856D01*
X19974356Y-9369856D01*
X19974356Y-10449356D02*
X19974356Y-10378644D01*
X19903644Y-10378644D01*
X19903644Y-10449356D01*
X19974356Y-10449356D01*
X19974356Y-11528856D02*
X19974356Y-11458144D01*
X19903644Y-11458144D01*
X19903644Y-11528856D01*
X19974356Y-11528856D01*
X20228356Y-9369856D02*
X20228356Y-9299144D01*
X20157644Y-9299144D01*
X20157644Y-9369856D01*
X20228356Y-9369856D01*
X20228356Y-10449356D02*
X20228356Y-10378644D01*
X20157644Y-10378644D01*
X20157644Y-10449356D01*
X20228356Y-10449356D01*
X20228356Y-11528856D02*
X20228356Y-11458144D01*
X20157644Y-11458144D01*
X20157644Y-11528856D01*
X20228356Y-11528856D01*
X21053856Y-7337856D02*
X21053856Y-7267144D01*
X20983144Y-7267144D01*
X20983144Y-7337856D01*
X21053856Y-7337856D01*
X21053856Y-7591856D02*
X21053856Y-7521144D01*
X20983144Y-7521144D01*
X20983144Y-7591856D01*
X21053856Y-7591856D01*
X21053856Y-7845856D02*
X21053856Y-7775144D01*
X20983144Y-7775144D01*
X20983144Y-7845856D01*
X21053856Y-7845856D01*
X21053856Y-8099856D02*
X21053856Y-8029144D01*
X20983144Y-8029144D01*
X20983144Y-8099856D01*
X21053856Y-8099856D01*
X14224000Y-7040000D02*
X14279000Y-6985000D01*
X14224000Y-6930000D01*
X14169000Y-6985000D01*
X14224000Y-7040000D01*
X14478000Y-7040000D02*
X14533000Y-6985000D01*
X14478000Y-6930000D01*
X14423000Y-6985000D01*
X14478000Y-7040000D01*
X14732000Y-7040000D02*
X14787000Y-6985000D01*
X14732000Y-6930000D01*
X14677000Y-6985000D01*
X14732000Y-7040000D01*
X13182800Y-7391600D02*
X13334800Y-7543600D01*
X13334800Y-7391600D02*
X13182800Y-7543600D01*
X13334800Y-7467600D02*
G75*
G03*
X13334800Y-7467600I-76000J0D01*
G01*
X13182800Y-7899600D02*
X13334800Y-8051600D01*
X13334800Y-7899600D02*
X13182800Y-8051600D01*
X13334800Y-7975600D02*
G75*
G03*
X13334800Y-7975600I-76000J0D01*
G01*
X12879800Y-6783800D02*
X13129800Y-7033800D01*
X13129800Y-6783800D02*
X12879800Y-7033800D01*
X13004800Y-6783800D02*
X13004800Y-7033800D01*
X12879800Y-6908800D02*
X13129800Y-6908800D01*
X12879800Y-12270200D02*
X13129800Y-12520200D01*
X13129800Y-12270200D02*
X12879800Y-12520200D01*
X13004800Y-12270200D02*
X13004800Y-12520200D01*
X12879800Y-12395200D02*
X13129800Y-12395200D01*
X22277800Y-6783800D02*
X22527800Y-7033800D01*
X22527800Y-6783800D02*
X22277800Y-7033800D01*
X22402800Y-6783800D02*
X22402800Y-7033800D01*
X22277800Y-6908800D02*
X22527800Y-6908800D01*
X22277800Y-12270200D02*
X22527800Y-12520200D01*
X22527800Y-12270200D02*
X22277800Y-12520200D01*
X22402800Y-12270200D02*
X22402800Y-12520200D01*
X22277800Y-12395200D02*
X22527800Y-12395200D01*
D12*
X12981428Y-13170714D02*
X12981428Y-12870714D01*
X13052857Y-12870714D01*
X13095714Y-12885000D01*
X13124286Y-12913571D01*
X13138571Y-12942143D01*
X13152857Y-12999286D01*
X13152857Y-13042143D01*
X13138571Y-13099286D01*
X13124286Y-13127857D01*
X13095714Y-13156429D01*
X13052857Y-13170714D01*
X12981428Y-13170714D01*
X13281428Y-13170714D02*
X13281428Y-12970714D01*
X13281428Y-13027857D02*
X13295714Y-12999286D01*
X13310000Y-12985000D01*
X13338571Y-12970714D01*
X13367143Y-12970714D01*
X13467143Y-13170714D02*
X13467143Y-12970714D01*
X13467143Y-12870714D02*
X13452857Y-12885000D01*
X13467143Y-12899286D01*
X13481428Y-12885000D01*
X13467143Y-12870714D01*
X13467143Y-12899286D01*
X13652857Y-13170714D02*
X13624286Y-13156429D01*
X13610000Y-13127857D01*
X13610000Y-12870714D01*
X13810000Y-13170714D02*
X13781428Y-13156429D01*
X13767143Y-13127857D01*
X13767143Y-12870714D01*
X14152857Y-13170714D02*
X14152857Y-12870714D01*
X14252857Y-13085000D01*
X14352857Y-12870714D01*
X14352857Y-13170714D01*
X14624286Y-13170714D02*
X14624286Y-13013571D01*
X14610000Y-12985000D01*
X14581428Y-12970714D01*
X14524286Y-12970714D01*
X14495714Y-12985000D01*
X14624286Y-13156429D02*
X14595714Y-13170714D01*
X14524286Y-13170714D01*
X14495714Y-13156429D01*
X14481428Y-13127857D01*
X14481428Y-13099286D01*
X14495714Y-13070714D01*
X14524286Y-13056429D01*
X14595714Y-13056429D01*
X14624286Y-13042143D01*
X14767143Y-12970714D02*
X14767143Y-13270714D01*
X14767143Y-12985000D02*
X14795714Y-12970714D01*
X14852857Y-12970714D01*
X14881428Y-12985000D01*
X14895714Y-12999286D01*
X14910000Y-13027857D01*
X14910000Y-13113571D01*
X14895714Y-13142143D01*
X14881428Y-13156429D01*
X14852857Y-13170714D01*
X14795714Y-13170714D01*
X14767143Y-13156429D01*
X15038571Y-13142143D02*
X15052857Y-13156429D01*
X15038571Y-13170714D01*
X15024286Y-13156429D01*
X15038571Y-13142143D01*
X15038571Y-13170714D01*
X15038571Y-12985000D02*
X15052857Y-12999286D01*
X15038571Y-13013571D01*
X15024286Y-12999286D01*
X15038571Y-12985000D01*
X15038571Y-13013571D01*
X12655000Y-13645000D02*
X12695000Y-13685000D01*
X12695000Y-13645000D02*
X12655000Y-13685000D01*
X13038571Y-13500714D02*
X13067143Y-13500714D01*
X13095714Y-13515000D01*
X13110000Y-13529286D01*
X13124286Y-13557857D01*
X13138571Y-13615000D01*
X13138571Y-13686429D01*
X13124286Y-13743571D01*
X13110000Y-13772143D01*
X13095714Y-13786429D01*
X13067143Y-13800714D01*
X13038571Y-13800714D01*
X13010000Y-13786429D01*
X12995714Y-13772143D01*
X12981428Y-13743571D01*
X12967143Y-13686429D01*
X12967143Y-13615000D01*
X12981428Y-13557857D01*
X12995714Y-13529286D01*
X13010000Y-13515000D01*
X13038571Y-13500714D01*
X13267143Y-13772143D02*
X13281428Y-13786429D01*
X13267143Y-13800714D01*
X13252857Y-13786429D01*
X13267143Y-13772143D01*
X13267143Y-13800714D01*
X13538571Y-13600714D02*
X13538571Y-13800714D01*
X13467143Y-13486429D02*
X13395714Y-13700714D01*
X13581428Y-13700714D01*
X13752857Y-13500714D02*
X13781428Y-13500714D01*
X13810000Y-13515000D01*
X13824286Y-13529286D01*
X13838571Y-13557857D01*
X13852857Y-13615000D01*
X13852857Y-13686429D01*
X13838571Y-13743571D01*
X13824286Y-13772143D01*
X13810000Y-13786429D01*
X13781428Y-13800714D01*
X13752857Y-13800714D01*
X13724286Y-13786429D01*
X13710000Y-13772143D01*
X13695714Y-13743571D01*
X13681428Y-13686429D01*
X13681428Y-13615000D01*
X13695714Y-13557857D01*
X13710000Y-13529286D01*
X13724286Y-13515000D01*
X13752857Y-13500714D01*
X14038571Y-13500714D02*
X14067143Y-13500714D01*
X14095714Y-13515000D01*
X14110000Y-13529286D01*
X14124286Y-13557857D01*
X14138571Y-13615000D01*
X14138571Y-13686429D01*
X14124286Y-13743571D01*
X14110000Y-13772143D01*
X14095714Y-13786429D01*
X14067143Y-13800714D01*
X14038571Y-13800714D01*
X14010000Y-13786429D01*
X13995714Y-13772143D01*
X13981428Y-13743571D01*
X13967143Y-13686429D01*
X13967143Y-13615000D01*
X13981428Y-13557857D01*
X13995714Y-13529286D01*
X14010000Y-13515000D01*
X14038571Y-13500714D01*
X14267143Y-13800714D02*
X14267143Y-13600714D01*
X14267143Y-13629286D02*
X14281428Y-13615000D01*
X14310000Y-13600714D01*
X14352857Y-13600714D01*
X14381428Y-13615000D01*
X14395714Y-13643571D01*
X14395714Y-13800714D01*
X14395714Y-13643571D02*
X14410000Y-13615000D01*
X14438571Y-13600714D01*
X14481428Y-13600714D01*
X14510000Y-13615000D01*
X14524286Y-13643571D01*
X14524286Y-13800714D01*
X14667143Y-13800714D02*
X14667143Y-13600714D01*
X14667143Y-13629286D02*
X14681428Y-13615000D01*
X14710000Y-13600714D01*
X14752857Y-13600714D01*
X14781428Y-13615000D01*
X14795714Y-13643571D01*
X14795714Y-13800714D01*
X14795714Y-13643571D02*
X14810000Y-13615000D01*
X14838571Y-13600714D01*
X14881428Y-13600714D01*
X14910000Y-13615000D01*
X14924286Y-13643571D01*
X14924286Y-13800714D01*
X15510000Y-13486429D02*
X15252857Y-13872143D01*
X15895714Y-13500714D02*
X15924286Y-13500714D01*
X15952857Y-13515000D01*
X15967143Y-13529286D01*
X15981428Y-13557857D01*
X15995714Y-13615000D01*
X15995714Y-13686429D01*
X15981428Y-13743571D01*
X15967143Y-13772143D01*
X15952857Y-13786429D01*
X15924286Y-13800714D01*
X15895714Y-13800714D01*
X15867143Y-13786429D01*
X15852857Y-13772143D01*
X15838571Y-13743571D01*
X15824286Y-13686429D01*
X15824286Y-13615000D01*
X15838571Y-13557857D01*
X15852857Y-13529286D01*
X15867143Y-13515000D01*
X15895714Y-13500714D01*
X16124286Y-13772143D02*
X16138571Y-13786429D01*
X16124286Y-13800714D01*
X16110000Y-13786429D01*
X16124286Y-13772143D01*
X16124286Y-13800714D01*
X16324286Y-13500714D02*
X16352857Y-13500714D01*
X16381428Y-13515000D01*
X16395714Y-13529286D01*
X16410000Y-13557857D01*
X16424286Y-13615000D01*
X16424286Y-13686429D01*
X16410000Y-13743571D01*
X16395714Y-13772143D01*
X16381428Y-13786429D01*
X16352857Y-13800714D01*
X16324286Y-13800714D01*
X16295714Y-13786429D01*
X16281428Y-13772143D01*
X16267143Y-13743571D01*
X16252857Y-13686429D01*
X16252857Y-13615000D01*
X16267143Y-13557857D01*
X16281428Y-13529286D01*
X16295714Y-13515000D01*
X16324286Y-13500714D01*
X16710000Y-13800714D02*
X16538571Y-13800714D01*
X16624286Y-13800714D02*
X16624286Y-13500714D01*
X16595714Y-13543571D01*
X16567143Y-13572143D01*
X16538571Y-13586429D01*
X16981428Y-13500714D02*
X16838571Y-13500714D01*
X16824286Y-13643571D01*
X16838571Y-13629286D01*
X16867143Y-13615000D01*
X16938571Y-13615000D01*
X16967143Y-13629286D01*
X16981428Y-13643571D01*
X16995714Y-13672143D01*
X16995714Y-13743571D01*
X16981428Y-13772143D01*
X16967143Y-13786429D01*
X16938571Y-13800714D01*
X16867143Y-13800714D01*
X16838571Y-13786429D01*
X16824286Y-13772143D01*
X17095714Y-13500714D02*
X17295714Y-13500714D01*
X17167143Y-13800714D01*
X17395714Y-13500714D02*
X17395714Y-13557857D01*
X17510000Y-13500714D02*
X17510000Y-13557857D01*
X17952857Y-13915000D02*
X17938571Y-13900714D01*
X17910000Y-13857857D01*
X17895714Y-13829286D01*
X17881428Y-13786429D01*
X17867143Y-13715000D01*
X17867143Y-13657857D01*
X17881428Y-13586429D01*
X17895714Y-13543571D01*
X17910000Y-13515000D01*
X17938571Y-13472143D01*
X17952857Y-13457857D01*
X18224286Y-13800714D02*
X18052857Y-13800714D01*
X18138571Y-13800714D02*
X18138571Y-13500714D01*
X18110000Y-13543571D01*
X18081428Y-13572143D01*
X18052857Y-13586429D01*
X18324286Y-13500714D02*
X18524286Y-13500714D01*
X18395714Y-13800714D01*
X18781428Y-13500714D02*
X18638571Y-13500714D01*
X18624286Y-13643571D01*
X18638571Y-13629286D01*
X18667143Y-13615000D01*
X18738571Y-13615000D01*
X18767143Y-13629286D01*
X18781428Y-13643571D01*
X18795714Y-13672143D01*
X18795714Y-13743571D01*
X18781428Y-13772143D01*
X18767143Y-13786429D01*
X18738571Y-13800714D01*
X18667143Y-13800714D01*
X18638571Y-13786429D01*
X18624286Y-13772143D01*
X19152857Y-13800714D02*
X19152857Y-13500714D01*
X19281428Y-13800714D02*
X19281428Y-13643571D01*
X19267143Y-13615000D01*
X19238571Y-13600714D01*
X19195714Y-13600714D01*
X19167143Y-13615000D01*
X19152857Y-13629286D01*
X19467143Y-13800714D02*
X19438571Y-13786429D01*
X19424286Y-13772143D01*
X19410000Y-13743571D01*
X19410000Y-13657857D01*
X19424286Y-13629286D01*
X19438571Y-13615000D01*
X19467143Y-13600714D01*
X19510000Y-13600714D01*
X19538571Y-13615000D01*
X19552857Y-13629286D01*
X19567143Y-13657857D01*
X19567143Y-13743571D01*
X19552857Y-13772143D01*
X19538571Y-13786429D01*
X19510000Y-13800714D01*
X19467143Y-13800714D01*
X19738571Y-13800714D02*
X19710000Y-13786429D01*
X19695714Y-13757857D01*
X19695714Y-13500714D01*
X19967143Y-13786429D02*
X19938571Y-13800714D01*
X19881428Y-13800714D01*
X19852857Y-13786429D01*
X19838571Y-13757857D01*
X19838571Y-13643571D01*
X19852857Y-13615000D01*
X19881428Y-13600714D01*
X19938571Y-13600714D01*
X19967143Y-13615000D01*
X19981428Y-13643571D01*
X19981428Y-13672143D01*
X19838571Y-13700714D01*
X20095714Y-13786429D02*
X20124286Y-13800714D01*
X20181428Y-13800714D01*
X20210000Y-13786429D01*
X20224286Y-13757857D01*
X20224286Y-13743571D01*
X20210000Y-13715000D01*
X20181428Y-13700714D01*
X20138571Y-13700714D01*
X20110000Y-13686429D01*
X20095714Y-13657857D01*
X20095714Y-13643571D01*
X20110000Y-13615000D01*
X20138571Y-13600714D01*
X20181428Y-13600714D01*
X20210000Y-13615000D01*
X20324286Y-13915000D02*
X20338571Y-13900714D01*
X20367143Y-13857857D01*
X20381428Y-13829286D01*
X20395714Y-13786429D01*
X20410000Y-13715000D01*
X20410000Y-13657857D01*
X20395714Y-13586429D01*
X20381428Y-13543571D01*
X20367143Y-13515000D01*
X20338571Y-13472143D01*
X20324286Y-13457857D01*
X12695000Y-14061000D02*
G75*
G03*
X12695000Y-14061000I-25000J0D01*
G01*
X13038571Y-13896714D02*
X13067143Y-13896714D01*
X13095714Y-13911000D01*
X13110000Y-13925286D01*
X13124286Y-13953857D01*
X13138571Y-14011000D01*
X13138571Y-14082429D01*
X13124286Y-14139571D01*
X13110000Y-14168143D01*
X13095714Y-14182429D01*
X13067143Y-14196714D01*
X13038571Y-14196714D01*
X13010000Y-14182429D01*
X12995714Y-14168143D01*
X12981428Y-14139571D01*
X12967143Y-14082429D01*
X12967143Y-14011000D01*
X12981428Y-13953857D01*
X12995714Y-13925286D01*
X13010000Y-13911000D01*
X13038571Y-13896714D01*
X13267143Y-14168143D02*
X13281428Y-14182429D01*
X13267143Y-14196714D01*
X13252857Y-14182429D01*
X13267143Y-14168143D01*
X13267143Y-14196714D01*
X13552857Y-13896714D02*
X13410000Y-13896714D01*
X13395714Y-14039571D01*
X13410000Y-14025286D01*
X13438571Y-14011000D01*
X13510000Y-14011000D01*
X13538571Y-14025286D01*
X13552857Y-14039571D01*
X13567143Y-14068143D01*
X13567143Y-14139571D01*
X13552857Y-14168143D01*
X13538571Y-14182429D01*
X13510000Y-14196714D01*
X13438571Y-14196714D01*
X13410000Y-14182429D01*
X13395714Y-14168143D01*
X13752857Y-13896714D02*
X13781428Y-13896714D01*
X13810000Y-13911000D01*
X13824286Y-13925286D01*
X13838571Y-13953857D01*
X13852857Y-14011000D01*
X13852857Y-14082429D01*
X13838571Y-14139571D01*
X13824286Y-14168143D01*
X13810000Y-14182429D01*
X13781428Y-14196714D01*
X13752857Y-14196714D01*
X13724286Y-14182429D01*
X13710000Y-14168143D01*
X13695714Y-14139571D01*
X13681428Y-14082429D01*
X13681428Y-14011000D01*
X13695714Y-13953857D01*
X13710000Y-13925286D01*
X13724286Y-13911000D01*
X13752857Y-13896714D01*
X14038571Y-13896714D02*
X14067143Y-13896714D01*
X14095714Y-13911000D01*
X14110000Y-13925286D01*
X14124286Y-13953857D01*
X14138571Y-14011000D01*
X14138571Y-14082429D01*
X14124286Y-14139571D01*
X14110000Y-14168143D01*
X14095714Y-14182429D01*
X14067143Y-14196714D01*
X14038571Y-14196714D01*
X14010000Y-14182429D01*
X13995714Y-14168143D01*
X13981428Y-14139571D01*
X13967143Y-14082429D01*
X13967143Y-14011000D01*
X13981428Y-13953857D01*
X13995714Y-13925286D01*
X14010000Y-13911000D01*
X14038571Y-13896714D01*
X14267143Y-14196714D02*
X14267143Y-13996714D01*
X14267143Y-14025286D02*
X14281428Y-14011000D01*
X14310000Y-13996714D01*
X14352857Y-13996714D01*
X14381428Y-14011000D01*
X14395714Y-14039571D01*
X14395714Y-14196714D01*
X14395714Y-14039571D02*
X14410000Y-14011000D01*
X14438571Y-13996714D01*
X14481428Y-13996714D01*
X14510000Y-14011000D01*
X14524286Y-14039571D01*
X14524286Y-14196714D01*
X14667143Y-14196714D02*
X14667143Y-13996714D01*
X14667143Y-14025286D02*
X14681428Y-14011000D01*
X14710000Y-13996714D01*
X14752857Y-13996714D01*
X14781428Y-14011000D01*
X14795714Y-14039571D01*
X14795714Y-14196714D01*
X14795714Y-14039571D02*
X14810000Y-14011000D01*
X14838571Y-13996714D01*
X14881428Y-13996714D01*
X14910000Y-14011000D01*
X14924286Y-14039571D01*
X14924286Y-14196714D01*
X15510000Y-13882429D02*
X15252857Y-14268143D01*
X15895714Y-13896714D02*
X15924286Y-13896714D01*
X15952857Y-13911000D01*
X15967143Y-13925286D01*
X15981428Y-13953857D01*
X15995714Y-14011000D01*
X15995714Y-14082429D01*
X15981428Y-14139571D01*
X15967143Y-14168143D01*
X15952857Y-14182429D01*
X15924286Y-14196714D01*
X15895714Y-14196714D01*
X15867143Y-14182429D01*
X15852857Y-14168143D01*
X15838571Y-14139571D01*
X15824286Y-14082429D01*
X15824286Y-14011000D01*
X15838571Y-13953857D01*
X15852857Y-13925286D01*
X15867143Y-13911000D01*
X15895714Y-13896714D01*
X16124286Y-14168143D02*
X16138571Y-14182429D01*
X16124286Y-14196714D01*
X16110000Y-14182429D01*
X16124286Y-14168143D01*
X16124286Y-14196714D01*
X16324286Y-13896714D02*
X16352857Y-13896714D01*
X16381428Y-13911000D01*
X16395714Y-13925286D01*
X16410000Y-13953857D01*
X16424286Y-14011000D01*
X16424286Y-14082429D01*
X16410000Y-14139571D01*
X16395714Y-14168143D01*
X16381428Y-14182429D01*
X16352857Y-14196714D01*
X16324286Y-14196714D01*
X16295714Y-14182429D01*
X16281428Y-14168143D01*
X16267143Y-14139571D01*
X16252857Y-14082429D01*
X16252857Y-14011000D01*
X16267143Y-13953857D01*
X16281428Y-13925286D01*
X16295714Y-13911000D01*
X16324286Y-13896714D01*
X16710000Y-14196714D02*
X16538571Y-14196714D01*
X16624286Y-14196714D02*
X16624286Y-13896714D01*
X16595714Y-13939571D01*
X16567143Y-13968143D01*
X16538571Y-13982429D01*
X16852857Y-14196714D02*
X16910000Y-14196714D01*
X16938571Y-14182429D01*
X16952857Y-14168143D01*
X16981428Y-14125286D01*
X16995714Y-14068143D01*
X16995714Y-13953857D01*
X16981428Y-13925286D01*
X16967143Y-13911000D01*
X16938571Y-13896714D01*
X16881428Y-13896714D01*
X16852857Y-13911000D01*
X16838571Y-13925286D01*
X16824286Y-13953857D01*
X16824286Y-14025286D01*
X16838571Y-14053857D01*
X16852857Y-14068143D01*
X16881428Y-14082429D01*
X16938571Y-14082429D01*
X16967143Y-14068143D01*
X16981428Y-14053857D01*
X16995714Y-14025286D01*
X17095714Y-13896714D02*
X17295714Y-13896714D01*
X17167143Y-14196714D01*
X17395714Y-13896714D02*
X17395714Y-13953857D01*
X17510000Y-13896714D02*
X17510000Y-13953857D01*
X17952857Y-14311000D02*
X17938571Y-14296714D01*
X17910000Y-14253857D01*
X17895714Y-14225286D01*
X17881428Y-14182429D01*
X17867143Y-14111000D01*
X17867143Y-14053857D01*
X17881428Y-13982429D01*
X17895714Y-13939571D01*
X17910000Y-13911000D01*
X17938571Y-13868143D01*
X17952857Y-13853857D01*
X18052857Y-13925286D02*
X18067143Y-13911000D01*
X18095714Y-13896714D01*
X18167143Y-13896714D01*
X18195714Y-13911000D01*
X18210000Y-13925286D01*
X18224286Y-13953857D01*
X18224286Y-13982429D01*
X18210000Y-14025286D01*
X18038571Y-14196714D01*
X18224286Y-14196714D01*
X18581428Y-14196714D02*
X18581428Y-13896714D01*
X18710000Y-14196714D02*
X18710000Y-14039571D01*
X18695714Y-14011000D01*
X18667143Y-13996714D01*
X18624286Y-13996714D01*
X18595714Y-14011000D01*
X18581428Y-14025286D01*
X18895714Y-14196714D02*
X18867143Y-14182429D01*
X18852857Y-14168143D01*
X18838571Y-14139571D01*
X18838571Y-14053857D01*
X18852857Y-14025286D01*
X18867143Y-14011000D01*
X18895714Y-13996714D01*
X18938571Y-13996714D01*
X18967143Y-14011000D01*
X18981428Y-14025286D01*
X18995714Y-14053857D01*
X18995714Y-14139571D01*
X18981428Y-14168143D01*
X18967143Y-14182429D01*
X18938571Y-14196714D01*
X18895714Y-14196714D01*
X19167143Y-14196714D02*
X19138571Y-14182429D01*
X19124286Y-14153857D01*
X19124286Y-13896714D01*
X19395714Y-14182429D02*
X19367143Y-14196714D01*
X19310000Y-14196714D01*
X19281428Y-14182429D01*
X19267143Y-14153857D01*
X19267143Y-14039571D01*
X19281428Y-14011000D01*
X19310000Y-13996714D01*
X19367143Y-13996714D01*
X19395714Y-14011000D01*
X19410000Y-14039571D01*
X19410000Y-14068143D01*
X19267143Y-14096714D01*
X19524286Y-14182429D02*
X19552857Y-14196714D01*
X19610000Y-14196714D01*
X19638571Y-14182429D01*
X19652857Y-14153857D01*
X19652857Y-14139571D01*
X19638571Y-14111000D01*
X19610000Y-14096714D01*
X19567143Y-14096714D01*
X19538571Y-14082429D01*
X19524286Y-14053857D01*
X19524286Y-14039571D01*
X19538571Y-14011000D01*
X19567143Y-13996714D01*
X19610000Y-13996714D01*
X19638571Y-14011000D01*
X19752857Y-14311000D02*
X19767143Y-14296714D01*
X19795714Y-14253857D01*
X19810000Y-14225286D01*
X19824286Y-14182429D01*
X19838571Y-14111000D01*
X19838571Y-14053857D01*
X19824286Y-13982429D01*
X19810000Y-13939571D01*
X19795714Y-13911000D01*
X19767143Y-13868143D01*
X19752857Y-13853857D01*
X12655000Y-14417000D02*
X12655000Y-14497000D01*
X12615000Y-14457000D02*
X12695000Y-14457000D01*
X13038571Y-14292714D02*
X13067143Y-14292714D01*
X13095714Y-14307000D01*
X13110000Y-14321286D01*
X13124286Y-14349857D01*
X13138571Y-14407000D01*
X13138571Y-14478429D01*
X13124286Y-14535571D01*
X13110000Y-14564143D01*
X13095714Y-14578429D01*
X13067143Y-14592714D01*
X13038571Y-14592714D01*
X13010000Y-14578429D01*
X12995714Y-14564143D01*
X12981428Y-14535571D01*
X12967143Y-14478429D01*
X12967143Y-14407000D01*
X12981428Y-14349857D01*
X12995714Y-14321286D01*
X13010000Y-14307000D01*
X13038571Y-14292714D01*
X13267143Y-14564143D02*
X13281428Y-14578429D01*
X13267143Y-14592714D01*
X13252857Y-14578429D01*
X13267143Y-14564143D01*
X13267143Y-14592714D01*
X13452857Y-14421286D02*
X13424286Y-14407000D01*
X13410000Y-14392714D01*
X13395714Y-14364143D01*
X13395714Y-14349857D01*
X13410000Y-14321286D01*
X13424286Y-14307000D01*
X13452857Y-14292714D01*
X13510000Y-14292714D01*
X13538571Y-14307000D01*
X13552857Y-14321286D01*
X13567143Y-14349857D01*
X13567143Y-14364143D01*
X13552857Y-14392714D01*
X13538571Y-14407000D01*
X13510000Y-14421286D01*
X13452857Y-14421286D01*
X13424286Y-14435571D01*
X13410000Y-14449857D01*
X13395714Y-14478429D01*
X13395714Y-14535571D01*
X13410000Y-14564143D01*
X13424286Y-14578429D01*
X13452857Y-14592714D01*
X13510000Y-14592714D01*
X13538571Y-14578429D01*
X13552857Y-14564143D01*
X13567143Y-14535571D01*
X13567143Y-14478429D01*
X13552857Y-14449857D01*
X13538571Y-14435571D01*
X13510000Y-14421286D01*
X13752857Y-14292714D02*
X13781428Y-14292714D01*
X13810000Y-14307000D01*
X13824286Y-14321286D01*
X13838571Y-14349857D01*
X13852857Y-14407000D01*
X13852857Y-14478429D01*
X13838571Y-14535571D01*
X13824286Y-14564143D01*
X13810000Y-14578429D01*
X13781428Y-14592714D01*
X13752857Y-14592714D01*
X13724286Y-14578429D01*
X13710000Y-14564143D01*
X13695714Y-14535571D01*
X13681428Y-14478429D01*
X13681428Y-14407000D01*
X13695714Y-14349857D01*
X13710000Y-14321286D01*
X13724286Y-14307000D01*
X13752857Y-14292714D01*
X14038571Y-14292714D02*
X14067143Y-14292714D01*
X14095714Y-14307000D01*
X14110000Y-14321286D01*
X14124286Y-14349857D01*
X14138571Y-14407000D01*
X14138571Y-14478429D01*
X14124286Y-14535571D01*
X14110000Y-14564143D01*
X14095714Y-14578429D01*
X14067143Y-14592714D01*
X14038571Y-14592714D01*
X14010000Y-14578429D01*
X13995714Y-14564143D01*
X13981428Y-14535571D01*
X13967143Y-14478429D01*
X13967143Y-14407000D01*
X13981428Y-14349857D01*
X13995714Y-14321286D01*
X14010000Y-14307000D01*
X14038571Y-14292714D01*
X14267143Y-14592714D02*
X14267143Y-14392714D01*
X14267143Y-14421286D02*
X14281428Y-14407000D01*
X14310000Y-14392714D01*
X14352857Y-14392714D01*
X14381428Y-14407000D01*
X14395714Y-14435571D01*
X14395714Y-14592714D01*
X14395714Y-14435571D02*
X14410000Y-14407000D01*
X14438571Y-14392714D01*
X14481428Y-14392714D01*
X14510000Y-14407000D01*
X14524286Y-14435571D01*
X14524286Y-14592714D01*
X14667143Y-14592714D02*
X14667143Y-14392714D01*
X14667143Y-14421286D02*
X14681428Y-14407000D01*
X14710000Y-14392714D01*
X14752857Y-14392714D01*
X14781428Y-14407000D01*
X14795714Y-14435571D01*
X14795714Y-14592714D01*
X14795714Y-14435571D02*
X14810000Y-14407000D01*
X14838571Y-14392714D01*
X14881428Y-14392714D01*
X14910000Y-14407000D01*
X14924286Y-14435571D01*
X14924286Y-14592714D01*
X15510000Y-14278429D02*
X15252857Y-14664143D01*
X15895714Y-14292714D02*
X15924286Y-14292714D01*
X15952857Y-14307000D01*
X15967143Y-14321286D01*
X15981428Y-14349857D01*
X15995714Y-14407000D01*
X15995714Y-14478429D01*
X15981428Y-14535571D01*
X15967143Y-14564143D01*
X15952857Y-14578429D01*
X15924286Y-14592714D01*
X15895714Y-14592714D01*
X15867143Y-14578429D01*
X15852857Y-14564143D01*
X15838571Y-14535571D01*
X15824286Y-14478429D01*
X15824286Y-14407000D01*
X15838571Y-14349857D01*
X15852857Y-14321286D01*
X15867143Y-14307000D01*
X15895714Y-14292714D01*
X16124286Y-14564143D02*
X16138571Y-14578429D01*
X16124286Y-14592714D01*
X16110000Y-14578429D01*
X16124286Y-14564143D01*
X16124286Y-14592714D01*
X16324286Y-14292714D02*
X16352857Y-14292714D01*
X16381428Y-14307000D01*
X16395714Y-14321286D01*
X16410000Y-14349857D01*
X16424286Y-14407000D01*
X16424286Y-14478429D01*
X16410000Y-14535571D01*
X16395714Y-14564143D01*
X16381428Y-14578429D01*
X16352857Y-14592714D01*
X16324286Y-14592714D01*
X16295714Y-14578429D01*
X16281428Y-14564143D01*
X16267143Y-14535571D01*
X16252857Y-14478429D01*
X16252857Y-14407000D01*
X16267143Y-14349857D01*
X16281428Y-14321286D01*
X16295714Y-14307000D01*
X16324286Y-14292714D01*
X16524286Y-14292714D02*
X16710000Y-14292714D01*
X16610000Y-14407000D01*
X16652857Y-14407000D01*
X16681428Y-14421286D01*
X16695714Y-14435571D01*
X16710000Y-14464143D01*
X16710000Y-14535571D01*
X16695714Y-14564143D01*
X16681428Y-14578429D01*
X16652857Y-14592714D01*
X16567143Y-14592714D01*
X16538571Y-14578429D01*
X16524286Y-14564143D01*
X16995714Y-14592714D02*
X16824286Y-14592714D01*
X16910000Y-14592714D02*
X16910000Y-14292714D01*
X16881428Y-14335571D01*
X16852857Y-14364143D01*
X16824286Y-14378429D01*
X17267143Y-14292714D02*
X17124286Y-14292714D01*
X17110000Y-14435571D01*
X17124286Y-14421286D01*
X17152857Y-14407000D01*
X17224286Y-14407000D01*
X17252857Y-14421286D01*
X17267143Y-14435571D01*
X17281428Y-14464143D01*
X17281428Y-14535571D01*
X17267143Y-14564143D01*
X17252857Y-14578429D01*
X17224286Y-14592714D01*
X17152857Y-14592714D01*
X17124286Y-14578429D01*
X17110000Y-14564143D01*
X17395714Y-14292714D02*
X17395714Y-14349857D01*
X17510000Y-14292714D02*
X17510000Y-14349857D01*
X17952857Y-14707000D02*
X17938571Y-14692714D01*
X17910000Y-14649857D01*
X17895714Y-14621286D01*
X17881428Y-14578429D01*
X17867143Y-14507000D01*
X17867143Y-14449857D01*
X17881428Y-14378429D01*
X17895714Y-14335571D01*
X17910000Y-14307000D01*
X17938571Y-14264143D01*
X17952857Y-14249857D01*
X18195714Y-14392714D02*
X18195714Y-14592714D01*
X18124286Y-14278429D02*
X18052857Y-14492714D01*
X18238571Y-14492714D01*
X18581428Y-14592714D02*
X18581428Y-14292714D01*
X18710000Y-14592714D02*
X18710000Y-14435571D01*
X18695714Y-14407000D01*
X18667143Y-14392714D01*
X18624286Y-14392714D01*
X18595714Y-14407000D01*
X18581428Y-14421286D01*
X18895714Y-14592714D02*
X18867143Y-14578429D01*
X18852857Y-14564143D01*
X18838571Y-14535571D01*
X18838571Y-14449857D01*
X18852857Y-14421286D01*
X18867143Y-14407000D01*
X18895714Y-14392714D01*
X18938571Y-14392714D01*
X18967143Y-14407000D01*
X18981428Y-14421286D01*
X18995714Y-14449857D01*
X18995714Y-14535571D01*
X18981428Y-14564143D01*
X18967143Y-14578429D01*
X18938571Y-14592714D01*
X18895714Y-14592714D01*
X19167143Y-14592714D02*
X19138571Y-14578429D01*
X19124286Y-14549857D01*
X19124286Y-14292714D01*
X19395714Y-14578429D02*
X19367143Y-14592714D01*
X19310000Y-14592714D01*
X19281428Y-14578429D01*
X19267143Y-14549857D01*
X19267143Y-14435571D01*
X19281428Y-14407000D01*
X19310000Y-14392714D01*
X19367143Y-14392714D01*
X19395714Y-14407000D01*
X19410000Y-14435571D01*
X19410000Y-14464143D01*
X19267143Y-14492714D01*
X19524286Y-14578429D02*
X19552857Y-14592714D01*
X19610000Y-14592714D01*
X19638571Y-14578429D01*
X19652857Y-14549857D01*
X19652857Y-14535571D01*
X19638571Y-14507000D01*
X19610000Y-14492714D01*
X19567143Y-14492714D01*
X19538571Y-14478429D01*
X19524286Y-14449857D01*
X19524286Y-14435571D01*
X19538571Y-14407000D01*
X19567143Y-14392714D01*
X19610000Y-14392714D01*
X19638571Y-14407000D01*
X19752857Y-14707000D02*
X19767143Y-14692714D01*
X19795714Y-14649857D01*
X19810000Y-14621286D01*
X19824286Y-14578429D01*
X19838571Y-14507000D01*
X19838571Y-14449857D01*
X19824286Y-14378429D01*
X19810000Y-14335571D01*
X19795714Y-14307000D01*
X19767143Y-14264143D01*
X19752857Y-14249857D01*
X12680356Y-14888356D02*
X12680356Y-14817644D01*
X12609644Y-14817644D01*
X12609644Y-14888356D01*
X12680356Y-14888356D01*
X13138571Y-14988714D02*
X12967143Y-14988714D01*
X13052857Y-14988714D02*
X13052857Y-14688714D01*
X13024286Y-14731571D01*
X12995714Y-14760143D01*
X12967143Y-14774429D01*
X13267143Y-14960143D02*
X13281428Y-14974429D01*
X13267143Y-14988714D01*
X13252857Y-14974429D01*
X13267143Y-14960143D01*
X13267143Y-14988714D01*
X13467143Y-14688714D02*
X13495714Y-14688714D01*
X13524286Y-14703000D01*
X13538571Y-14717286D01*
X13552857Y-14745857D01*
X13567143Y-14803000D01*
X13567143Y-14874429D01*
X13552857Y-14931571D01*
X13538571Y-14960143D01*
X13524286Y-14974429D01*
X13495714Y-14988714D01*
X13467143Y-14988714D01*
X13438571Y-14974429D01*
X13424286Y-14960143D01*
X13410000Y-14931571D01*
X13395714Y-14874429D01*
X13395714Y-14803000D01*
X13410000Y-14745857D01*
X13424286Y-14717286D01*
X13438571Y-14703000D01*
X13467143Y-14688714D01*
X13752857Y-14688714D02*
X13781428Y-14688714D01*
X13810000Y-14703000D01*
X13824286Y-14717286D01*
X13838571Y-14745857D01*
X13852857Y-14803000D01*
X13852857Y-14874429D01*
X13838571Y-14931571D01*
X13824286Y-14960143D01*
X13810000Y-14974429D01*
X13781428Y-14988714D01*
X13752857Y-14988714D01*
X13724286Y-14974429D01*
X13710000Y-14960143D01*
X13695714Y-14931571D01*
X13681428Y-14874429D01*
X13681428Y-14803000D01*
X13695714Y-14745857D01*
X13710000Y-14717286D01*
X13724286Y-14703000D01*
X13752857Y-14688714D01*
X14038571Y-14688714D02*
X14067143Y-14688714D01*
X14095714Y-14703000D01*
X14110000Y-14717286D01*
X14124286Y-14745857D01*
X14138571Y-14803000D01*
X14138571Y-14874429D01*
X14124286Y-14931571D01*
X14110000Y-14960143D01*
X14095714Y-14974429D01*
X14067143Y-14988714D01*
X14038571Y-14988714D01*
X14010000Y-14974429D01*
X13995714Y-14960143D01*
X13981428Y-14931571D01*
X13967143Y-14874429D01*
X13967143Y-14803000D01*
X13981428Y-14745857D01*
X13995714Y-14717286D01*
X14010000Y-14703000D01*
X14038571Y-14688714D01*
X14267143Y-14988714D02*
X14267143Y-14788714D01*
X14267143Y-14817286D02*
X14281428Y-14803000D01*
X14310000Y-14788714D01*
X14352857Y-14788714D01*
X14381428Y-14803000D01*
X14395714Y-14831571D01*
X14395714Y-14988714D01*
X14395714Y-14831571D02*
X14410000Y-14803000D01*
X14438571Y-14788714D01*
X14481428Y-14788714D01*
X14510000Y-14803000D01*
X14524286Y-14831571D01*
X14524286Y-14988714D01*
X14667143Y-14988714D02*
X14667143Y-14788714D01*
X14667143Y-14817286D02*
X14681428Y-14803000D01*
X14710000Y-14788714D01*
X14752857Y-14788714D01*
X14781428Y-14803000D01*
X14795714Y-14831571D01*
X14795714Y-14988714D01*
X14795714Y-14831571D02*
X14810000Y-14803000D01*
X14838571Y-14788714D01*
X14881428Y-14788714D01*
X14910000Y-14803000D01*
X14924286Y-14831571D01*
X14924286Y-14988714D01*
X15510000Y-14674429D02*
X15252857Y-15060143D01*
X15895714Y-14688714D02*
X15924286Y-14688714D01*
X15952857Y-14703000D01*
X15967143Y-14717286D01*
X15981428Y-14745857D01*
X15995714Y-14803000D01*
X15995714Y-14874429D01*
X15981428Y-14931571D01*
X15967143Y-14960143D01*
X15952857Y-14974429D01*
X15924286Y-14988714D01*
X15895714Y-14988714D01*
X15867143Y-14974429D01*
X15852857Y-14960143D01*
X15838571Y-14931571D01*
X15824286Y-14874429D01*
X15824286Y-14803000D01*
X15838571Y-14745857D01*
X15852857Y-14717286D01*
X15867143Y-14703000D01*
X15895714Y-14688714D01*
X16124286Y-14960143D02*
X16138571Y-14974429D01*
X16124286Y-14988714D01*
X16110000Y-14974429D01*
X16124286Y-14960143D01*
X16124286Y-14988714D01*
X16324286Y-14688714D02*
X16352857Y-14688714D01*
X16381428Y-14703000D01*
X16395714Y-14717286D01*
X16410000Y-14745857D01*
X16424286Y-14803000D01*
X16424286Y-14874429D01*
X16410000Y-14931571D01*
X16395714Y-14960143D01*
X16381428Y-14974429D01*
X16352857Y-14988714D01*
X16324286Y-14988714D01*
X16295714Y-14974429D01*
X16281428Y-14960143D01*
X16267143Y-14931571D01*
X16252857Y-14874429D01*
X16252857Y-14803000D01*
X16267143Y-14745857D01*
X16281428Y-14717286D01*
X16295714Y-14703000D01*
X16324286Y-14688714D01*
X16524286Y-14688714D02*
X16710000Y-14688714D01*
X16610000Y-14803000D01*
X16652857Y-14803000D01*
X16681428Y-14817286D01*
X16695714Y-14831571D01*
X16710000Y-14860143D01*
X16710000Y-14931571D01*
X16695714Y-14960143D01*
X16681428Y-14974429D01*
X16652857Y-14988714D01*
X16567143Y-14988714D01*
X16538571Y-14974429D01*
X16524286Y-14960143D01*
X16852857Y-14988714D02*
X16910000Y-14988714D01*
X16938571Y-14974429D01*
X16952857Y-14960143D01*
X16981428Y-14917286D01*
X16995714Y-14860143D01*
X16995714Y-14745857D01*
X16981428Y-14717286D01*
X16967143Y-14703000D01*
X16938571Y-14688714D01*
X16881428Y-14688714D01*
X16852857Y-14703000D01*
X16838571Y-14717286D01*
X16824286Y-14745857D01*
X16824286Y-14817286D01*
X16838571Y-14845857D01*
X16852857Y-14860143D01*
X16881428Y-14874429D01*
X16938571Y-14874429D01*
X16967143Y-14860143D01*
X16981428Y-14845857D01*
X16995714Y-14817286D01*
X17252857Y-14788714D02*
X17252857Y-14988714D01*
X17181428Y-14674429D02*
X17110000Y-14888714D01*
X17295714Y-14888714D01*
X17395714Y-14688714D02*
X17395714Y-14745857D01*
X17510000Y-14688714D02*
X17510000Y-14745857D01*
X17952857Y-15103000D02*
X17938571Y-15088714D01*
X17910000Y-15045857D01*
X17895714Y-15017286D01*
X17881428Y-14974429D01*
X17867143Y-14903000D01*
X17867143Y-14845857D01*
X17881428Y-14774429D01*
X17895714Y-14731571D01*
X17910000Y-14703000D01*
X17938571Y-14660143D01*
X17952857Y-14645857D01*
X18038571Y-14688714D02*
X18224286Y-14688714D01*
X18124286Y-14803000D01*
X18167143Y-14803000D01*
X18195714Y-14817286D01*
X18210000Y-14831571D01*
X18224286Y-14860143D01*
X18224286Y-14931571D01*
X18210000Y-14960143D01*
X18195714Y-14974429D01*
X18167143Y-14988714D01*
X18081428Y-14988714D01*
X18052857Y-14974429D01*
X18038571Y-14960143D01*
X18324286Y-14688714D02*
X18524286Y-14688714D01*
X18395714Y-14988714D01*
X18867143Y-14988714D02*
X18867143Y-14688714D01*
X18995714Y-14988714D02*
X18995714Y-14831571D01*
X18981428Y-14803000D01*
X18952857Y-14788714D01*
X18910000Y-14788714D01*
X18881428Y-14803000D01*
X18867143Y-14817286D01*
X19181428Y-14988714D02*
X19152857Y-14974429D01*
X19138571Y-14960143D01*
X19124286Y-14931571D01*
X19124286Y-14845857D01*
X19138571Y-14817286D01*
X19152857Y-14803000D01*
X19181428Y-14788714D01*
X19224286Y-14788714D01*
X19252857Y-14803000D01*
X19267143Y-14817286D01*
X19281428Y-14845857D01*
X19281428Y-14931571D01*
X19267143Y-14960143D01*
X19252857Y-14974429D01*
X19224286Y-14988714D01*
X19181428Y-14988714D01*
X19452857Y-14988714D02*
X19424286Y-14974429D01*
X19410000Y-14945857D01*
X19410000Y-14688714D01*
X19681428Y-14974429D02*
X19652857Y-14988714D01*
X19595714Y-14988714D01*
X19567143Y-14974429D01*
X19552857Y-14945857D01*
X19552857Y-14831571D01*
X19567143Y-14803000D01*
X19595714Y-14788714D01*
X19652857Y-14788714D01*
X19681428Y-14803000D01*
X19695714Y-14831571D01*
X19695714Y-14860143D01*
X19552857Y-14888714D01*
X19810000Y-14974429D02*
X19838571Y-14988714D01*
X19895714Y-14988714D01*
X19924286Y-14974429D01*
X19938571Y-14945857D01*
X19938571Y-14931571D01*
X19924286Y-14903000D01*
X19895714Y-14888714D01*
X19852857Y-14888714D01*
X19824286Y-14874429D01*
X19810000Y-14845857D01*
X19810000Y-14831571D01*
X19824286Y-14803000D01*
X19852857Y-14788714D01*
X19895714Y-14788714D01*
X19924286Y-14803000D01*
X20038571Y-15103000D02*
X20052857Y-15088714D01*
X20081428Y-15045857D01*
X20095714Y-15017286D01*
X20110000Y-14974429D01*
X20124286Y-14903000D01*
X20124286Y-14845857D01*
X20110000Y-14774429D01*
X20095714Y-14731571D01*
X20081428Y-14703000D01*
X20052857Y-14660143D01*
X20038571Y-14645857D01*
X12640000Y-15304000D02*
X12695000Y-15249000D01*
X12640000Y-15194000D01*
X12585000Y-15249000D01*
X12640000Y-15304000D01*
X13138571Y-15384714D02*
X12967143Y-15384714D01*
X13052857Y-15384714D02*
X13052857Y-15084714D01*
X13024286Y-15127571D01*
X12995714Y-15156143D01*
X12967143Y-15170429D01*
X13267143Y-15356143D02*
X13281428Y-15370429D01*
X13267143Y-15384714D01*
X13252857Y-15370429D01*
X13267143Y-15356143D01*
X13267143Y-15384714D01*
X13567143Y-15384714D02*
X13395714Y-15384714D01*
X13481428Y-15384714D02*
X13481428Y-15084714D01*
X13452857Y-15127571D01*
X13424286Y-15156143D01*
X13395714Y-15170429D01*
X13752857Y-15084714D02*
X13781428Y-15084714D01*
X13810000Y-15099000D01*
X13824286Y-15113286D01*
X13838571Y-15141857D01*
X13852857Y-15199000D01*
X13852857Y-15270429D01*
X13838571Y-15327571D01*
X13824286Y-15356143D01*
X13810000Y-15370429D01*
X13781428Y-15384714D01*
X13752857Y-15384714D01*
X13724286Y-15370429D01*
X13710000Y-15356143D01*
X13695714Y-15327571D01*
X13681428Y-15270429D01*
X13681428Y-15199000D01*
X13695714Y-15141857D01*
X13710000Y-15113286D01*
X13724286Y-15099000D01*
X13752857Y-15084714D01*
X14038571Y-15084714D02*
X14067143Y-15084714D01*
X14095714Y-15099000D01*
X14110000Y-15113286D01*
X14124286Y-15141857D01*
X14138571Y-15199000D01*
X14138571Y-15270429D01*
X14124286Y-15327571D01*
X14110000Y-15356143D01*
X14095714Y-15370429D01*
X14067143Y-15384714D01*
X14038571Y-15384714D01*
X14010000Y-15370429D01*
X13995714Y-15356143D01*
X13981428Y-15327571D01*
X13967143Y-15270429D01*
X13967143Y-15199000D01*
X13981428Y-15141857D01*
X13995714Y-15113286D01*
X14010000Y-15099000D01*
X14038571Y-15084714D01*
X14267143Y-15384714D02*
X14267143Y-15184714D01*
X14267143Y-15213286D02*
X14281428Y-15199000D01*
X14310000Y-15184714D01*
X14352857Y-15184714D01*
X14381428Y-15199000D01*
X14395714Y-15227571D01*
X14395714Y-15384714D01*
X14395714Y-15227571D02*
X14410000Y-15199000D01*
X14438571Y-15184714D01*
X14481428Y-15184714D01*
X14510000Y-15199000D01*
X14524286Y-15227571D01*
X14524286Y-15384714D01*
X14667143Y-15384714D02*
X14667143Y-15184714D01*
X14667143Y-15213286D02*
X14681428Y-15199000D01*
X14710000Y-15184714D01*
X14752857Y-15184714D01*
X14781428Y-15199000D01*
X14795714Y-15227571D01*
X14795714Y-15384714D01*
X14795714Y-15227571D02*
X14810000Y-15199000D01*
X14838571Y-15184714D01*
X14881428Y-15184714D01*
X14910000Y-15199000D01*
X14924286Y-15227571D01*
X14924286Y-15384714D01*
X15510000Y-15070429D02*
X15252857Y-15456143D01*
X15895714Y-15084714D02*
X15924286Y-15084714D01*
X15952857Y-15099000D01*
X15967143Y-15113286D01*
X15981428Y-15141857D01*
X15995714Y-15199000D01*
X15995714Y-15270429D01*
X15981428Y-15327571D01*
X15967143Y-15356143D01*
X15952857Y-15370429D01*
X15924286Y-15384714D01*
X15895714Y-15384714D01*
X15867143Y-15370429D01*
X15852857Y-15356143D01*
X15838571Y-15327571D01*
X15824286Y-15270429D01*
X15824286Y-15199000D01*
X15838571Y-15141857D01*
X15852857Y-15113286D01*
X15867143Y-15099000D01*
X15895714Y-15084714D01*
X16124286Y-15356143D02*
X16138571Y-15370429D01*
X16124286Y-15384714D01*
X16110000Y-15370429D01*
X16124286Y-15356143D01*
X16124286Y-15384714D01*
X16324286Y-15084714D02*
X16352857Y-15084714D01*
X16381428Y-15099000D01*
X16395714Y-15113286D01*
X16410000Y-15141857D01*
X16424286Y-15199000D01*
X16424286Y-15270429D01*
X16410000Y-15327571D01*
X16395714Y-15356143D01*
X16381428Y-15370429D01*
X16352857Y-15384714D01*
X16324286Y-15384714D01*
X16295714Y-15370429D01*
X16281428Y-15356143D01*
X16267143Y-15327571D01*
X16252857Y-15270429D01*
X16252857Y-15199000D01*
X16267143Y-15141857D01*
X16281428Y-15113286D01*
X16295714Y-15099000D01*
X16324286Y-15084714D01*
X16681428Y-15184714D02*
X16681428Y-15384714D01*
X16610000Y-15070429D02*
X16538571Y-15284714D01*
X16724286Y-15284714D01*
X16810000Y-15084714D02*
X16995714Y-15084714D01*
X16895714Y-15199000D01*
X16938571Y-15199000D01*
X16967143Y-15213286D01*
X16981428Y-15227571D01*
X16995714Y-15256143D01*
X16995714Y-15327571D01*
X16981428Y-15356143D01*
X16967143Y-15370429D01*
X16938571Y-15384714D01*
X16852857Y-15384714D01*
X16824286Y-15370429D01*
X16810000Y-15356143D01*
X17095714Y-15084714D02*
X17281428Y-15084714D01*
X17181428Y-15199000D01*
X17224286Y-15199000D01*
X17252857Y-15213286D01*
X17267143Y-15227571D01*
X17281428Y-15256143D01*
X17281428Y-15327571D01*
X17267143Y-15356143D01*
X17252857Y-15370429D01*
X17224286Y-15384714D01*
X17138571Y-15384714D01*
X17110000Y-15370429D01*
X17095714Y-15356143D01*
X17395714Y-15084714D02*
X17395714Y-15141857D01*
X17510000Y-15084714D02*
X17510000Y-15141857D01*
X17952857Y-15499000D02*
X17938571Y-15484714D01*
X17910000Y-15441857D01*
X17895714Y-15413286D01*
X17881428Y-15370429D01*
X17867143Y-15299000D01*
X17867143Y-15241857D01*
X17881428Y-15170429D01*
X17895714Y-15127571D01*
X17910000Y-15099000D01*
X17938571Y-15056143D01*
X17952857Y-15041857D01*
X18038571Y-15084714D02*
X18224286Y-15084714D01*
X18124286Y-15199000D01*
X18167143Y-15199000D01*
X18195714Y-15213286D01*
X18210000Y-15227571D01*
X18224286Y-15256143D01*
X18224286Y-15327571D01*
X18210000Y-15356143D01*
X18195714Y-15370429D01*
X18167143Y-15384714D01*
X18081428Y-15384714D01*
X18052857Y-15370429D01*
X18038571Y-15356143D01*
X18581428Y-15384714D02*
X18581428Y-15084714D01*
X18710000Y-15384714D02*
X18710000Y-15227571D01*
X18695714Y-15199000D01*
X18667143Y-15184714D01*
X18624286Y-15184714D01*
X18595714Y-15199000D01*
X18581428Y-15213286D01*
X18895714Y-15384714D02*
X18867143Y-15370429D01*
X18852857Y-15356143D01*
X18838571Y-15327571D01*
X18838571Y-15241857D01*
X18852857Y-15213286D01*
X18867143Y-15199000D01*
X18895714Y-15184714D01*
X18938571Y-15184714D01*
X18967143Y-15199000D01*
X18981428Y-15213286D01*
X18995714Y-15241857D01*
X18995714Y-15327571D01*
X18981428Y-15356143D01*
X18967143Y-15370429D01*
X18938571Y-15384714D01*
X18895714Y-15384714D01*
X19167143Y-15384714D02*
X19138571Y-15370429D01*
X19124286Y-15341857D01*
X19124286Y-15084714D01*
X19395714Y-15370429D02*
X19367143Y-15384714D01*
X19310000Y-15384714D01*
X19281428Y-15370429D01*
X19267143Y-15341857D01*
X19267143Y-15227571D01*
X19281428Y-15199000D01*
X19310000Y-15184714D01*
X19367143Y-15184714D01*
X19395714Y-15199000D01*
X19410000Y-15227571D01*
X19410000Y-15256143D01*
X19267143Y-15284714D01*
X19524286Y-15370429D02*
X19552857Y-15384714D01*
X19610000Y-15384714D01*
X19638571Y-15370429D01*
X19652857Y-15341857D01*
X19652857Y-15327571D01*
X19638571Y-15299000D01*
X19610000Y-15284714D01*
X19567143Y-15284714D01*
X19538571Y-15270429D01*
X19524286Y-15241857D01*
X19524286Y-15227571D01*
X19538571Y-15199000D01*
X19567143Y-15184714D01*
X19610000Y-15184714D01*
X19638571Y-15199000D01*
X19752857Y-15499000D02*
X19767143Y-15484714D01*
X19795714Y-15441857D01*
X19810000Y-15413286D01*
X19824286Y-15370429D01*
X19838571Y-15299000D01*
X19838571Y-15241857D01*
X19824286Y-15170429D01*
X19810000Y-15127571D01*
X19795714Y-15099000D01*
X19767143Y-15056143D01*
X19752857Y-15041857D01*
X12543000Y-15569000D02*
X12695000Y-15721000D01*
X12695000Y-15569000D02*
X12543000Y-15721000D01*
X12695000Y-15645000D02*
G75*
G03*
X12695000Y-15645000I-76000J0D01*
G01*
X13138571Y-15780714D02*
X12967143Y-15780714D01*
X13052857Y-15780714D02*
X13052857Y-15480714D01*
X13024286Y-15523571D01*
X12995714Y-15552143D01*
X12967143Y-15566429D01*
X13267143Y-15752143D02*
X13281428Y-15766429D01*
X13267143Y-15780714D01*
X13252857Y-15766429D01*
X13267143Y-15752143D01*
X13267143Y-15780714D01*
X13552857Y-15480714D02*
X13410000Y-15480714D01*
X13395714Y-15623571D01*
X13410000Y-15609286D01*
X13438571Y-15595000D01*
X13510000Y-15595000D01*
X13538571Y-15609286D01*
X13552857Y-15623571D01*
X13567143Y-15652143D01*
X13567143Y-15723571D01*
X13552857Y-15752143D01*
X13538571Y-15766429D01*
X13510000Y-15780714D01*
X13438571Y-15780714D01*
X13410000Y-15766429D01*
X13395714Y-15752143D01*
X13681428Y-15509286D02*
X13695714Y-15495000D01*
X13724286Y-15480714D01*
X13795714Y-15480714D01*
X13824286Y-15495000D01*
X13838571Y-15509286D01*
X13852857Y-15537857D01*
X13852857Y-15566429D01*
X13838571Y-15609286D01*
X13667143Y-15780714D01*
X13852857Y-15780714D01*
X14038571Y-15480714D02*
X14067143Y-15480714D01*
X14095714Y-15495000D01*
X14110000Y-15509286D01*
X14124286Y-15537857D01*
X14138571Y-15595000D01*
X14138571Y-15666429D01*
X14124286Y-15723571D01*
X14110000Y-15752143D01*
X14095714Y-15766429D01*
X14067143Y-15780714D01*
X14038571Y-15780714D01*
X14010000Y-15766429D01*
X13995714Y-15752143D01*
X13981428Y-15723571D01*
X13967143Y-15666429D01*
X13967143Y-15595000D01*
X13981428Y-15537857D01*
X13995714Y-15509286D01*
X14010000Y-15495000D01*
X14038571Y-15480714D01*
X14267143Y-15780714D02*
X14267143Y-15580714D01*
X14267143Y-15609286D02*
X14281428Y-15595000D01*
X14310000Y-15580714D01*
X14352857Y-15580714D01*
X14381428Y-15595000D01*
X14395714Y-15623571D01*
X14395714Y-15780714D01*
X14395714Y-15623571D02*
X14410000Y-15595000D01*
X14438571Y-15580714D01*
X14481428Y-15580714D01*
X14510000Y-15595000D01*
X14524286Y-15623571D01*
X14524286Y-15780714D01*
X14667143Y-15780714D02*
X14667143Y-15580714D01*
X14667143Y-15609286D02*
X14681428Y-15595000D01*
X14710000Y-15580714D01*
X14752857Y-15580714D01*
X14781428Y-15595000D01*
X14795714Y-15623571D01*
X14795714Y-15780714D01*
X14795714Y-15623571D02*
X14810000Y-15595000D01*
X14838571Y-15580714D01*
X14881428Y-15580714D01*
X14910000Y-15595000D01*
X14924286Y-15623571D01*
X14924286Y-15780714D01*
X15510000Y-15466429D02*
X15252857Y-15852143D01*
X15895714Y-15480714D02*
X15924286Y-15480714D01*
X15952857Y-15495000D01*
X15967143Y-15509286D01*
X15981428Y-15537857D01*
X15995714Y-15595000D01*
X15995714Y-15666429D01*
X15981428Y-15723571D01*
X15967143Y-15752143D01*
X15952857Y-15766429D01*
X15924286Y-15780714D01*
X15895714Y-15780714D01*
X15867143Y-15766429D01*
X15852857Y-15752143D01*
X15838571Y-15723571D01*
X15824286Y-15666429D01*
X15824286Y-15595000D01*
X15838571Y-15537857D01*
X15852857Y-15509286D01*
X15867143Y-15495000D01*
X15895714Y-15480714D01*
X16124286Y-15752143D02*
X16138571Y-15766429D01*
X16124286Y-15780714D01*
X16110000Y-15766429D01*
X16124286Y-15752143D01*
X16124286Y-15780714D01*
X16324286Y-15480714D02*
X16352857Y-15480714D01*
X16381428Y-15495000D01*
X16395714Y-15509286D01*
X16410000Y-15537857D01*
X16424286Y-15595000D01*
X16424286Y-15666429D01*
X16410000Y-15723571D01*
X16395714Y-15752143D01*
X16381428Y-15766429D01*
X16352857Y-15780714D01*
X16324286Y-15780714D01*
X16295714Y-15766429D01*
X16281428Y-15752143D01*
X16267143Y-15723571D01*
X16252857Y-15666429D01*
X16252857Y-15595000D01*
X16267143Y-15537857D01*
X16281428Y-15509286D01*
X16295714Y-15495000D01*
X16324286Y-15480714D01*
X16695714Y-15480714D02*
X16552857Y-15480714D01*
X16538571Y-15623571D01*
X16552857Y-15609286D01*
X16581428Y-15595000D01*
X16652857Y-15595000D01*
X16681428Y-15609286D01*
X16695714Y-15623571D01*
X16710000Y-15652143D01*
X16710000Y-15723571D01*
X16695714Y-15752143D01*
X16681428Y-15766429D01*
X16652857Y-15780714D01*
X16581428Y-15780714D01*
X16552857Y-15766429D01*
X16538571Y-15752143D01*
X16852857Y-15780714D02*
X16910000Y-15780714D01*
X16938571Y-15766429D01*
X16952857Y-15752143D01*
X16981428Y-15709286D01*
X16995714Y-15652143D01*
X16995714Y-15537857D01*
X16981428Y-15509286D01*
X16967143Y-15495000D01*
X16938571Y-15480714D01*
X16881428Y-15480714D01*
X16852857Y-15495000D01*
X16838571Y-15509286D01*
X16824286Y-15537857D01*
X16824286Y-15609286D01*
X16838571Y-15637857D01*
X16852857Y-15652143D01*
X16881428Y-15666429D01*
X16938571Y-15666429D01*
X16967143Y-15652143D01*
X16981428Y-15637857D01*
X16995714Y-15609286D01*
X17167143Y-15609286D02*
X17138571Y-15595000D01*
X17124286Y-15580714D01*
X17110000Y-15552143D01*
X17110000Y-15537857D01*
X17124286Y-15509286D01*
X17138571Y-15495000D01*
X17167143Y-15480714D01*
X17224286Y-15480714D01*
X17252857Y-15495000D01*
X17267143Y-15509286D01*
X17281428Y-15537857D01*
X17281428Y-15552143D01*
X17267143Y-15580714D01*
X17252857Y-15595000D01*
X17224286Y-15609286D01*
X17167143Y-15609286D01*
X17138571Y-15623571D01*
X17124286Y-15637857D01*
X17110000Y-15666429D01*
X17110000Y-15723571D01*
X17124286Y-15752143D01*
X17138571Y-15766429D01*
X17167143Y-15780714D01*
X17224286Y-15780714D01*
X17252857Y-15766429D01*
X17267143Y-15752143D01*
X17281428Y-15723571D01*
X17281428Y-15666429D01*
X17267143Y-15637857D01*
X17252857Y-15623571D01*
X17224286Y-15609286D01*
X17395714Y-15480714D02*
X17395714Y-15537857D01*
X17510000Y-15480714D02*
X17510000Y-15537857D01*
X17952857Y-15895000D02*
X17938571Y-15880714D01*
X17910000Y-15837857D01*
X17895714Y-15809286D01*
X17881428Y-15766429D01*
X17867143Y-15695000D01*
X17867143Y-15637857D01*
X17881428Y-15566429D01*
X17895714Y-15523571D01*
X17910000Y-15495000D01*
X17938571Y-15452143D01*
X17952857Y-15437857D01*
X18052857Y-15509286D02*
X18067143Y-15495000D01*
X18095714Y-15480714D01*
X18167143Y-15480714D01*
X18195714Y-15495000D01*
X18210000Y-15509286D01*
X18224286Y-15537857D01*
X18224286Y-15566429D01*
X18210000Y-15609286D01*
X18038571Y-15780714D01*
X18224286Y-15780714D01*
X18581428Y-15780714D02*
X18581428Y-15480714D01*
X18710000Y-15780714D02*
X18710000Y-15623571D01*
X18695714Y-15595000D01*
X18667143Y-15580714D01*
X18624286Y-15580714D01*
X18595714Y-15595000D01*
X18581428Y-15609286D01*
X18895714Y-15780714D02*
X18867143Y-15766429D01*
X18852857Y-15752143D01*
X18838571Y-15723571D01*
X18838571Y-15637857D01*
X18852857Y-15609286D01*
X18867143Y-15595000D01*
X18895714Y-15580714D01*
X18938571Y-15580714D01*
X18967143Y-15595000D01*
X18981428Y-15609286D01*
X18995714Y-15637857D01*
X18995714Y-15723571D01*
X18981428Y-15752143D01*
X18967143Y-15766429D01*
X18938571Y-15780714D01*
X18895714Y-15780714D01*
X19167143Y-15780714D02*
X19138571Y-15766429D01*
X19124286Y-15737857D01*
X19124286Y-15480714D01*
X19395714Y-15766429D02*
X19367143Y-15780714D01*
X19310000Y-15780714D01*
X19281428Y-15766429D01*
X19267143Y-15737857D01*
X19267143Y-15623571D01*
X19281428Y-15595000D01*
X19310000Y-15580714D01*
X19367143Y-15580714D01*
X19395714Y-15595000D01*
X19410000Y-15623571D01*
X19410000Y-15652143D01*
X19267143Y-15680714D01*
X19524286Y-15766429D02*
X19552857Y-15780714D01*
X19610000Y-15780714D01*
X19638571Y-15766429D01*
X19652857Y-15737857D01*
X19652857Y-15723571D01*
X19638571Y-15695000D01*
X19610000Y-15680714D01*
X19567143Y-15680714D01*
X19538571Y-15666429D01*
X19524286Y-15637857D01*
X19524286Y-15623571D01*
X19538571Y-15595000D01*
X19567143Y-15580714D01*
X19610000Y-15580714D01*
X19638571Y-15595000D01*
X19752857Y-15895000D02*
X19767143Y-15880714D01*
X19795714Y-15837857D01*
X19810000Y-15809286D01*
X19824286Y-15766429D01*
X19838571Y-15695000D01*
X19838571Y-15637857D01*
X19824286Y-15566429D01*
X19810000Y-15523571D01*
X19795714Y-15495000D01*
X19767143Y-15452143D01*
X19752857Y-15437857D01*
X12445000Y-15916000D02*
X12695000Y-16166000D01*
X12695000Y-15916000D02*
X12445000Y-16166000D01*
X12570000Y-15916000D02*
X12570000Y-16166000D01*
X12445000Y-16041000D02*
X12695000Y-16041000D01*
X12967143Y-15905286D02*
X12981428Y-15891000D01*
X13010000Y-15876714D01*
X13081428Y-15876714D01*
X13110000Y-15891000D01*
X13124286Y-15905286D01*
X13138571Y-15933857D01*
X13138571Y-15962429D01*
X13124286Y-16005286D01*
X12952857Y-16176714D01*
X13138571Y-16176714D01*
X13267143Y-16148143D02*
X13281428Y-16162429D01*
X13267143Y-16176714D01*
X13252857Y-16162429D01*
X13267143Y-16148143D01*
X13267143Y-16176714D01*
X13552857Y-15876714D02*
X13410000Y-15876714D01*
X13395714Y-16019571D01*
X13410000Y-16005286D01*
X13438571Y-15991000D01*
X13510000Y-15991000D01*
X13538571Y-16005286D01*
X13552857Y-16019571D01*
X13567143Y-16048143D01*
X13567143Y-16119571D01*
X13552857Y-16148143D01*
X13538571Y-16162429D01*
X13510000Y-16176714D01*
X13438571Y-16176714D01*
X13410000Y-16162429D01*
X13395714Y-16148143D01*
X13752857Y-15876714D02*
X13781428Y-15876714D01*
X13810000Y-15891000D01*
X13824286Y-15905286D01*
X13838571Y-15933857D01*
X13852857Y-15991000D01*
X13852857Y-16062429D01*
X13838571Y-16119571D01*
X13824286Y-16148143D01*
X13810000Y-16162429D01*
X13781428Y-16176714D01*
X13752857Y-16176714D01*
X13724286Y-16162429D01*
X13710000Y-16148143D01*
X13695714Y-16119571D01*
X13681428Y-16062429D01*
X13681428Y-15991000D01*
X13695714Y-15933857D01*
X13710000Y-15905286D01*
X13724286Y-15891000D01*
X13752857Y-15876714D01*
X14038571Y-15876714D02*
X14067143Y-15876714D01*
X14095714Y-15891000D01*
X14110000Y-15905286D01*
X14124286Y-15933857D01*
X14138571Y-15991000D01*
X14138571Y-16062429D01*
X14124286Y-16119571D01*
X14110000Y-16148143D01*
X14095714Y-16162429D01*
X14067143Y-16176714D01*
X14038571Y-16176714D01*
X14010000Y-16162429D01*
X13995714Y-16148143D01*
X13981428Y-16119571D01*
X13967143Y-16062429D01*
X13967143Y-15991000D01*
X13981428Y-15933857D01*
X13995714Y-15905286D01*
X14010000Y-15891000D01*
X14038571Y-15876714D01*
X14267143Y-16176714D02*
X14267143Y-15976714D01*
X14267143Y-16005286D02*
X14281428Y-15991000D01*
X14310000Y-15976714D01*
X14352857Y-15976714D01*
X14381428Y-15991000D01*
X14395714Y-16019571D01*
X14395714Y-16176714D01*
X14395714Y-16019571D02*
X14410000Y-15991000D01*
X14438571Y-15976714D01*
X14481428Y-15976714D01*
X14510000Y-15991000D01*
X14524286Y-16019571D01*
X14524286Y-16176714D01*
X14667143Y-16176714D02*
X14667143Y-15976714D01*
X14667143Y-16005286D02*
X14681428Y-15991000D01*
X14710000Y-15976714D01*
X14752857Y-15976714D01*
X14781428Y-15991000D01*
X14795714Y-16019571D01*
X14795714Y-16176714D01*
X14795714Y-16019571D02*
X14810000Y-15991000D01*
X14838571Y-15976714D01*
X14881428Y-15976714D01*
X14910000Y-15991000D01*
X14924286Y-16019571D01*
X14924286Y-16176714D01*
X15510000Y-15862429D02*
X15252857Y-16248143D01*
X15895714Y-15876714D02*
X15924286Y-15876714D01*
X15952857Y-15891000D01*
X15967143Y-15905286D01*
X15981428Y-15933857D01*
X15995714Y-15991000D01*
X15995714Y-16062429D01*
X15981428Y-16119571D01*
X15967143Y-16148143D01*
X15952857Y-16162429D01*
X15924286Y-16176714D01*
X15895714Y-16176714D01*
X15867143Y-16162429D01*
X15852857Y-16148143D01*
X15838571Y-16119571D01*
X15824286Y-16062429D01*
X15824286Y-15991000D01*
X15838571Y-15933857D01*
X15852857Y-15905286D01*
X15867143Y-15891000D01*
X15895714Y-15876714D01*
X16124286Y-16148143D02*
X16138571Y-16162429D01*
X16124286Y-16176714D01*
X16110000Y-16162429D01*
X16124286Y-16148143D01*
X16124286Y-16176714D01*
X16324286Y-15876714D02*
X16352857Y-15876714D01*
X16381428Y-15891000D01*
X16395714Y-15905286D01*
X16410000Y-15933857D01*
X16424286Y-15991000D01*
X16424286Y-16062429D01*
X16410000Y-16119571D01*
X16395714Y-16148143D01*
X16381428Y-16162429D01*
X16352857Y-16176714D01*
X16324286Y-16176714D01*
X16295714Y-16162429D01*
X16281428Y-16148143D01*
X16267143Y-16119571D01*
X16252857Y-16062429D01*
X16252857Y-15991000D01*
X16267143Y-15933857D01*
X16281428Y-15905286D01*
X16295714Y-15891000D01*
X16324286Y-15876714D01*
X16567143Y-16176714D02*
X16624286Y-16176714D01*
X16652857Y-16162429D01*
X16667143Y-16148143D01*
X16695714Y-16105286D01*
X16710000Y-16048143D01*
X16710000Y-15933857D01*
X16695714Y-15905286D01*
X16681428Y-15891000D01*
X16652857Y-15876714D01*
X16595714Y-15876714D01*
X16567143Y-15891000D01*
X16552857Y-15905286D01*
X16538571Y-15933857D01*
X16538571Y-16005286D01*
X16552857Y-16033857D01*
X16567143Y-16048143D01*
X16595714Y-16062429D01*
X16652857Y-16062429D01*
X16681428Y-16048143D01*
X16695714Y-16033857D01*
X16710000Y-16005286D01*
X16881428Y-16005286D02*
X16852857Y-15991000D01*
X16838571Y-15976714D01*
X16824286Y-15948143D01*
X16824286Y-15933857D01*
X16838571Y-15905286D01*
X16852857Y-15891000D01*
X16881428Y-15876714D01*
X16938571Y-15876714D01*
X16967143Y-15891000D01*
X16981428Y-15905286D01*
X16995714Y-15933857D01*
X16995714Y-15948143D01*
X16981428Y-15976714D01*
X16967143Y-15991000D01*
X16938571Y-16005286D01*
X16881428Y-16005286D01*
X16852857Y-16019571D01*
X16838571Y-16033857D01*
X16824286Y-16062429D01*
X16824286Y-16119571D01*
X16838571Y-16148143D01*
X16852857Y-16162429D01*
X16881428Y-16176714D01*
X16938571Y-16176714D01*
X16967143Y-16162429D01*
X16981428Y-16148143D01*
X16995714Y-16119571D01*
X16995714Y-16062429D01*
X16981428Y-16033857D01*
X16967143Y-16019571D01*
X16938571Y-16005286D01*
X17252857Y-15976714D02*
X17252857Y-16176714D01*
X17181428Y-15862429D02*
X17110000Y-16076714D01*
X17295714Y-16076714D01*
X17395714Y-15876714D02*
X17395714Y-15933857D01*
X17510000Y-15876714D02*
X17510000Y-15933857D01*
X17952857Y-16291000D02*
X17938571Y-16276714D01*
X17910000Y-16233857D01*
X17895714Y-16205286D01*
X17881428Y-16162429D01*
X17867143Y-16091000D01*
X17867143Y-16033857D01*
X17881428Y-15962429D01*
X17895714Y-15919571D01*
X17910000Y-15891000D01*
X17938571Y-15848143D01*
X17952857Y-15833857D01*
X18195714Y-15976714D02*
X18195714Y-16176714D01*
X18124286Y-15862429D02*
X18052857Y-16076714D01*
X18238571Y-16076714D01*
X18581428Y-16176714D02*
X18581428Y-15876714D01*
X18710000Y-16176714D02*
X18710000Y-16019571D01*
X18695714Y-15991000D01*
X18667143Y-15976714D01*
X18624286Y-15976714D01*
X18595714Y-15991000D01*
X18581428Y-16005286D01*
X18895714Y-16176714D02*
X18867143Y-16162429D01*
X18852857Y-16148143D01*
X18838571Y-16119571D01*
X18838571Y-16033857D01*
X18852857Y-16005286D01*
X18867143Y-15991000D01*
X18895714Y-15976714D01*
X18938571Y-15976714D01*
X18967143Y-15991000D01*
X18981428Y-16005286D01*
X18995714Y-16033857D01*
X18995714Y-16119571D01*
X18981428Y-16148143D01*
X18967143Y-16162429D01*
X18938571Y-16176714D01*
X18895714Y-16176714D01*
X19167143Y-16176714D02*
X19138571Y-16162429D01*
X19124286Y-16133857D01*
X19124286Y-15876714D01*
X19395714Y-16162429D02*
X19367143Y-16176714D01*
X19310000Y-16176714D01*
X19281428Y-16162429D01*
X19267143Y-16133857D01*
X19267143Y-16019571D01*
X19281428Y-15991000D01*
X19310000Y-15976714D01*
X19367143Y-15976714D01*
X19395714Y-15991000D01*
X19410000Y-16019571D01*
X19410000Y-16048143D01*
X19267143Y-16076714D01*
X19524286Y-16162429D02*
X19552857Y-16176714D01*
X19610000Y-16176714D01*
X19638571Y-16162429D01*
X19652857Y-16133857D01*
X19652857Y-16119571D01*
X19638571Y-16091000D01*
X19610000Y-16076714D01*
X19567143Y-16076714D01*
X19538571Y-16062429D01*
X19524286Y-16033857D01*
X19524286Y-16019571D01*
X19538571Y-15991000D01*
X19567143Y-15976714D01*
X19610000Y-15976714D01*
X19638571Y-15991000D01*
X19752857Y-16291000D02*
X19767143Y-16276714D01*
X19795714Y-16233857D01*
X19810000Y-16205286D01*
X19824286Y-16162429D01*
X19838571Y-16091000D01*
X19838571Y-16033857D01*
X19824286Y-15962429D01*
X19810000Y-15919571D01*
X19795714Y-15891000D01*
X19767143Y-15848143D01*
X19752857Y-15833857D01*
M02*
