G04 #@! TF.GenerationSoftware,KiCad,Pcbnew,(5.1.10)-1*
G04 #@! TF.CreationDate,2021-09-04T13:32:15+03:00*
G04 #@! TF.ProjectId,amp_control_board,616d705f-636f-46e7-9472-6f6c5f626f61,rev?*
G04 #@! TF.SameCoordinates,Original*
G04 #@! TF.FileFunction,Paste,Top*
G04 #@! TF.FilePolarity,Positive*
%FSLAX46Y46*%
G04 Gerber Fmt 4.6, Leading zero omitted, Abs format (unit mm)*
G04 Created by KiCad (PCBNEW (5.1.10)-1) date 2021-09-04 13:32:15*
%MOMM*%
%LPD*%
G01*
G04 APERTURE LIST*
%ADD10R,0.300000X0.300000*%
%ADD11R,1.700000X2.000000*%
%ADD12R,2.000000X0.500000*%
%ADD13R,2.000000X1.500000*%
%ADD14R,2.000000X3.800000*%
%ADD15R,0.900000X0.800000*%
%ADD16R,2.000000X1.600000*%
%ADD17R,3.000000X8.000000*%
G04 APERTURE END LIST*
D10*
X213912000Y-106426000D03*
X213062000Y-106776000D03*
X213062000Y-106076000D03*
G36*
G01*
X219691000Y-119310999D02*
X219691000Y-120211001D01*
G75*
G02*
X219441001Y-120461000I-249999J0D01*
G01*
X218740999Y-120461000D01*
G75*
G02*
X218491000Y-120211001I0J249999D01*
G01*
X218491000Y-119310999D01*
G75*
G02*
X218740999Y-119061000I249999J0D01*
G01*
X219441001Y-119061000D01*
G75*
G02*
X219691000Y-119310999I0J-249999D01*
G01*
G37*
G36*
G01*
X221691000Y-119310999D02*
X221691000Y-120211001D01*
G75*
G02*
X221441001Y-120461000I-249999J0D01*
G01*
X220740999Y-120461000D01*
G75*
G02*
X220491000Y-120211001I0J249999D01*
G01*
X220491000Y-119310999D01*
G75*
G02*
X220740999Y-119061000I249999J0D01*
G01*
X221441001Y-119061000D01*
G75*
G02*
X221691000Y-119310999I0J-249999D01*
G01*
G37*
G36*
G01*
X219652001Y-115424000D02*
X218751999Y-115424000D01*
G75*
G02*
X218502000Y-115174001I0J249999D01*
G01*
X218502000Y-114473999D01*
G75*
G02*
X218751999Y-114224000I249999J0D01*
G01*
X219652001Y-114224000D01*
G75*
G02*
X219902000Y-114473999I0J-249999D01*
G01*
X219902000Y-115174001D01*
G75*
G02*
X219652001Y-115424000I-249999J0D01*
G01*
G37*
G36*
G01*
X219652001Y-117424000D02*
X218751999Y-117424000D01*
G75*
G02*
X218502000Y-117174001I0J249999D01*
G01*
X218502000Y-116473999D01*
G75*
G02*
X218751999Y-116224000I249999J0D01*
G01*
X219652001Y-116224000D01*
G75*
G02*
X219902000Y-116473999I0J-249999D01*
G01*
X219902000Y-117174001D01*
G75*
G02*
X219652001Y-117424000I-249999J0D01*
G01*
G37*
G36*
G01*
X212250000Y-112409000D02*
X211930000Y-112409000D01*
G75*
G02*
X211770000Y-112249000I0J160000D01*
G01*
X211770000Y-111854000D01*
G75*
G02*
X211930000Y-111694000I160000J0D01*
G01*
X212250000Y-111694000D01*
G75*
G02*
X212410000Y-111854000I0J-160000D01*
G01*
X212410000Y-112249000D01*
G75*
G02*
X212250000Y-112409000I-160000J0D01*
G01*
G37*
G36*
G01*
X212250000Y-113604000D02*
X211930000Y-113604000D01*
G75*
G02*
X211770000Y-113444000I0J160000D01*
G01*
X211770000Y-113049000D01*
G75*
G02*
X211930000Y-112889000I160000J0D01*
G01*
X212250000Y-112889000D01*
G75*
G02*
X212410000Y-113049000I0J-160000D01*
G01*
X212410000Y-113444000D01*
G75*
G02*
X212250000Y-113604000I-160000J0D01*
G01*
G37*
G36*
G01*
X210914000Y-112889000D02*
X211234000Y-112889000D01*
G75*
G02*
X211394000Y-113049000I0J-160000D01*
G01*
X211394000Y-113444000D01*
G75*
G02*
X211234000Y-113604000I-160000J0D01*
G01*
X210914000Y-113604000D01*
G75*
G02*
X210754000Y-113444000I0J160000D01*
G01*
X210754000Y-113049000D01*
G75*
G02*
X210914000Y-112889000I160000J0D01*
G01*
G37*
G36*
G01*
X210914000Y-111694000D02*
X211234000Y-111694000D01*
G75*
G02*
X211394000Y-111854000I0J-160000D01*
G01*
X211394000Y-112249000D01*
G75*
G02*
X211234000Y-112409000I-160000J0D01*
G01*
X210914000Y-112409000D01*
G75*
G02*
X210754000Y-112249000I0J160000D01*
G01*
X210754000Y-111854000D01*
G75*
G02*
X210914000Y-111694000I160000J0D01*
G01*
G37*
D11*
X223957000Y-101595000D03*
X218507000Y-101595000D03*
X223957000Y-110495000D03*
X218507000Y-110495000D03*
D12*
X218407000Y-104445000D03*
X218407000Y-105245000D03*
X218407000Y-106045000D03*
X218407000Y-106845000D03*
X218407000Y-107645000D03*
G36*
G01*
X175500000Y-115095000D02*
X175500000Y-114775000D01*
G75*
G02*
X175660000Y-114615000I160000J0D01*
G01*
X176055000Y-114615000D01*
G75*
G02*
X176215000Y-114775000I0J-160000D01*
G01*
X176215000Y-115095000D01*
G75*
G02*
X176055000Y-115255000I-160000J0D01*
G01*
X175660000Y-115255000D01*
G75*
G02*
X175500000Y-115095000I0J160000D01*
G01*
G37*
G36*
G01*
X174305000Y-115095000D02*
X174305000Y-114775000D01*
G75*
G02*
X174465000Y-114615000I160000J0D01*
G01*
X174860000Y-114615000D01*
G75*
G02*
X175020000Y-114775000I0J-160000D01*
G01*
X175020000Y-115095000D01*
G75*
G02*
X174860000Y-115255000I-160000J0D01*
G01*
X174465000Y-115255000D01*
G75*
G02*
X174305000Y-115095000I0J160000D01*
G01*
G37*
G36*
G01*
X174103000Y-122969000D02*
X174103000Y-122649000D01*
G75*
G02*
X174263000Y-122489000I160000J0D01*
G01*
X174658000Y-122489000D01*
G75*
G02*
X174818000Y-122649000I0J-160000D01*
G01*
X174818000Y-122969000D01*
G75*
G02*
X174658000Y-123129000I-160000J0D01*
G01*
X174263000Y-123129000D01*
G75*
G02*
X174103000Y-122969000I0J160000D01*
G01*
G37*
G36*
G01*
X172908000Y-122969000D02*
X172908000Y-122649000D01*
G75*
G02*
X173068000Y-122489000I160000J0D01*
G01*
X173463000Y-122489000D01*
G75*
G02*
X173623000Y-122649000I0J-160000D01*
G01*
X173623000Y-122969000D01*
G75*
G02*
X173463000Y-123129000I-160000J0D01*
G01*
X173068000Y-123129000D01*
G75*
G02*
X172908000Y-122969000I0J160000D01*
G01*
G37*
G36*
G01*
X162320000Y-121125000D02*
X162320000Y-121445000D01*
G75*
G02*
X162160000Y-121605000I-160000J0D01*
G01*
X161765000Y-121605000D01*
G75*
G02*
X161605000Y-121445000I0J160000D01*
G01*
X161605000Y-121125000D01*
G75*
G02*
X161765000Y-120965000I160000J0D01*
G01*
X162160000Y-120965000D01*
G75*
G02*
X162320000Y-121125000I0J-160000D01*
G01*
G37*
G36*
G01*
X163515000Y-121125000D02*
X163515000Y-121445000D01*
G75*
G02*
X163355000Y-121605000I-160000J0D01*
G01*
X162960000Y-121605000D01*
G75*
G02*
X162800000Y-121445000I0J160000D01*
G01*
X162800000Y-121125000D01*
G75*
G02*
X162960000Y-120965000I160000J0D01*
G01*
X163355000Y-120965000D01*
G75*
G02*
X163515000Y-121125000I0J-160000D01*
G01*
G37*
G36*
G01*
X167800000Y-111520000D02*
X167480000Y-111520000D01*
G75*
G02*
X167320000Y-111360000I0J160000D01*
G01*
X167320000Y-110965000D01*
G75*
G02*
X167480000Y-110805000I160000J0D01*
G01*
X167800000Y-110805000D01*
G75*
G02*
X167960000Y-110965000I0J-160000D01*
G01*
X167960000Y-111360000D01*
G75*
G02*
X167800000Y-111520000I-160000J0D01*
G01*
G37*
G36*
G01*
X167800000Y-112715000D02*
X167480000Y-112715000D01*
G75*
G02*
X167320000Y-112555000I0J160000D01*
G01*
X167320000Y-112160000D01*
G75*
G02*
X167480000Y-112000000I160000J0D01*
G01*
X167800000Y-112000000D01*
G75*
G02*
X167960000Y-112160000I0J-160000D01*
G01*
X167960000Y-112555000D01*
G75*
G02*
X167800000Y-112715000I-160000J0D01*
G01*
G37*
G36*
G01*
X171755000Y-102050001D02*
X171755000Y-101149999D01*
G75*
G02*
X172004999Y-100900000I249999J0D01*
G01*
X172705001Y-100900000D01*
G75*
G02*
X172955000Y-101149999I0J-249999D01*
G01*
X172955000Y-102050001D01*
G75*
G02*
X172705001Y-102300000I-249999J0D01*
G01*
X172004999Y-102300000D01*
G75*
G02*
X171755000Y-102050001I0J249999D01*
G01*
G37*
G36*
G01*
X173755000Y-102050001D02*
X173755000Y-101149999D01*
G75*
G02*
X174004999Y-100900000I249999J0D01*
G01*
X174705001Y-100900000D01*
G75*
G02*
X174955000Y-101149999I0J-249999D01*
G01*
X174955000Y-102050001D01*
G75*
G02*
X174705001Y-102300000I-249999J0D01*
G01*
X174004999Y-102300000D01*
G75*
G02*
X173755000Y-102050001I0J249999D01*
G01*
G37*
G36*
G01*
X211524001Y-86214000D02*
X210623999Y-86214000D01*
G75*
G02*
X210374000Y-85964001I0J249999D01*
G01*
X210374000Y-85263999D01*
G75*
G02*
X210623999Y-85014000I249999J0D01*
G01*
X211524001Y-85014000D01*
G75*
G02*
X211774000Y-85263999I0J-249999D01*
G01*
X211774000Y-85964001D01*
G75*
G02*
X211524001Y-86214000I-249999J0D01*
G01*
G37*
G36*
G01*
X211524001Y-88214000D02*
X210623999Y-88214000D01*
G75*
G02*
X210374000Y-87964001I0J249999D01*
G01*
X210374000Y-87263999D01*
G75*
G02*
X210623999Y-87014000I249999J0D01*
G01*
X211524001Y-87014000D01*
G75*
G02*
X211774000Y-87263999I0J-249999D01*
G01*
X211774000Y-87964001D01*
G75*
G02*
X211524001Y-88214000I-249999J0D01*
G01*
G37*
G36*
G01*
X155445000Y-101149999D02*
X155445000Y-102050001D01*
G75*
G02*
X155195001Y-102300000I-249999J0D01*
G01*
X154494999Y-102300000D01*
G75*
G02*
X154245000Y-102050001I0J249999D01*
G01*
X154245000Y-101149999D01*
G75*
G02*
X154494999Y-100900000I249999J0D01*
G01*
X155195001Y-100900000D01*
G75*
G02*
X155445000Y-101149999I0J-249999D01*
G01*
G37*
G36*
G01*
X157445000Y-101149999D02*
X157445000Y-102050001D01*
G75*
G02*
X157195001Y-102300000I-249999J0D01*
G01*
X156494999Y-102300000D01*
G75*
G02*
X156245000Y-102050001I0J249999D01*
G01*
X156245000Y-101149999D01*
G75*
G02*
X156494999Y-100900000I249999J0D01*
G01*
X157195001Y-100900000D01*
G75*
G02*
X157445000Y-101149999I0J-249999D01*
G01*
G37*
G36*
G01*
X179254999Y-102540000D02*
X180155001Y-102540000D01*
G75*
G02*
X180405000Y-102789999I0J-249999D01*
G01*
X180405000Y-103490001D01*
G75*
G02*
X180155001Y-103740000I-249999J0D01*
G01*
X179254999Y-103740000D01*
G75*
G02*
X179005000Y-103490001I0J249999D01*
G01*
X179005000Y-102789999D01*
G75*
G02*
X179254999Y-102540000I249999J0D01*
G01*
G37*
G36*
G01*
X179254999Y-104540000D02*
X180155001Y-104540000D01*
G75*
G02*
X180405000Y-104789999I0J-249999D01*
G01*
X180405000Y-105490001D01*
G75*
G02*
X180155001Y-105740000I-249999J0D01*
G01*
X179254999Y-105740000D01*
G75*
G02*
X179005000Y-105490001I0J249999D01*
G01*
X179005000Y-104789999D01*
G75*
G02*
X179254999Y-104540000I249999J0D01*
G01*
G37*
G36*
G01*
X180155001Y-99295000D02*
X179254999Y-99295000D01*
G75*
G02*
X179005000Y-99045001I0J249999D01*
G01*
X179005000Y-98344999D01*
G75*
G02*
X179254999Y-98095000I249999J0D01*
G01*
X180155001Y-98095000D01*
G75*
G02*
X180405000Y-98344999I0J-249999D01*
G01*
X180405000Y-99045001D01*
G75*
G02*
X180155001Y-99295000I-249999J0D01*
G01*
G37*
G36*
G01*
X180155001Y-101295000D02*
X179254999Y-101295000D01*
G75*
G02*
X179005000Y-101045001I0J249999D01*
G01*
X179005000Y-100344999D01*
G75*
G02*
X179254999Y-100095000I249999J0D01*
G01*
X180155001Y-100095000D01*
G75*
G02*
X180405000Y-100344999I0J-249999D01*
G01*
X180405000Y-101045001D01*
G75*
G02*
X180155001Y-101295000I-249999J0D01*
G01*
G37*
G36*
G01*
X176218001Y-88214000D02*
X175317999Y-88214000D01*
G75*
G02*
X175068000Y-87964001I0J249999D01*
G01*
X175068000Y-87263999D01*
G75*
G02*
X175317999Y-87014000I249999J0D01*
G01*
X176218001Y-87014000D01*
G75*
G02*
X176468000Y-87263999I0J-249999D01*
G01*
X176468000Y-87964001D01*
G75*
G02*
X176218001Y-88214000I-249999J0D01*
G01*
G37*
G36*
G01*
X176218001Y-86214000D02*
X175317999Y-86214000D01*
G75*
G02*
X175068000Y-85964001I0J249999D01*
G01*
X175068000Y-85263999D01*
G75*
G02*
X175317999Y-85014000I249999J0D01*
G01*
X176218001Y-85014000D01*
G75*
G02*
X176468000Y-85263999I0J-249999D01*
G01*
X176468000Y-85964001D01*
G75*
G02*
X176218001Y-86214000I-249999J0D01*
G01*
G37*
G36*
G01*
X183820000Y-122370001D02*
X183820000Y-121469999D01*
G75*
G02*
X184069999Y-121220000I249999J0D01*
G01*
X184770001Y-121220000D01*
G75*
G02*
X185020000Y-121469999I0J-249999D01*
G01*
X185020000Y-122370001D01*
G75*
G02*
X184770001Y-122620000I-249999J0D01*
G01*
X184069999Y-122620000D01*
G75*
G02*
X183820000Y-122370001I0J249999D01*
G01*
G37*
G36*
G01*
X185820000Y-122370001D02*
X185820000Y-121469999D01*
G75*
G02*
X186069999Y-121220000I249999J0D01*
G01*
X186770001Y-121220000D01*
G75*
G02*
X187020000Y-121469999I0J-249999D01*
G01*
X187020000Y-122370001D01*
G75*
G02*
X186770001Y-122620000I-249999J0D01*
G01*
X186069999Y-122620000D01*
G75*
G02*
X185820000Y-122370001I0J249999D01*
G01*
G37*
G36*
G01*
X195395001Y-97009000D02*
X194494999Y-97009000D01*
G75*
G02*
X194245000Y-96759001I0J249999D01*
G01*
X194245000Y-96058999D01*
G75*
G02*
X194494999Y-95809000I249999J0D01*
G01*
X195395001Y-95809000D01*
G75*
G02*
X195645000Y-96058999I0J-249999D01*
G01*
X195645000Y-96759001D01*
G75*
G02*
X195395001Y-97009000I-249999J0D01*
G01*
G37*
G36*
G01*
X195395001Y-99009000D02*
X194494999Y-99009000D01*
G75*
G02*
X194245000Y-98759001I0J249999D01*
G01*
X194245000Y-98058999D01*
G75*
G02*
X194494999Y-97809000I249999J0D01*
G01*
X195395001Y-97809000D01*
G75*
G02*
X195645000Y-98058999I0J-249999D01*
G01*
X195645000Y-98759001D01*
G75*
G02*
X195395001Y-99009000I-249999J0D01*
G01*
G37*
G36*
G01*
X195395001Y-107804000D02*
X194494999Y-107804000D01*
G75*
G02*
X194245000Y-107554001I0J249999D01*
G01*
X194245000Y-106853999D01*
G75*
G02*
X194494999Y-106604000I249999J0D01*
G01*
X195395001Y-106604000D01*
G75*
G02*
X195645000Y-106853999I0J-249999D01*
G01*
X195645000Y-107554001D01*
G75*
G02*
X195395001Y-107804000I-249999J0D01*
G01*
G37*
G36*
G01*
X195395001Y-109804000D02*
X194494999Y-109804000D01*
G75*
G02*
X194245000Y-109554001I0J249999D01*
G01*
X194245000Y-108853999D01*
G75*
G02*
X194494999Y-108604000I249999J0D01*
G01*
X195395001Y-108604000D01*
G75*
G02*
X195645000Y-108853999I0J-249999D01*
G01*
X195645000Y-109554001D01*
G75*
G02*
X195395001Y-109804000I-249999J0D01*
G01*
G37*
G36*
G01*
X195395001Y-120599000D02*
X194494999Y-120599000D01*
G75*
G02*
X194245000Y-120349001I0J249999D01*
G01*
X194245000Y-119648999D01*
G75*
G02*
X194494999Y-119399000I249999J0D01*
G01*
X195395001Y-119399000D01*
G75*
G02*
X195645000Y-119648999I0J-249999D01*
G01*
X195645000Y-120349001D01*
G75*
G02*
X195395001Y-120599000I-249999J0D01*
G01*
G37*
G36*
G01*
X195395001Y-118599000D02*
X194494999Y-118599000D01*
G75*
G02*
X194245000Y-118349001I0J249999D01*
G01*
X194245000Y-117648999D01*
G75*
G02*
X194494999Y-117399000I249999J0D01*
G01*
X195395001Y-117399000D01*
G75*
G02*
X195645000Y-117648999I0J-249999D01*
G01*
X195645000Y-118349001D01*
G75*
G02*
X195395001Y-118599000I-249999J0D01*
G01*
G37*
G36*
G01*
X202985000Y-73615000D02*
X198335000Y-73615000D01*
G75*
G02*
X198085000Y-73365000I0J250000D01*
G01*
X198085000Y-71215000D01*
G75*
G02*
X198335000Y-70965000I250000J0D01*
G01*
X202985000Y-70965000D01*
G75*
G02*
X203235000Y-71215000I0J-250000D01*
G01*
X203235000Y-73365000D01*
G75*
G02*
X202985000Y-73615000I-250000J0D01*
G01*
G37*
G36*
G01*
X202985000Y-80165000D02*
X198335000Y-80165000D01*
G75*
G02*
X198085000Y-79915000I0J250000D01*
G01*
X198085000Y-77765000D01*
G75*
G02*
X198335000Y-77515000I250000J0D01*
G01*
X202985000Y-77515000D01*
G75*
G02*
X203235000Y-77765000I0J-250000D01*
G01*
X203235000Y-79915000D01*
G75*
G02*
X202985000Y-80165000I-250000J0D01*
G01*
G37*
G36*
G01*
X168060000Y-80165000D02*
X163410000Y-80165000D01*
G75*
G02*
X163160000Y-79915000I0J250000D01*
G01*
X163160000Y-77765000D01*
G75*
G02*
X163410000Y-77515000I250000J0D01*
G01*
X168060000Y-77515000D01*
G75*
G02*
X168310000Y-77765000I0J-250000D01*
G01*
X168310000Y-79915000D01*
G75*
G02*
X168060000Y-80165000I-250000J0D01*
G01*
G37*
G36*
G01*
X168060000Y-73615000D02*
X163410000Y-73615000D01*
G75*
G02*
X163160000Y-73365000I0J250000D01*
G01*
X163160000Y-71215000D01*
G75*
G02*
X163410000Y-70965000I250000J0D01*
G01*
X168060000Y-70965000D01*
G75*
G02*
X168310000Y-71215000I0J-250000D01*
G01*
X168310000Y-73365000D01*
G75*
G02*
X168060000Y-73615000I-250000J0D01*
G01*
G37*
G36*
G01*
X151508750Y-105201000D02*
X152021250Y-105201000D01*
G75*
G02*
X152240000Y-105419750I0J-218750D01*
G01*
X152240000Y-105857250D01*
G75*
G02*
X152021250Y-106076000I-218750J0D01*
G01*
X151508750Y-106076000D01*
G75*
G02*
X151290000Y-105857250I0J218750D01*
G01*
X151290000Y-105419750D01*
G75*
G02*
X151508750Y-105201000I218750J0D01*
G01*
G37*
G36*
G01*
X151508750Y-106776000D02*
X152021250Y-106776000D01*
G75*
G02*
X152240000Y-106994750I0J-218750D01*
G01*
X152240000Y-107432250D01*
G75*
G02*
X152021250Y-107651000I-218750J0D01*
G01*
X151508750Y-107651000D01*
G75*
G02*
X151290000Y-107432250I0J218750D01*
G01*
X151290000Y-106994750D01*
G75*
G02*
X151508750Y-106776000I218750J0D01*
G01*
G37*
D13*
X217195000Y-85330000D03*
X217195000Y-89930000D03*
X217195000Y-87630000D03*
D14*
X223495000Y-87630000D03*
X188595000Y-87630000D03*
D13*
X182295000Y-87630000D03*
X182295000Y-89930000D03*
X182295000Y-85330000D03*
D15*
X150225000Y-76200000D03*
X148225000Y-77150000D03*
X148225000Y-75250000D03*
X150225000Y-83627000D03*
X150225000Y-81727000D03*
X148225000Y-82677000D03*
G36*
G01*
X206451000Y-87179999D02*
X206451000Y-88080001D01*
G75*
G02*
X206201001Y-88330000I-249999J0D01*
G01*
X205500999Y-88330000D01*
G75*
G02*
X205251000Y-88080001I0J249999D01*
G01*
X205251000Y-87179999D01*
G75*
G02*
X205500999Y-86930000I249999J0D01*
G01*
X206201001Y-86930000D01*
G75*
G02*
X206451000Y-87179999I0J-249999D01*
G01*
G37*
G36*
G01*
X204451000Y-87179999D02*
X204451000Y-88080001D01*
G75*
G02*
X204201001Y-88330000I-249999J0D01*
G01*
X203500999Y-88330000D01*
G75*
G02*
X203251000Y-88080001I0J249999D01*
G01*
X203251000Y-87179999D01*
G75*
G02*
X203500999Y-86930000I249999J0D01*
G01*
X204201001Y-86930000D01*
G75*
G02*
X204451000Y-87179999I0J-249999D01*
G01*
G37*
G36*
G01*
X164335000Y-96704999D02*
X164335000Y-97605001D01*
G75*
G02*
X164085001Y-97855000I-249999J0D01*
G01*
X163384999Y-97855000D01*
G75*
G02*
X163135000Y-97605001I0J249999D01*
G01*
X163135000Y-96704999D01*
G75*
G02*
X163384999Y-96455000I249999J0D01*
G01*
X164085001Y-96455000D01*
G75*
G02*
X164335000Y-96704999I0J-249999D01*
G01*
G37*
G36*
G01*
X166335000Y-96704999D02*
X166335000Y-97605001D01*
G75*
G02*
X166085001Y-97855000I-249999J0D01*
G01*
X165384999Y-97855000D01*
G75*
G02*
X165135000Y-97605001I0J249999D01*
G01*
X165135000Y-96704999D01*
G75*
G02*
X165384999Y-96455000I249999J0D01*
G01*
X166085001Y-96455000D01*
G75*
G02*
X166335000Y-96704999I0J-249999D01*
G01*
G37*
G36*
G01*
X220380000Y-75634001D02*
X220380000Y-74733999D01*
G75*
G02*
X220629999Y-74484000I249999J0D01*
G01*
X221330001Y-74484000D01*
G75*
G02*
X221580000Y-74733999I0J-249999D01*
G01*
X221580000Y-75634001D01*
G75*
G02*
X221330001Y-75884000I-249999J0D01*
G01*
X220629999Y-75884000D01*
G75*
G02*
X220380000Y-75634001I0J249999D01*
G01*
G37*
G36*
G01*
X218380000Y-75634001D02*
X218380000Y-74733999D01*
G75*
G02*
X218629999Y-74484000I249999J0D01*
G01*
X219330001Y-74484000D01*
G75*
G02*
X219580000Y-74733999I0J-249999D01*
G01*
X219580000Y-75634001D01*
G75*
G02*
X219330001Y-75884000I-249999J0D01*
G01*
X218629999Y-75884000D01*
G75*
G02*
X218380000Y-75634001I0J249999D01*
G01*
G37*
G36*
G01*
X179940000Y-121469999D02*
X179940000Y-122370001D01*
G75*
G02*
X179690001Y-122620000I-249999J0D01*
G01*
X178989999Y-122620000D01*
G75*
G02*
X178740000Y-122370001I0J249999D01*
G01*
X178740000Y-121469999D01*
G75*
G02*
X178989999Y-121220000I249999J0D01*
G01*
X179690001Y-121220000D01*
G75*
G02*
X179940000Y-121469999I0J-249999D01*
G01*
G37*
G36*
G01*
X181940000Y-121469999D02*
X181940000Y-122370001D01*
G75*
G02*
X181690001Y-122620000I-249999J0D01*
G01*
X180989999Y-122620000D01*
G75*
G02*
X180740000Y-122370001I0J249999D01*
G01*
X180740000Y-121469999D01*
G75*
G02*
X180989999Y-121220000I249999J0D01*
G01*
X181690001Y-121220000D01*
G75*
G02*
X181940000Y-121469999I0J-249999D01*
G01*
G37*
G36*
G01*
X144595001Y-77800000D02*
X143694999Y-77800000D01*
G75*
G02*
X143445000Y-77550001I0J249999D01*
G01*
X143445000Y-76849999D01*
G75*
G02*
X143694999Y-76600000I249999J0D01*
G01*
X144595001Y-76600000D01*
G75*
G02*
X144845000Y-76849999I0J-249999D01*
G01*
X144845000Y-77550001D01*
G75*
G02*
X144595001Y-77800000I-249999J0D01*
G01*
G37*
G36*
G01*
X144595001Y-75800000D02*
X143694999Y-75800000D01*
G75*
G02*
X143445000Y-75550001I0J249999D01*
G01*
X143445000Y-74849999D01*
G75*
G02*
X143694999Y-74600000I249999J0D01*
G01*
X144595001Y-74600000D01*
G75*
G02*
X144845000Y-74849999I0J-249999D01*
G01*
X144845000Y-75550001D01*
G75*
G02*
X144595001Y-75800000I-249999J0D01*
G01*
G37*
G36*
G01*
X143694999Y-83077000D02*
X144595001Y-83077000D01*
G75*
G02*
X144845000Y-83326999I0J-249999D01*
G01*
X144845000Y-84027001D01*
G75*
G02*
X144595001Y-84277000I-249999J0D01*
G01*
X143694999Y-84277000D01*
G75*
G02*
X143445000Y-84027001I0J249999D01*
G01*
X143445000Y-83326999D01*
G75*
G02*
X143694999Y-83077000I249999J0D01*
G01*
G37*
G36*
G01*
X143694999Y-81077000D02*
X144595001Y-81077000D01*
G75*
G02*
X144845000Y-81326999I0J-249999D01*
G01*
X144845000Y-82027001D01*
G75*
G02*
X144595001Y-82277000I-249999J0D01*
G01*
X143694999Y-82277000D01*
G75*
G02*
X143445000Y-82027001I0J249999D01*
G01*
X143445000Y-81326999D01*
G75*
G02*
X143694999Y-81077000I249999J0D01*
G01*
G37*
G36*
G01*
X148901999Y-93523000D02*
X149802001Y-93523000D01*
G75*
G02*
X150052000Y-93772999I0J-249999D01*
G01*
X150052000Y-94473001D01*
G75*
G02*
X149802001Y-94723000I-249999J0D01*
G01*
X148901999Y-94723000D01*
G75*
G02*
X148652000Y-94473001I0J249999D01*
G01*
X148652000Y-93772999D01*
G75*
G02*
X148901999Y-93523000I249999J0D01*
G01*
G37*
G36*
G01*
X148901999Y-95523000D02*
X149802001Y-95523000D01*
G75*
G02*
X150052000Y-95772999I0J-249999D01*
G01*
X150052000Y-96473001D01*
G75*
G02*
X149802001Y-96723000I-249999J0D01*
G01*
X148901999Y-96723000D01*
G75*
G02*
X148652000Y-96473001I0J249999D01*
G01*
X148652000Y-95772999D01*
G75*
G02*
X148901999Y-95523000I249999J0D01*
G01*
G37*
G36*
G01*
X153854999Y-75235000D02*
X154755001Y-75235000D01*
G75*
G02*
X155005000Y-75484999I0J-249999D01*
G01*
X155005000Y-76185001D01*
G75*
G02*
X154755001Y-76435000I-249999J0D01*
G01*
X153854999Y-76435000D01*
G75*
G02*
X153605000Y-76185001I0J249999D01*
G01*
X153605000Y-75484999D01*
G75*
G02*
X153854999Y-75235000I249999J0D01*
G01*
G37*
G36*
G01*
X153854999Y-77235000D02*
X154755001Y-77235000D01*
G75*
G02*
X155005000Y-77484999I0J-249999D01*
G01*
X155005000Y-78185001D01*
G75*
G02*
X154755001Y-78435000I-249999J0D01*
G01*
X153854999Y-78435000D01*
G75*
G02*
X153605000Y-78185001I0J249999D01*
G01*
X153605000Y-77484999D01*
G75*
G02*
X153854999Y-77235000I249999J0D01*
G01*
G37*
G36*
G01*
X154755001Y-83261000D02*
X153854999Y-83261000D01*
G75*
G02*
X153605000Y-83011001I0J249999D01*
G01*
X153605000Y-82310999D01*
G75*
G02*
X153854999Y-82061000I249999J0D01*
G01*
X154755001Y-82061000D01*
G75*
G02*
X155005000Y-82310999I0J-249999D01*
G01*
X155005000Y-83011001D01*
G75*
G02*
X154755001Y-83261000I-249999J0D01*
G01*
G37*
G36*
G01*
X154755001Y-81261000D02*
X153854999Y-81261000D01*
G75*
G02*
X153605000Y-81011001I0J249999D01*
G01*
X153605000Y-80310999D01*
G75*
G02*
X153854999Y-80061000I249999J0D01*
G01*
X154755001Y-80061000D01*
G75*
G02*
X155005000Y-80310999I0J-249999D01*
G01*
X155005000Y-81011001D01*
G75*
G02*
X154755001Y-81261000I-249999J0D01*
G01*
G37*
G36*
G01*
X135020000Y-109035001D02*
X135020000Y-108134999D01*
G75*
G02*
X135269999Y-107885000I249999J0D01*
G01*
X135970001Y-107885000D01*
G75*
G02*
X136220000Y-108134999I0J-249999D01*
G01*
X136220000Y-109035001D01*
G75*
G02*
X135970001Y-109285000I-249999J0D01*
G01*
X135269999Y-109285000D01*
G75*
G02*
X135020000Y-109035001I0J249999D01*
G01*
G37*
G36*
G01*
X133020000Y-109035001D02*
X133020000Y-108134999D01*
G75*
G02*
X133269999Y-107885000I249999J0D01*
G01*
X133970001Y-107885000D01*
G75*
G02*
X134220000Y-108134999I0J-249999D01*
G01*
X134220000Y-109035001D01*
G75*
G02*
X133970001Y-109285000I-249999J0D01*
G01*
X133269999Y-109285000D01*
G75*
G02*
X133020000Y-109035001I0J249999D01*
G01*
G37*
G36*
G01*
X133020000Y-112210001D02*
X133020000Y-111309999D01*
G75*
G02*
X133269999Y-111060000I249999J0D01*
G01*
X133970001Y-111060000D01*
G75*
G02*
X134220000Y-111309999I0J-249999D01*
G01*
X134220000Y-112210001D01*
G75*
G02*
X133970001Y-112460000I-249999J0D01*
G01*
X133269999Y-112460000D01*
G75*
G02*
X133020000Y-112210001I0J249999D01*
G01*
G37*
G36*
G01*
X135020000Y-112210001D02*
X135020000Y-111309999D01*
G75*
G02*
X135269999Y-111060000I249999J0D01*
G01*
X135970001Y-111060000D01*
G75*
G02*
X136220000Y-111309999I0J-249999D01*
G01*
X136220000Y-112210001D01*
G75*
G02*
X135970001Y-112460000I-249999J0D01*
G01*
X135269999Y-112460000D01*
G75*
G02*
X135020000Y-112210001I0J249999D01*
G01*
G37*
G36*
G01*
X151530000Y-117925001D02*
X151530000Y-117024999D01*
G75*
G02*
X151779999Y-116775000I249999J0D01*
G01*
X152480001Y-116775000D01*
G75*
G02*
X152730000Y-117024999I0J-249999D01*
G01*
X152730000Y-117925001D01*
G75*
G02*
X152480001Y-118175000I-249999J0D01*
G01*
X151779999Y-118175000D01*
G75*
G02*
X151530000Y-117925001I0J249999D01*
G01*
G37*
G36*
G01*
X149530000Y-117925001D02*
X149530000Y-117024999D01*
G75*
G02*
X149779999Y-116775000I249999J0D01*
G01*
X150480001Y-116775000D01*
G75*
G02*
X150730000Y-117024999I0J-249999D01*
G01*
X150730000Y-117925001D01*
G75*
G02*
X150480001Y-118175000I-249999J0D01*
G01*
X149779999Y-118175000D01*
G75*
G02*
X149530000Y-117925001I0J249999D01*
G01*
G37*
G36*
G01*
X135020000Y-115385001D02*
X135020000Y-114484999D01*
G75*
G02*
X135269999Y-114235000I249999J0D01*
G01*
X135970001Y-114235000D01*
G75*
G02*
X136220000Y-114484999I0J-249999D01*
G01*
X136220000Y-115385001D01*
G75*
G02*
X135970001Y-115635000I-249999J0D01*
G01*
X135269999Y-115635000D01*
G75*
G02*
X135020000Y-115385001I0J249999D01*
G01*
G37*
G36*
G01*
X133020000Y-115385001D02*
X133020000Y-114484999D01*
G75*
G02*
X133269999Y-114235000I249999J0D01*
G01*
X133970001Y-114235000D01*
G75*
G02*
X134220000Y-114484999I0J-249999D01*
G01*
X134220000Y-115385001D01*
G75*
G02*
X133970001Y-115635000I-249999J0D01*
G01*
X133269999Y-115635000D01*
G75*
G02*
X133020000Y-115385001I0J249999D01*
G01*
G37*
G36*
G01*
X152730000Y-111309999D02*
X152730000Y-112210001D01*
G75*
G02*
X152480001Y-112460000I-249999J0D01*
G01*
X151779999Y-112460000D01*
G75*
G02*
X151530000Y-112210001I0J249999D01*
G01*
X151530000Y-111309999D01*
G75*
G02*
X151779999Y-111060000I249999J0D01*
G01*
X152480001Y-111060000D01*
G75*
G02*
X152730000Y-111309999I0J-249999D01*
G01*
G37*
G36*
G01*
X150730000Y-111309999D02*
X150730000Y-112210001D01*
G75*
G02*
X150480001Y-112460000I-249999J0D01*
G01*
X149779999Y-112460000D01*
G75*
G02*
X149530000Y-112210001I0J249999D01*
G01*
X149530000Y-111309999D01*
G75*
G02*
X149779999Y-111060000I249999J0D01*
G01*
X150480001Y-111060000D01*
G75*
G02*
X150730000Y-111309999I0J-249999D01*
G01*
G37*
G36*
G01*
X152730000Y-120834999D02*
X152730000Y-121735001D01*
G75*
G02*
X152480001Y-121985000I-249999J0D01*
G01*
X151779999Y-121985000D01*
G75*
G02*
X151530000Y-121735001I0J249999D01*
G01*
X151530000Y-120834999D01*
G75*
G02*
X151779999Y-120585000I249999J0D01*
G01*
X152480001Y-120585000D01*
G75*
G02*
X152730000Y-120834999I0J-249999D01*
G01*
G37*
G36*
G01*
X150730000Y-120834999D02*
X150730000Y-121735001D01*
G75*
G02*
X150480001Y-121985000I-249999J0D01*
G01*
X149779999Y-121985000D01*
G75*
G02*
X149530000Y-121735001I0J249999D01*
G01*
X149530000Y-120834999D01*
G75*
G02*
X149779999Y-120585000I249999J0D01*
G01*
X150480001Y-120585000D01*
G75*
G02*
X150730000Y-120834999I0J-249999D01*
G01*
G37*
G36*
G01*
X206775000Y-98875001D02*
X206775000Y-97974999D01*
G75*
G02*
X207024999Y-97725000I249999J0D01*
G01*
X207725001Y-97725000D01*
G75*
G02*
X207975000Y-97974999I0J-249999D01*
G01*
X207975000Y-98875001D01*
G75*
G02*
X207725001Y-99125000I-249999J0D01*
G01*
X207024999Y-99125000D01*
G75*
G02*
X206775000Y-98875001I0J249999D01*
G01*
G37*
G36*
G01*
X204775000Y-98875001D02*
X204775000Y-97974999D01*
G75*
G02*
X205024999Y-97725000I249999J0D01*
G01*
X205725001Y-97725000D01*
G75*
G02*
X205975000Y-97974999I0J-249999D01*
G01*
X205975000Y-98875001D01*
G75*
G02*
X205725001Y-99125000I-249999J0D01*
G01*
X205024999Y-99125000D01*
G75*
G02*
X204775000Y-98875001I0J249999D01*
G01*
G37*
G36*
G01*
X199060000Y-98875001D02*
X199060000Y-97974999D01*
G75*
G02*
X199309999Y-97725000I249999J0D01*
G01*
X200010001Y-97725000D01*
G75*
G02*
X200260000Y-97974999I0J-249999D01*
G01*
X200260000Y-98875001D01*
G75*
G02*
X200010001Y-99125000I-249999J0D01*
G01*
X199309999Y-99125000D01*
G75*
G02*
X199060000Y-98875001I0J249999D01*
G01*
G37*
G36*
G01*
X201060000Y-98875001D02*
X201060000Y-97974999D01*
G75*
G02*
X201309999Y-97725000I249999J0D01*
G01*
X202010001Y-97725000D01*
G75*
G02*
X202260000Y-97974999I0J-249999D01*
G01*
X202260000Y-98875001D01*
G75*
G02*
X202010001Y-99125000I-249999J0D01*
G01*
X201309999Y-99125000D01*
G75*
G02*
X201060000Y-98875001I0J249999D01*
G01*
G37*
G36*
G01*
X206775000Y-109670001D02*
X206775000Y-108769999D01*
G75*
G02*
X207024999Y-108520000I249999J0D01*
G01*
X207725001Y-108520000D01*
G75*
G02*
X207975000Y-108769999I0J-249999D01*
G01*
X207975000Y-109670001D01*
G75*
G02*
X207725001Y-109920000I-249999J0D01*
G01*
X207024999Y-109920000D01*
G75*
G02*
X206775000Y-109670001I0J249999D01*
G01*
G37*
G36*
G01*
X204775000Y-109670001D02*
X204775000Y-108769999D01*
G75*
G02*
X205024999Y-108520000I249999J0D01*
G01*
X205725001Y-108520000D01*
G75*
G02*
X205975000Y-108769999I0J-249999D01*
G01*
X205975000Y-109670001D01*
G75*
G02*
X205725001Y-109920000I-249999J0D01*
G01*
X205024999Y-109920000D01*
G75*
G02*
X204775000Y-109670001I0J249999D01*
G01*
G37*
G36*
G01*
X199060000Y-109670001D02*
X199060000Y-108769999D01*
G75*
G02*
X199309999Y-108520000I249999J0D01*
G01*
X200010001Y-108520000D01*
G75*
G02*
X200260000Y-108769999I0J-249999D01*
G01*
X200260000Y-109670001D01*
G75*
G02*
X200010001Y-109920000I-249999J0D01*
G01*
X199309999Y-109920000D01*
G75*
G02*
X199060000Y-109670001I0J249999D01*
G01*
G37*
G36*
G01*
X201060000Y-109670001D02*
X201060000Y-108769999D01*
G75*
G02*
X201309999Y-108520000I249999J0D01*
G01*
X202010001Y-108520000D01*
G75*
G02*
X202260000Y-108769999I0J-249999D01*
G01*
X202260000Y-109670001D01*
G75*
G02*
X202010001Y-109920000I-249999J0D01*
G01*
X201309999Y-109920000D01*
G75*
G02*
X201060000Y-109670001I0J249999D01*
G01*
G37*
G36*
G01*
X204775000Y-120465001D02*
X204775000Y-119564999D01*
G75*
G02*
X205024999Y-119315000I249999J0D01*
G01*
X205725001Y-119315000D01*
G75*
G02*
X205975000Y-119564999I0J-249999D01*
G01*
X205975000Y-120465001D01*
G75*
G02*
X205725001Y-120715000I-249999J0D01*
G01*
X205024999Y-120715000D01*
G75*
G02*
X204775000Y-120465001I0J249999D01*
G01*
G37*
G36*
G01*
X206775000Y-120465001D02*
X206775000Y-119564999D01*
G75*
G02*
X207024999Y-119315000I249999J0D01*
G01*
X207725001Y-119315000D01*
G75*
G02*
X207975000Y-119564999I0J-249999D01*
G01*
X207975000Y-120465001D01*
G75*
G02*
X207725001Y-120715000I-249999J0D01*
G01*
X207024999Y-120715000D01*
G75*
G02*
X206775000Y-120465001I0J249999D01*
G01*
G37*
G36*
G01*
X201060000Y-120465001D02*
X201060000Y-119564999D01*
G75*
G02*
X201309999Y-119315000I249999J0D01*
G01*
X202010001Y-119315000D01*
G75*
G02*
X202260000Y-119564999I0J-249999D01*
G01*
X202260000Y-120465001D01*
G75*
G02*
X202010001Y-120715000I-249999J0D01*
G01*
X201309999Y-120715000D01*
G75*
G02*
X201060000Y-120465001I0J249999D01*
G01*
G37*
G36*
G01*
X199060000Y-120465001D02*
X199060000Y-119564999D01*
G75*
G02*
X199309999Y-119315000I249999J0D01*
G01*
X200010001Y-119315000D01*
G75*
G02*
X200260000Y-119564999I0J-249999D01*
G01*
X200260000Y-120465001D01*
G75*
G02*
X200010001Y-120715000I-249999J0D01*
G01*
X199309999Y-120715000D01*
G75*
G02*
X199060000Y-120465001I0J249999D01*
G01*
G37*
G36*
G01*
X218680000Y-71940000D02*
X218680000Y-71570000D01*
G75*
G02*
X218815000Y-71435000I135000J0D01*
G01*
X219085000Y-71435000D01*
G75*
G02*
X219220000Y-71570000I0J-135000D01*
G01*
X219220000Y-71940000D01*
G75*
G02*
X219085000Y-72075000I-135000J0D01*
G01*
X218815000Y-72075000D01*
G75*
G02*
X218680000Y-71940000I0J135000D01*
G01*
G37*
G36*
G01*
X217660000Y-71940000D02*
X217660000Y-71570000D01*
G75*
G02*
X217795000Y-71435000I135000J0D01*
G01*
X218065000Y-71435000D01*
G75*
G02*
X218200000Y-71570000I0J-135000D01*
G01*
X218200000Y-71940000D01*
G75*
G02*
X218065000Y-72075000I-135000J0D01*
G01*
X217795000Y-72075000D01*
G75*
G02*
X217660000Y-71940000I0J135000D01*
G01*
G37*
G36*
G01*
X213977000Y-71940000D02*
X213977000Y-71570000D01*
G75*
G02*
X214112000Y-71435000I135000J0D01*
G01*
X214382000Y-71435000D01*
G75*
G02*
X214517000Y-71570000I0J-135000D01*
G01*
X214517000Y-71940000D01*
G75*
G02*
X214382000Y-72075000I-135000J0D01*
G01*
X214112000Y-72075000D01*
G75*
G02*
X213977000Y-71940000I0J135000D01*
G01*
G37*
G36*
G01*
X214997000Y-71940000D02*
X214997000Y-71570000D01*
G75*
G02*
X215132000Y-71435000I135000J0D01*
G01*
X215402000Y-71435000D01*
G75*
G02*
X215537000Y-71570000I0J-135000D01*
G01*
X215537000Y-71940000D01*
G75*
G02*
X215402000Y-72075000I-135000J0D01*
G01*
X215132000Y-72075000D01*
G75*
G02*
X214997000Y-71940000I0J135000D01*
G01*
G37*
G36*
G01*
X169145000Y-87179999D02*
X169145000Y-88080001D01*
G75*
G02*
X168895001Y-88330000I-249999J0D01*
G01*
X168194999Y-88330000D01*
G75*
G02*
X167945000Y-88080001I0J249999D01*
G01*
X167945000Y-87179999D01*
G75*
G02*
X168194999Y-86930000I249999J0D01*
G01*
X168895001Y-86930000D01*
G75*
G02*
X169145000Y-87179999I0J-249999D01*
G01*
G37*
G36*
G01*
X171145000Y-87179999D02*
X171145000Y-88080001D01*
G75*
G02*
X170895001Y-88330000I-249999J0D01*
G01*
X170194999Y-88330000D01*
G75*
G02*
X169945000Y-88080001I0J249999D01*
G01*
X169945000Y-87179999D01*
G75*
G02*
X170194999Y-86930000I249999J0D01*
G01*
X170895001Y-86930000D01*
G75*
G02*
X171145000Y-87179999I0J-249999D01*
G01*
G37*
G36*
G01*
X183566000Y-75634001D02*
X183566000Y-74733999D01*
G75*
G02*
X183815999Y-74484000I249999J0D01*
G01*
X184516001Y-74484000D01*
G75*
G02*
X184766000Y-74733999I0J-249999D01*
G01*
X184766000Y-75634001D01*
G75*
G02*
X184516001Y-75884000I-249999J0D01*
G01*
X183815999Y-75884000D01*
G75*
G02*
X183566000Y-75634001I0J249999D01*
G01*
G37*
G36*
G01*
X185566000Y-75634001D02*
X185566000Y-74733999D01*
G75*
G02*
X185815999Y-74484000I249999J0D01*
G01*
X186516001Y-74484000D01*
G75*
G02*
X186766000Y-74733999I0J-249999D01*
G01*
X186766000Y-75634001D01*
G75*
G02*
X186516001Y-75884000I-249999J0D01*
G01*
X185815999Y-75884000D01*
G75*
G02*
X185566000Y-75634001I0J249999D01*
G01*
G37*
G36*
G01*
X183755000Y-71940000D02*
X183755000Y-71570000D01*
G75*
G02*
X183890000Y-71435000I135000J0D01*
G01*
X184160000Y-71435000D01*
G75*
G02*
X184295000Y-71570000I0J-135000D01*
G01*
X184295000Y-71940000D01*
G75*
G02*
X184160000Y-72075000I-135000J0D01*
G01*
X183890000Y-72075000D01*
G75*
G02*
X183755000Y-71940000I0J135000D01*
G01*
G37*
G36*
G01*
X182735000Y-71940000D02*
X182735000Y-71570000D01*
G75*
G02*
X182870000Y-71435000I135000J0D01*
G01*
X183140000Y-71435000D01*
G75*
G02*
X183275000Y-71570000I0J-135000D01*
G01*
X183275000Y-71940000D01*
G75*
G02*
X183140000Y-72075000I-135000J0D01*
G01*
X182870000Y-72075000D01*
G75*
G02*
X182735000Y-71940000I0J135000D01*
G01*
G37*
G36*
G01*
X179052000Y-71940000D02*
X179052000Y-71570000D01*
G75*
G02*
X179187000Y-71435000I135000J0D01*
G01*
X179457000Y-71435000D01*
G75*
G02*
X179592000Y-71570000I0J-135000D01*
G01*
X179592000Y-71940000D01*
G75*
G02*
X179457000Y-72075000I-135000J0D01*
G01*
X179187000Y-72075000D01*
G75*
G02*
X179052000Y-71940000I0J135000D01*
G01*
G37*
G36*
G01*
X180072000Y-71940000D02*
X180072000Y-71570000D01*
G75*
G02*
X180207000Y-71435000I135000J0D01*
G01*
X180477000Y-71435000D01*
G75*
G02*
X180612000Y-71570000I0J-135000D01*
G01*
X180612000Y-71940000D01*
G75*
G02*
X180477000Y-72075000I-135000J0D01*
G01*
X180207000Y-72075000D01*
G75*
G02*
X180072000Y-71940000I0J135000D01*
G01*
G37*
G36*
G01*
X219564000Y-78543999D02*
X219564000Y-79444001D01*
G75*
G02*
X219314001Y-79694000I-249999J0D01*
G01*
X218613999Y-79694000D01*
G75*
G02*
X218364000Y-79444001I0J249999D01*
G01*
X218364000Y-78543999D01*
G75*
G02*
X218613999Y-78294000I249999J0D01*
G01*
X219314001Y-78294000D01*
G75*
G02*
X219564000Y-78543999I0J-249999D01*
G01*
G37*
G36*
G01*
X221564000Y-78543999D02*
X221564000Y-79444001D01*
G75*
G02*
X221314001Y-79694000I-249999J0D01*
G01*
X220613999Y-79694000D01*
G75*
G02*
X220364000Y-79444001I0J249999D01*
G01*
X220364000Y-78543999D01*
G75*
G02*
X220613999Y-78294000I249999J0D01*
G01*
X221314001Y-78294000D01*
G75*
G02*
X221564000Y-78543999I0J-249999D01*
G01*
G37*
G36*
G01*
X186766000Y-78543999D02*
X186766000Y-79444001D01*
G75*
G02*
X186516001Y-79694000I-249999J0D01*
G01*
X185815999Y-79694000D01*
G75*
G02*
X185566000Y-79444001I0J249999D01*
G01*
X185566000Y-78543999D01*
G75*
G02*
X185815999Y-78294000I249999J0D01*
G01*
X186516001Y-78294000D01*
G75*
G02*
X186766000Y-78543999I0J-249999D01*
G01*
G37*
G36*
G01*
X184766000Y-78543999D02*
X184766000Y-79444001D01*
G75*
G02*
X184516001Y-79694000I-249999J0D01*
G01*
X183815999Y-79694000D01*
G75*
G02*
X183566000Y-79444001I0J249999D01*
G01*
X183566000Y-78543999D01*
G75*
G02*
X183815999Y-78294000I249999J0D01*
G01*
X184516001Y-78294000D01*
G75*
G02*
X184766000Y-78543999I0J-249999D01*
G01*
G37*
D16*
X182085000Y-116840000D03*
X187485000Y-116840000D03*
G36*
G01*
X138790000Y-108735000D02*
X138790000Y-108435000D01*
G75*
G02*
X138940000Y-108285000I150000J0D01*
G01*
X140590000Y-108285000D01*
G75*
G02*
X140740000Y-108435000I0J-150000D01*
G01*
X140740000Y-108735000D01*
G75*
G02*
X140590000Y-108885000I-150000J0D01*
G01*
X138940000Y-108885000D01*
G75*
G02*
X138790000Y-108735000I0J150000D01*
G01*
G37*
G36*
G01*
X138790000Y-110005000D02*
X138790000Y-109705000D01*
G75*
G02*
X138940000Y-109555000I150000J0D01*
G01*
X140590000Y-109555000D01*
G75*
G02*
X140740000Y-109705000I0J-150000D01*
G01*
X140740000Y-110005000D01*
G75*
G02*
X140590000Y-110155000I-150000J0D01*
G01*
X138940000Y-110155000D01*
G75*
G02*
X138790000Y-110005000I0J150000D01*
G01*
G37*
G36*
G01*
X138790000Y-111275000D02*
X138790000Y-110975000D01*
G75*
G02*
X138940000Y-110825000I150000J0D01*
G01*
X140590000Y-110825000D01*
G75*
G02*
X140740000Y-110975000I0J-150000D01*
G01*
X140740000Y-111275000D01*
G75*
G02*
X140590000Y-111425000I-150000J0D01*
G01*
X138940000Y-111425000D01*
G75*
G02*
X138790000Y-111275000I0J150000D01*
G01*
G37*
G36*
G01*
X138790000Y-112545000D02*
X138790000Y-112245000D01*
G75*
G02*
X138940000Y-112095000I150000J0D01*
G01*
X140590000Y-112095000D01*
G75*
G02*
X140740000Y-112245000I0J-150000D01*
G01*
X140740000Y-112545000D01*
G75*
G02*
X140590000Y-112695000I-150000J0D01*
G01*
X138940000Y-112695000D01*
G75*
G02*
X138790000Y-112545000I0J150000D01*
G01*
G37*
G36*
G01*
X138790000Y-113815000D02*
X138790000Y-113515000D01*
G75*
G02*
X138940000Y-113365000I150000J0D01*
G01*
X140590000Y-113365000D01*
G75*
G02*
X140740000Y-113515000I0J-150000D01*
G01*
X140740000Y-113815000D01*
G75*
G02*
X140590000Y-113965000I-150000J0D01*
G01*
X138940000Y-113965000D01*
G75*
G02*
X138790000Y-113815000I0J150000D01*
G01*
G37*
G36*
G01*
X138790000Y-115085000D02*
X138790000Y-114785000D01*
G75*
G02*
X138940000Y-114635000I150000J0D01*
G01*
X140590000Y-114635000D01*
G75*
G02*
X140740000Y-114785000I0J-150000D01*
G01*
X140740000Y-115085000D01*
G75*
G02*
X140590000Y-115235000I-150000J0D01*
G01*
X138940000Y-115235000D01*
G75*
G02*
X138790000Y-115085000I0J150000D01*
G01*
G37*
G36*
G01*
X138790000Y-116355000D02*
X138790000Y-116055000D01*
G75*
G02*
X138940000Y-115905000I150000J0D01*
G01*
X140590000Y-115905000D01*
G75*
G02*
X140740000Y-116055000I0J-150000D01*
G01*
X140740000Y-116355000D01*
G75*
G02*
X140590000Y-116505000I-150000J0D01*
G01*
X138940000Y-116505000D01*
G75*
G02*
X138790000Y-116355000I0J150000D01*
G01*
G37*
G36*
G01*
X143740000Y-116355000D02*
X143740000Y-116055000D01*
G75*
G02*
X143890000Y-115905000I150000J0D01*
G01*
X145540000Y-115905000D01*
G75*
G02*
X145690000Y-116055000I0J-150000D01*
G01*
X145690000Y-116355000D01*
G75*
G02*
X145540000Y-116505000I-150000J0D01*
G01*
X143890000Y-116505000D01*
G75*
G02*
X143740000Y-116355000I0J150000D01*
G01*
G37*
G36*
G01*
X143740000Y-115085000D02*
X143740000Y-114785000D01*
G75*
G02*
X143890000Y-114635000I150000J0D01*
G01*
X145540000Y-114635000D01*
G75*
G02*
X145690000Y-114785000I0J-150000D01*
G01*
X145690000Y-115085000D01*
G75*
G02*
X145540000Y-115235000I-150000J0D01*
G01*
X143890000Y-115235000D01*
G75*
G02*
X143740000Y-115085000I0J150000D01*
G01*
G37*
G36*
G01*
X143740000Y-113815000D02*
X143740000Y-113515000D01*
G75*
G02*
X143890000Y-113365000I150000J0D01*
G01*
X145540000Y-113365000D01*
G75*
G02*
X145690000Y-113515000I0J-150000D01*
G01*
X145690000Y-113815000D01*
G75*
G02*
X145540000Y-113965000I-150000J0D01*
G01*
X143890000Y-113965000D01*
G75*
G02*
X143740000Y-113815000I0J150000D01*
G01*
G37*
G36*
G01*
X143740000Y-112545000D02*
X143740000Y-112245000D01*
G75*
G02*
X143890000Y-112095000I150000J0D01*
G01*
X145540000Y-112095000D01*
G75*
G02*
X145690000Y-112245000I0J-150000D01*
G01*
X145690000Y-112545000D01*
G75*
G02*
X145540000Y-112695000I-150000J0D01*
G01*
X143890000Y-112695000D01*
G75*
G02*
X143740000Y-112545000I0J150000D01*
G01*
G37*
G36*
G01*
X143740000Y-111275000D02*
X143740000Y-110975000D01*
G75*
G02*
X143890000Y-110825000I150000J0D01*
G01*
X145540000Y-110825000D01*
G75*
G02*
X145690000Y-110975000I0J-150000D01*
G01*
X145690000Y-111275000D01*
G75*
G02*
X145540000Y-111425000I-150000J0D01*
G01*
X143890000Y-111425000D01*
G75*
G02*
X143740000Y-111275000I0J150000D01*
G01*
G37*
G36*
G01*
X143740000Y-110005000D02*
X143740000Y-109705000D01*
G75*
G02*
X143890000Y-109555000I150000J0D01*
G01*
X145540000Y-109555000D01*
G75*
G02*
X145690000Y-109705000I0J-150000D01*
G01*
X145690000Y-110005000D01*
G75*
G02*
X145540000Y-110155000I-150000J0D01*
G01*
X143890000Y-110155000D01*
G75*
G02*
X143740000Y-110005000I0J150000D01*
G01*
G37*
G36*
G01*
X143740000Y-108735000D02*
X143740000Y-108435000D01*
G75*
G02*
X143890000Y-108285000I150000J0D01*
G01*
X145540000Y-108285000D01*
G75*
G02*
X145690000Y-108435000I0J-150000D01*
G01*
X145690000Y-108735000D01*
G75*
G02*
X145540000Y-108885000I-150000J0D01*
G01*
X143890000Y-108885000D01*
G75*
G02*
X143740000Y-108735000I0J150000D01*
G01*
G37*
G36*
G01*
X171585000Y-113210000D02*
X171735000Y-113210000D01*
G75*
G02*
X171810000Y-113285000I0J-75000D01*
G01*
X171810000Y-114610000D01*
G75*
G02*
X171735000Y-114685000I-75000J0D01*
G01*
X171585000Y-114685000D01*
G75*
G02*
X171510000Y-114610000I0J75000D01*
G01*
X171510000Y-113285000D01*
G75*
G02*
X171585000Y-113210000I75000J0D01*
G01*
G37*
G36*
G01*
X171085000Y-113210000D02*
X171235000Y-113210000D01*
G75*
G02*
X171310000Y-113285000I0J-75000D01*
G01*
X171310000Y-114610000D01*
G75*
G02*
X171235000Y-114685000I-75000J0D01*
G01*
X171085000Y-114685000D01*
G75*
G02*
X171010000Y-114610000I0J75000D01*
G01*
X171010000Y-113285000D01*
G75*
G02*
X171085000Y-113210000I75000J0D01*
G01*
G37*
G36*
G01*
X170585000Y-113210000D02*
X170735000Y-113210000D01*
G75*
G02*
X170810000Y-113285000I0J-75000D01*
G01*
X170810000Y-114610000D01*
G75*
G02*
X170735000Y-114685000I-75000J0D01*
G01*
X170585000Y-114685000D01*
G75*
G02*
X170510000Y-114610000I0J75000D01*
G01*
X170510000Y-113285000D01*
G75*
G02*
X170585000Y-113210000I75000J0D01*
G01*
G37*
G36*
G01*
X170085000Y-113210000D02*
X170235000Y-113210000D01*
G75*
G02*
X170310000Y-113285000I0J-75000D01*
G01*
X170310000Y-114610000D01*
G75*
G02*
X170235000Y-114685000I-75000J0D01*
G01*
X170085000Y-114685000D01*
G75*
G02*
X170010000Y-114610000I0J75000D01*
G01*
X170010000Y-113285000D01*
G75*
G02*
X170085000Y-113210000I75000J0D01*
G01*
G37*
G36*
G01*
X169585000Y-113210000D02*
X169735000Y-113210000D01*
G75*
G02*
X169810000Y-113285000I0J-75000D01*
G01*
X169810000Y-114610000D01*
G75*
G02*
X169735000Y-114685000I-75000J0D01*
G01*
X169585000Y-114685000D01*
G75*
G02*
X169510000Y-114610000I0J75000D01*
G01*
X169510000Y-113285000D01*
G75*
G02*
X169585000Y-113210000I75000J0D01*
G01*
G37*
G36*
G01*
X169085000Y-113210000D02*
X169235000Y-113210000D01*
G75*
G02*
X169310000Y-113285000I0J-75000D01*
G01*
X169310000Y-114610000D01*
G75*
G02*
X169235000Y-114685000I-75000J0D01*
G01*
X169085000Y-114685000D01*
G75*
G02*
X169010000Y-114610000I0J75000D01*
G01*
X169010000Y-113285000D01*
G75*
G02*
X169085000Y-113210000I75000J0D01*
G01*
G37*
G36*
G01*
X168585000Y-113210000D02*
X168735000Y-113210000D01*
G75*
G02*
X168810000Y-113285000I0J-75000D01*
G01*
X168810000Y-114610000D01*
G75*
G02*
X168735000Y-114685000I-75000J0D01*
G01*
X168585000Y-114685000D01*
G75*
G02*
X168510000Y-114610000I0J75000D01*
G01*
X168510000Y-113285000D01*
G75*
G02*
X168585000Y-113210000I75000J0D01*
G01*
G37*
G36*
G01*
X168085000Y-113210000D02*
X168235000Y-113210000D01*
G75*
G02*
X168310000Y-113285000I0J-75000D01*
G01*
X168310000Y-114610000D01*
G75*
G02*
X168235000Y-114685000I-75000J0D01*
G01*
X168085000Y-114685000D01*
G75*
G02*
X168010000Y-114610000I0J75000D01*
G01*
X168010000Y-113285000D01*
G75*
G02*
X168085000Y-113210000I75000J0D01*
G01*
G37*
G36*
G01*
X167585000Y-113210000D02*
X167735000Y-113210000D01*
G75*
G02*
X167810000Y-113285000I0J-75000D01*
G01*
X167810000Y-114610000D01*
G75*
G02*
X167735000Y-114685000I-75000J0D01*
G01*
X167585000Y-114685000D01*
G75*
G02*
X167510000Y-114610000I0J75000D01*
G01*
X167510000Y-113285000D01*
G75*
G02*
X167585000Y-113210000I75000J0D01*
G01*
G37*
G36*
G01*
X167085000Y-113210000D02*
X167235000Y-113210000D01*
G75*
G02*
X167310000Y-113285000I0J-75000D01*
G01*
X167310000Y-114610000D01*
G75*
G02*
X167235000Y-114685000I-75000J0D01*
G01*
X167085000Y-114685000D01*
G75*
G02*
X167010000Y-114610000I0J75000D01*
G01*
X167010000Y-113285000D01*
G75*
G02*
X167085000Y-113210000I75000J0D01*
G01*
G37*
G36*
G01*
X166585000Y-113210000D02*
X166735000Y-113210000D01*
G75*
G02*
X166810000Y-113285000I0J-75000D01*
G01*
X166810000Y-114610000D01*
G75*
G02*
X166735000Y-114685000I-75000J0D01*
G01*
X166585000Y-114685000D01*
G75*
G02*
X166510000Y-114610000I0J75000D01*
G01*
X166510000Y-113285000D01*
G75*
G02*
X166585000Y-113210000I75000J0D01*
G01*
G37*
G36*
G01*
X166085000Y-113210000D02*
X166235000Y-113210000D01*
G75*
G02*
X166310000Y-113285000I0J-75000D01*
G01*
X166310000Y-114610000D01*
G75*
G02*
X166235000Y-114685000I-75000J0D01*
G01*
X166085000Y-114685000D01*
G75*
G02*
X166010000Y-114610000I0J75000D01*
G01*
X166010000Y-113285000D01*
G75*
G02*
X166085000Y-113210000I75000J0D01*
G01*
G37*
G36*
G01*
X164085000Y-115210000D02*
X165410000Y-115210000D01*
G75*
G02*
X165485000Y-115285000I0J-75000D01*
G01*
X165485000Y-115435000D01*
G75*
G02*
X165410000Y-115510000I-75000J0D01*
G01*
X164085000Y-115510000D01*
G75*
G02*
X164010000Y-115435000I0J75000D01*
G01*
X164010000Y-115285000D01*
G75*
G02*
X164085000Y-115210000I75000J0D01*
G01*
G37*
G36*
G01*
X164085000Y-115710000D02*
X165410000Y-115710000D01*
G75*
G02*
X165485000Y-115785000I0J-75000D01*
G01*
X165485000Y-115935000D01*
G75*
G02*
X165410000Y-116010000I-75000J0D01*
G01*
X164085000Y-116010000D01*
G75*
G02*
X164010000Y-115935000I0J75000D01*
G01*
X164010000Y-115785000D01*
G75*
G02*
X164085000Y-115710000I75000J0D01*
G01*
G37*
G36*
G01*
X164085000Y-116210000D02*
X165410000Y-116210000D01*
G75*
G02*
X165485000Y-116285000I0J-75000D01*
G01*
X165485000Y-116435000D01*
G75*
G02*
X165410000Y-116510000I-75000J0D01*
G01*
X164085000Y-116510000D01*
G75*
G02*
X164010000Y-116435000I0J75000D01*
G01*
X164010000Y-116285000D01*
G75*
G02*
X164085000Y-116210000I75000J0D01*
G01*
G37*
G36*
G01*
X164085000Y-116710000D02*
X165410000Y-116710000D01*
G75*
G02*
X165485000Y-116785000I0J-75000D01*
G01*
X165485000Y-116935000D01*
G75*
G02*
X165410000Y-117010000I-75000J0D01*
G01*
X164085000Y-117010000D01*
G75*
G02*
X164010000Y-116935000I0J75000D01*
G01*
X164010000Y-116785000D01*
G75*
G02*
X164085000Y-116710000I75000J0D01*
G01*
G37*
G36*
G01*
X164085000Y-117210000D02*
X165410000Y-117210000D01*
G75*
G02*
X165485000Y-117285000I0J-75000D01*
G01*
X165485000Y-117435000D01*
G75*
G02*
X165410000Y-117510000I-75000J0D01*
G01*
X164085000Y-117510000D01*
G75*
G02*
X164010000Y-117435000I0J75000D01*
G01*
X164010000Y-117285000D01*
G75*
G02*
X164085000Y-117210000I75000J0D01*
G01*
G37*
G36*
G01*
X164085000Y-117710000D02*
X165410000Y-117710000D01*
G75*
G02*
X165485000Y-117785000I0J-75000D01*
G01*
X165485000Y-117935000D01*
G75*
G02*
X165410000Y-118010000I-75000J0D01*
G01*
X164085000Y-118010000D01*
G75*
G02*
X164010000Y-117935000I0J75000D01*
G01*
X164010000Y-117785000D01*
G75*
G02*
X164085000Y-117710000I75000J0D01*
G01*
G37*
G36*
G01*
X164085000Y-118210000D02*
X165410000Y-118210000D01*
G75*
G02*
X165485000Y-118285000I0J-75000D01*
G01*
X165485000Y-118435000D01*
G75*
G02*
X165410000Y-118510000I-75000J0D01*
G01*
X164085000Y-118510000D01*
G75*
G02*
X164010000Y-118435000I0J75000D01*
G01*
X164010000Y-118285000D01*
G75*
G02*
X164085000Y-118210000I75000J0D01*
G01*
G37*
G36*
G01*
X164085000Y-118710000D02*
X165410000Y-118710000D01*
G75*
G02*
X165485000Y-118785000I0J-75000D01*
G01*
X165485000Y-118935000D01*
G75*
G02*
X165410000Y-119010000I-75000J0D01*
G01*
X164085000Y-119010000D01*
G75*
G02*
X164010000Y-118935000I0J75000D01*
G01*
X164010000Y-118785000D01*
G75*
G02*
X164085000Y-118710000I75000J0D01*
G01*
G37*
G36*
G01*
X164085000Y-119210000D02*
X165410000Y-119210000D01*
G75*
G02*
X165485000Y-119285000I0J-75000D01*
G01*
X165485000Y-119435000D01*
G75*
G02*
X165410000Y-119510000I-75000J0D01*
G01*
X164085000Y-119510000D01*
G75*
G02*
X164010000Y-119435000I0J75000D01*
G01*
X164010000Y-119285000D01*
G75*
G02*
X164085000Y-119210000I75000J0D01*
G01*
G37*
G36*
G01*
X164085000Y-119710000D02*
X165410000Y-119710000D01*
G75*
G02*
X165485000Y-119785000I0J-75000D01*
G01*
X165485000Y-119935000D01*
G75*
G02*
X165410000Y-120010000I-75000J0D01*
G01*
X164085000Y-120010000D01*
G75*
G02*
X164010000Y-119935000I0J75000D01*
G01*
X164010000Y-119785000D01*
G75*
G02*
X164085000Y-119710000I75000J0D01*
G01*
G37*
G36*
G01*
X164085000Y-120210000D02*
X165410000Y-120210000D01*
G75*
G02*
X165485000Y-120285000I0J-75000D01*
G01*
X165485000Y-120435000D01*
G75*
G02*
X165410000Y-120510000I-75000J0D01*
G01*
X164085000Y-120510000D01*
G75*
G02*
X164010000Y-120435000I0J75000D01*
G01*
X164010000Y-120285000D01*
G75*
G02*
X164085000Y-120210000I75000J0D01*
G01*
G37*
G36*
G01*
X164085000Y-120710000D02*
X165410000Y-120710000D01*
G75*
G02*
X165485000Y-120785000I0J-75000D01*
G01*
X165485000Y-120935000D01*
G75*
G02*
X165410000Y-121010000I-75000J0D01*
G01*
X164085000Y-121010000D01*
G75*
G02*
X164010000Y-120935000I0J75000D01*
G01*
X164010000Y-120785000D01*
G75*
G02*
X164085000Y-120710000I75000J0D01*
G01*
G37*
G36*
G01*
X166085000Y-121535000D02*
X166235000Y-121535000D01*
G75*
G02*
X166310000Y-121610000I0J-75000D01*
G01*
X166310000Y-122935000D01*
G75*
G02*
X166235000Y-123010000I-75000J0D01*
G01*
X166085000Y-123010000D01*
G75*
G02*
X166010000Y-122935000I0J75000D01*
G01*
X166010000Y-121610000D01*
G75*
G02*
X166085000Y-121535000I75000J0D01*
G01*
G37*
G36*
G01*
X166585000Y-121535000D02*
X166735000Y-121535000D01*
G75*
G02*
X166810000Y-121610000I0J-75000D01*
G01*
X166810000Y-122935000D01*
G75*
G02*
X166735000Y-123010000I-75000J0D01*
G01*
X166585000Y-123010000D01*
G75*
G02*
X166510000Y-122935000I0J75000D01*
G01*
X166510000Y-121610000D01*
G75*
G02*
X166585000Y-121535000I75000J0D01*
G01*
G37*
G36*
G01*
X167085000Y-121535000D02*
X167235000Y-121535000D01*
G75*
G02*
X167310000Y-121610000I0J-75000D01*
G01*
X167310000Y-122935000D01*
G75*
G02*
X167235000Y-123010000I-75000J0D01*
G01*
X167085000Y-123010000D01*
G75*
G02*
X167010000Y-122935000I0J75000D01*
G01*
X167010000Y-121610000D01*
G75*
G02*
X167085000Y-121535000I75000J0D01*
G01*
G37*
G36*
G01*
X167585000Y-121535000D02*
X167735000Y-121535000D01*
G75*
G02*
X167810000Y-121610000I0J-75000D01*
G01*
X167810000Y-122935000D01*
G75*
G02*
X167735000Y-123010000I-75000J0D01*
G01*
X167585000Y-123010000D01*
G75*
G02*
X167510000Y-122935000I0J75000D01*
G01*
X167510000Y-121610000D01*
G75*
G02*
X167585000Y-121535000I75000J0D01*
G01*
G37*
G36*
G01*
X168085000Y-121535000D02*
X168235000Y-121535000D01*
G75*
G02*
X168310000Y-121610000I0J-75000D01*
G01*
X168310000Y-122935000D01*
G75*
G02*
X168235000Y-123010000I-75000J0D01*
G01*
X168085000Y-123010000D01*
G75*
G02*
X168010000Y-122935000I0J75000D01*
G01*
X168010000Y-121610000D01*
G75*
G02*
X168085000Y-121535000I75000J0D01*
G01*
G37*
G36*
G01*
X168585000Y-121535000D02*
X168735000Y-121535000D01*
G75*
G02*
X168810000Y-121610000I0J-75000D01*
G01*
X168810000Y-122935000D01*
G75*
G02*
X168735000Y-123010000I-75000J0D01*
G01*
X168585000Y-123010000D01*
G75*
G02*
X168510000Y-122935000I0J75000D01*
G01*
X168510000Y-121610000D01*
G75*
G02*
X168585000Y-121535000I75000J0D01*
G01*
G37*
G36*
G01*
X169085000Y-121535000D02*
X169235000Y-121535000D01*
G75*
G02*
X169310000Y-121610000I0J-75000D01*
G01*
X169310000Y-122935000D01*
G75*
G02*
X169235000Y-123010000I-75000J0D01*
G01*
X169085000Y-123010000D01*
G75*
G02*
X169010000Y-122935000I0J75000D01*
G01*
X169010000Y-121610000D01*
G75*
G02*
X169085000Y-121535000I75000J0D01*
G01*
G37*
G36*
G01*
X169585000Y-121535000D02*
X169735000Y-121535000D01*
G75*
G02*
X169810000Y-121610000I0J-75000D01*
G01*
X169810000Y-122935000D01*
G75*
G02*
X169735000Y-123010000I-75000J0D01*
G01*
X169585000Y-123010000D01*
G75*
G02*
X169510000Y-122935000I0J75000D01*
G01*
X169510000Y-121610000D01*
G75*
G02*
X169585000Y-121535000I75000J0D01*
G01*
G37*
G36*
G01*
X170085000Y-121535000D02*
X170235000Y-121535000D01*
G75*
G02*
X170310000Y-121610000I0J-75000D01*
G01*
X170310000Y-122935000D01*
G75*
G02*
X170235000Y-123010000I-75000J0D01*
G01*
X170085000Y-123010000D01*
G75*
G02*
X170010000Y-122935000I0J75000D01*
G01*
X170010000Y-121610000D01*
G75*
G02*
X170085000Y-121535000I75000J0D01*
G01*
G37*
G36*
G01*
X170585000Y-121535000D02*
X170735000Y-121535000D01*
G75*
G02*
X170810000Y-121610000I0J-75000D01*
G01*
X170810000Y-122935000D01*
G75*
G02*
X170735000Y-123010000I-75000J0D01*
G01*
X170585000Y-123010000D01*
G75*
G02*
X170510000Y-122935000I0J75000D01*
G01*
X170510000Y-121610000D01*
G75*
G02*
X170585000Y-121535000I75000J0D01*
G01*
G37*
G36*
G01*
X171085000Y-121535000D02*
X171235000Y-121535000D01*
G75*
G02*
X171310000Y-121610000I0J-75000D01*
G01*
X171310000Y-122935000D01*
G75*
G02*
X171235000Y-123010000I-75000J0D01*
G01*
X171085000Y-123010000D01*
G75*
G02*
X171010000Y-122935000I0J75000D01*
G01*
X171010000Y-121610000D01*
G75*
G02*
X171085000Y-121535000I75000J0D01*
G01*
G37*
G36*
G01*
X171585000Y-121535000D02*
X171735000Y-121535000D01*
G75*
G02*
X171810000Y-121610000I0J-75000D01*
G01*
X171810000Y-122935000D01*
G75*
G02*
X171735000Y-123010000I-75000J0D01*
G01*
X171585000Y-123010000D01*
G75*
G02*
X171510000Y-122935000I0J75000D01*
G01*
X171510000Y-121610000D01*
G75*
G02*
X171585000Y-121535000I75000J0D01*
G01*
G37*
G36*
G01*
X172410000Y-120710000D02*
X173735000Y-120710000D01*
G75*
G02*
X173810000Y-120785000I0J-75000D01*
G01*
X173810000Y-120935000D01*
G75*
G02*
X173735000Y-121010000I-75000J0D01*
G01*
X172410000Y-121010000D01*
G75*
G02*
X172335000Y-120935000I0J75000D01*
G01*
X172335000Y-120785000D01*
G75*
G02*
X172410000Y-120710000I75000J0D01*
G01*
G37*
G36*
G01*
X172410000Y-120210000D02*
X173735000Y-120210000D01*
G75*
G02*
X173810000Y-120285000I0J-75000D01*
G01*
X173810000Y-120435000D01*
G75*
G02*
X173735000Y-120510000I-75000J0D01*
G01*
X172410000Y-120510000D01*
G75*
G02*
X172335000Y-120435000I0J75000D01*
G01*
X172335000Y-120285000D01*
G75*
G02*
X172410000Y-120210000I75000J0D01*
G01*
G37*
G36*
G01*
X172410000Y-119710000D02*
X173735000Y-119710000D01*
G75*
G02*
X173810000Y-119785000I0J-75000D01*
G01*
X173810000Y-119935000D01*
G75*
G02*
X173735000Y-120010000I-75000J0D01*
G01*
X172410000Y-120010000D01*
G75*
G02*
X172335000Y-119935000I0J75000D01*
G01*
X172335000Y-119785000D01*
G75*
G02*
X172410000Y-119710000I75000J0D01*
G01*
G37*
G36*
G01*
X172410000Y-119210000D02*
X173735000Y-119210000D01*
G75*
G02*
X173810000Y-119285000I0J-75000D01*
G01*
X173810000Y-119435000D01*
G75*
G02*
X173735000Y-119510000I-75000J0D01*
G01*
X172410000Y-119510000D01*
G75*
G02*
X172335000Y-119435000I0J75000D01*
G01*
X172335000Y-119285000D01*
G75*
G02*
X172410000Y-119210000I75000J0D01*
G01*
G37*
G36*
G01*
X172410000Y-118710000D02*
X173735000Y-118710000D01*
G75*
G02*
X173810000Y-118785000I0J-75000D01*
G01*
X173810000Y-118935000D01*
G75*
G02*
X173735000Y-119010000I-75000J0D01*
G01*
X172410000Y-119010000D01*
G75*
G02*
X172335000Y-118935000I0J75000D01*
G01*
X172335000Y-118785000D01*
G75*
G02*
X172410000Y-118710000I75000J0D01*
G01*
G37*
G36*
G01*
X172410000Y-118210000D02*
X173735000Y-118210000D01*
G75*
G02*
X173810000Y-118285000I0J-75000D01*
G01*
X173810000Y-118435000D01*
G75*
G02*
X173735000Y-118510000I-75000J0D01*
G01*
X172410000Y-118510000D01*
G75*
G02*
X172335000Y-118435000I0J75000D01*
G01*
X172335000Y-118285000D01*
G75*
G02*
X172410000Y-118210000I75000J0D01*
G01*
G37*
G36*
G01*
X172410000Y-117710000D02*
X173735000Y-117710000D01*
G75*
G02*
X173810000Y-117785000I0J-75000D01*
G01*
X173810000Y-117935000D01*
G75*
G02*
X173735000Y-118010000I-75000J0D01*
G01*
X172410000Y-118010000D01*
G75*
G02*
X172335000Y-117935000I0J75000D01*
G01*
X172335000Y-117785000D01*
G75*
G02*
X172410000Y-117710000I75000J0D01*
G01*
G37*
G36*
G01*
X172410000Y-117210000D02*
X173735000Y-117210000D01*
G75*
G02*
X173810000Y-117285000I0J-75000D01*
G01*
X173810000Y-117435000D01*
G75*
G02*
X173735000Y-117510000I-75000J0D01*
G01*
X172410000Y-117510000D01*
G75*
G02*
X172335000Y-117435000I0J75000D01*
G01*
X172335000Y-117285000D01*
G75*
G02*
X172410000Y-117210000I75000J0D01*
G01*
G37*
G36*
G01*
X172410000Y-116710000D02*
X173735000Y-116710000D01*
G75*
G02*
X173810000Y-116785000I0J-75000D01*
G01*
X173810000Y-116935000D01*
G75*
G02*
X173735000Y-117010000I-75000J0D01*
G01*
X172410000Y-117010000D01*
G75*
G02*
X172335000Y-116935000I0J75000D01*
G01*
X172335000Y-116785000D01*
G75*
G02*
X172410000Y-116710000I75000J0D01*
G01*
G37*
G36*
G01*
X172410000Y-116210000D02*
X173735000Y-116210000D01*
G75*
G02*
X173810000Y-116285000I0J-75000D01*
G01*
X173810000Y-116435000D01*
G75*
G02*
X173735000Y-116510000I-75000J0D01*
G01*
X172410000Y-116510000D01*
G75*
G02*
X172335000Y-116435000I0J75000D01*
G01*
X172335000Y-116285000D01*
G75*
G02*
X172410000Y-116210000I75000J0D01*
G01*
G37*
G36*
G01*
X172410000Y-115710000D02*
X173735000Y-115710000D01*
G75*
G02*
X173810000Y-115785000I0J-75000D01*
G01*
X173810000Y-115935000D01*
G75*
G02*
X173735000Y-116010000I-75000J0D01*
G01*
X172410000Y-116010000D01*
G75*
G02*
X172335000Y-115935000I0J75000D01*
G01*
X172335000Y-115785000D01*
G75*
G02*
X172410000Y-115710000I75000J0D01*
G01*
G37*
G36*
G01*
X172410000Y-115210000D02*
X173735000Y-115210000D01*
G75*
G02*
X173810000Y-115285000I0J-75000D01*
G01*
X173810000Y-115435000D01*
G75*
G02*
X173735000Y-115510000I-75000J0D01*
G01*
X172410000Y-115510000D01*
G75*
G02*
X172335000Y-115435000I0J75000D01*
G01*
X172335000Y-115285000D01*
G75*
G02*
X172410000Y-115210000I75000J0D01*
G01*
G37*
D17*
X185166000Y-107061000D03*
M02*
