G04 #@! TF.GenerationSoftware,KiCad,Pcbnew,(5.1.10)-1*
G04 #@! TF.CreationDate,2021-09-04T13:32:15+03:00*
G04 #@! TF.ProjectId,amp_control_board,616d705f-636f-46e7-9472-6f6c5f626f61,rev?*
G04 #@! TF.SameCoordinates,Original*
G04 #@! TF.FileFunction,Paste,Bot*
G04 #@! TF.FilePolarity,Positive*
%FSLAX46Y46*%
G04 Gerber Fmt 4.6, Leading zero omitted, Abs format (unit mm)*
G04 Created by KiCad (PCBNEW (5.1.10)-1) date 2021-09-04 13:32:15*
%MOMM*%
%LPD*%
G01*
G04 APERTURE LIST*
%ADD10R,2.200000X1.200000*%
%ADD11R,3.050000X2.750000*%
G04 APERTURE END LIST*
G36*
G01*
X176895000Y-93885000D02*
X174895000Y-93885000D01*
G75*
G02*
X174645000Y-93635000I0J250000D01*
G01*
X174645000Y-90135000D01*
G75*
G02*
X174895000Y-89885000I250000J0D01*
G01*
X176895000Y-89885000D01*
G75*
G02*
X177145000Y-90135000I0J-250000D01*
G01*
X177145000Y-93635000D01*
G75*
G02*
X176895000Y-93885000I-250000J0D01*
G01*
G37*
G36*
G01*
X176895000Y-101885000D02*
X174895000Y-101885000D01*
G75*
G02*
X174645000Y-101635000I0J250000D01*
G01*
X174645000Y-98135000D01*
G75*
G02*
X174895000Y-97885000I250000J0D01*
G01*
X176895000Y-97885000D01*
G75*
G02*
X177145000Y-98135000I0J-250000D01*
G01*
X177145000Y-101635000D01*
G75*
G02*
X176895000Y-101885000I-250000J0D01*
G01*
G37*
G36*
G01*
X151670000Y-105680000D02*
X151670000Y-107680000D01*
G75*
G02*
X151420000Y-107930000I-250000J0D01*
G01*
X147920000Y-107930000D01*
G75*
G02*
X147670000Y-107680000I0J250000D01*
G01*
X147670000Y-105680000D01*
G75*
G02*
X147920000Y-105430000I250000J0D01*
G01*
X151420000Y-105430000D01*
G75*
G02*
X151670000Y-105680000I0J-250000D01*
G01*
G37*
G36*
G01*
X159670000Y-105680000D02*
X159670000Y-107680000D01*
G75*
G02*
X159420000Y-107930000I-250000J0D01*
G01*
X155920000Y-107930000D01*
G75*
G02*
X155670000Y-107680000I0J250000D01*
G01*
X155670000Y-105680000D01*
G75*
G02*
X155920000Y-105430000I250000J0D01*
G01*
X159420000Y-105430000D01*
G75*
G02*
X159670000Y-105680000I0J-250000D01*
G01*
G37*
G36*
G01*
X160290000Y-85820000D02*
X162290000Y-85820000D01*
G75*
G02*
X162540000Y-86070000I0J-250000D01*
G01*
X162540000Y-89570000D01*
G75*
G02*
X162290000Y-89820000I-250000J0D01*
G01*
X160290000Y-89820000D01*
G75*
G02*
X160040000Y-89570000I0J250000D01*
G01*
X160040000Y-86070000D01*
G75*
G02*
X160290000Y-85820000I250000J0D01*
G01*
G37*
G36*
G01*
X160290000Y-77820000D02*
X162290000Y-77820000D01*
G75*
G02*
X162540000Y-78070000I0J-250000D01*
G01*
X162540000Y-81570000D01*
G75*
G02*
X162290000Y-81820000I-250000J0D01*
G01*
X160290000Y-81820000D01*
G75*
G02*
X160040000Y-81570000I0J250000D01*
G01*
X160040000Y-78070000D01*
G75*
G02*
X160290000Y-77820000I250000J0D01*
G01*
G37*
G36*
G01*
X147590000Y-85820000D02*
X149590000Y-85820000D01*
G75*
G02*
X149840000Y-86070000I0J-250000D01*
G01*
X149840000Y-89970000D01*
G75*
G02*
X149590000Y-90220000I-250000J0D01*
G01*
X147590000Y-90220000D01*
G75*
G02*
X147340000Y-89970000I0J250000D01*
G01*
X147340000Y-86070000D01*
G75*
G02*
X147590000Y-85820000I250000J0D01*
G01*
G37*
G36*
G01*
X147590000Y-77420000D02*
X149590000Y-77420000D01*
G75*
G02*
X149840000Y-77670000I0J-250000D01*
G01*
X149840000Y-81570000D01*
G75*
G02*
X149590000Y-81820000I-250000J0D01*
G01*
X147590000Y-81820000D01*
G75*
G02*
X147340000Y-81570000I0J250000D01*
G01*
X147340000Y-77670000D01*
G75*
G02*
X147590000Y-77420000I250000J0D01*
G01*
G37*
D10*
X161045000Y-92970000D03*
X161045000Y-97530000D03*
D11*
X153070000Y-96775000D03*
X156420000Y-93725000D03*
X153070000Y-93725000D03*
X156420000Y-96775000D03*
X170605000Y-107060000D03*
X173955000Y-110110000D03*
X170605000Y-110110000D03*
X173955000Y-107060000D03*
D10*
X165980000Y-106305000D03*
X165980000Y-110865000D03*
M02*
